<svg width="262" height="60" viewBox="0 0 262 60" fill="none" xmlns="http://www.w3.org/2000/svg">
<path d="M40.9091 57.6923V16.1538C40.9091 14.7692 40 13.8462 38.6364 13.8462H31.8182V0L13.6364 5.07687V57.6923H0V60H50V57.6923H40.9091ZM22.7273 57.6923V9.23072H27.2727V57.6923H22.7273Z" fill="#FFB600"/>
<path d="M78.888 22.624C78.888 20.992 79.264 19.528 80.016 18.232C80.784 16.936 81.816 15.928 83.112 15.208C84.424 14.472 85.856 14.104 87.408 14.104C89.184 14.104 90.76 14.544 92.136 15.424C93.528 16.288 94.536 17.52 95.16 19.12H91.872C91.44 18.24 90.84 17.584 90.072 17.152C89.304 16.72 88.416 16.504 87.408 16.504C86.304 16.504 85.32 16.752 84.456 17.248C83.592 17.744 82.912 18.456 82.416 19.384C81.936 20.312 81.696 21.392 81.696 22.624C81.696 23.856 81.936 24.936 82.416 25.864C82.912 26.792 83.592 27.512 84.456 28.024C85.32 28.52 86.304 28.768 87.408 28.768C88.416 28.768 89.304 28.552 90.072 28.12C90.84 27.688 91.44 27.032 91.872 26.152H95.16C94.536 27.752 93.528 28.984 92.136 29.848C90.76 30.712 89.184 31.144 87.408 31.144C85.84 31.144 84.408 30.784 83.112 30.064C81.816 29.328 80.784 28.312 80.016 27.016C79.264 25.72 78.888 24.256 78.888 22.624ZM104.099 31.216C102.851 31.216 101.723 30.936 100.715 30.376C99.7065 29.8 98.9145 29 98.3385 27.976C97.7625 26.936 97.4745 25.736 97.4745 24.376C97.4745 23.032 97.7705 21.84 98.3625 20.8C98.9545 19.76 99.7625 18.96 100.787 18.4C101.811 17.84 102.955 17.56 104.219 17.56C105.483 17.56 106.627 17.84 107.651 18.4C108.675 18.96 109.483 19.76 110.075 20.8C110.667 21.84 110.963 23.032 110.963 24.376C110.963 25.72 110.659 26.912 110.051 27.952C109.443 28.992 108.611 29.8 107.555 30.376C106.515 30.936 105.363 31.216 104.099 31.216ZM104.099 28.84C104.803 28.84 105.459 28.672 106.067 28.336C106.691 28 107.195 27.496 107.579 26.824C107.963 26.152 108.155 25.336 108.155 24.376C108.155 23.416 107.971 22.608 107.603 21.952C107.235 21.28 106.747 20.776 106.139 20.44C105.531 20.104 104.875 19.936 104.171 19.936C103.467 19.936 102.811 20.104 102.203 20.44C101.611 20.776 101.139 21.28 100.787 21.952C100.435 22.608 100.259 23.416 100.259 24.376C100.259 25.8 100.619 26.904 101.339 27.688C102.075 28.456 102.995 28.84 104.099 28.84ZM120.339 17.56C121.379 17.56 122.307 17.776 123.123 18.208C123.955 18.64 124.603 19.28 125.067 20.128C125.531 20.976 125.763 22 125.763 23.2V31H123.051V23.608C123.051 22.424 122.755 21.52 122.163 20.896C121.571 20.256 120.763 19.936 119.739 19.936C118.715 19.936 117.899 20.256 117.291 20.896C116.699 21.52 116.403 22.424 116.403 23.608V31H113.667V17.776H116.403V19.288C116.851 18.744 117.419 18.32 118.107 18.016C118.811 17.712 119.555 17.56 120.339 17.56ZM134.053 31.216C133.013 31.216 132.077 31.032 131.245 30.664C130.429 30.28 129.781 29.768 129.301 29.128C128.821 28.472 128.565 27.744 128.533 26.944H131.365C131.413 27.504 131.677 27.976 132.157 28.36C132.653 28.728 133.269 28.912 134.005 28.912C134.773 28.912 135.365 28.768 135.781 28.48C136.213 28.176 136.429 27.792 136.429 27.328C136.429 26.832 136.189 26.464 135.709 26.224C135.245 25.984 134.501 25.72 133.477 25.432C132.485 25.16 131.677 24.896 131.053 24.64C130.429 24.384 129.885 23.992 129.421 23.464C128.973 22.936 128.749 22.24 128.749 21.376C128.749 20.672 128.957 20.032 129.373 19.456C129.789 18.864 130.381 18.4 131.149 18.064C131.933 17.728 132.829 17.56 133.837 17.56C135.341 17.56 136.549 17.944 137.461 18.712C138.389 19.464 138.885 20.496 138.949 21.808H136.213C136.165 21.216 135.925 20.744 135.493 20.392C135.061 20.04 134.477 19.864 133.741 19.864C133.021 19.864 132.469 20 132.085 20.272C131.701 20.544 131.509 20.904 131.509 21.352C131.509 21.704 131.637 22 131.893 22.24C132.149 22.48 132.461 22.672 132.829 22.816C133.197 22.944 133.741 23.112 134.461 23.32C135.421 23.576 136.205 23.84 136.813 24.112C137.437 24.368 137.973 24.752 138.421 25.264C138.869 25.776 139.101 26.456 139.117 27.304C139.117 28.056 138.909 28.728 138.493 29.32C138.077 29.912 137.485 30.376 136.717 30.712C135.965 31.048 135.077 31.216 134.053 31.216ZM145.265 20.008V27.328C145.265 27.824 145.377 28.184 145.601 28.408C145.841 28.616 146.241 28.72 146.801 28.72H148.481V31H146.321C145.089 31 144.145 30.712 143.489 30.136C142.833 29.56 142.505 28.624 142.505 27.328V20.008H140.945V17.776H142.505V14.488H145.265V17.776H148.481V20.008H145.265ZM153.739 19.696C154.139 19.024 154.667 18.504 155.323 18.136C155.995 17.752 156.787 17.56 157.699 17.56V20.392H157.003C155.931 20.392 155.115 20.664 154.555 21.208C154.011 21.752 153.739 22.696 153.739 24.04V31H151.003V17.776H153.739V19.696ZM172.19 17.776V31H169.454V29.44C169.022 29.984 168.454 30.416 167.75 30.736C167.062 31.04 166.326 31.192 165.542 31.192C164.502 31.192 163.566 30.976 162.734 30.544C161.918 30.112 161.27 29.472 160.79 28.624C160.326 27.776 160.094 26.752 160.094 25.552V17.776H162.806V25.144C162.806 26.328 163.102 27.24 163.694 27.88C164.286 28.504 165.094 28.816 166.118 28.816C167.142 28.816 167.95 28.504 168.542 27.88C169.15 27.24 169.454 26.328 169.454 25.144V17.776H172.19ZM174.888 24.376C174.888 23.016 175.16 21.824 175.704 20.8C176.264 19.76 177.032 18.96 178.008 18.4C178.984 17.84 180.104 17.56 181.368 17.56C182.968 17.56 184.288 17.944 185.328 18.712C186.384 19.464 187.096 20.544 187.464 21.952H184.512C184.272 21.296 183.888 20.784 183.36 20.416C182.832 20.048 182.168 19.864 181.368 19.864C180.248 19.864 179.352 20.264 178.68 21.064C178.024 21.848 177.696 22.952 177.696 24.376C177.696 25.8 178.024 26.912 178.68 27.712C179.352 28.512 180.248 28.912 181.368 28.912C182.952 28.912 184 28.216 184.512 26.824H187.464C187.08 28.168 186.36 29.24 185.304 30.04C184.248 30.824 182.936 31.216 181.368 31.216C180.104 31.216 178.984 30.936 178.008 30.376C177.032 29.8 176.264 29 175.704 27.976C175.16 26.936 174.888 25.736 174.888 24.376ZM193.383 20.008V27.328C193.383 27.824 193.495 28.184 193.719 28.408C193.959 28.616 194.359 28.72 194.919 28.72H196.599V31H194.439C193.207 31 192.263 30.712 191.607 30.136C190.951 29.56 190.623 28.624 190.623 27.328V20.008H189.063V17.776H190.623V14.488H193.383V17.776H196.599V20.008H193.383ZM204.856 31.216C203.608 31.216 202.48 30.936 201.472 30.376C200.464 29.8 199.672 29 199.096 27.976C198.52 26.936 198.232 25.736 198.232 24.376C198.232 23.032 198.528 21.84 199.12 20.8C199.712 19.76 200.52 18.96 201.544 18.4C202.568 17.84 203.712 17.56 204.976 17.56C206.24 17.56 207.384 17.84 208.408 18.4C209.432 18.96 210.24 19.76 210.832 20.8C211.424 21.84 211.72 23.032 211.72 24.376C211.72 25.72 211.416 26.912 210.808 27.952C210.2 28.992 209.368 29.8 208.312 30.376C207.272 30.936 206.12 31.216 204.856 31.216ZM204.856 28.84C205.56 28.84 206.216 28.672 206.824 28.336C207.448 28 207.952 27.496 208.336 26.824C208.72 26.152 208.912 25.336 208.912 24.376C208.912 23.416 208.728 22.608 208.36 21.952C207.992 21.28 207.504 20.776 206.896 20.44C206.288 20.104 205.632 19.936 204.928 19.936C204.224 19.936 203.568 20.104 202.96 20.44C202.368 20.776 201.896 21.28 201.544 21.952C201.192 22.608 201.016 23.416 201.016 24.376C201.016 25.8 201.376 26.904 202.096 27.688C202.832 28.456 203.752 28.84 204.856 28.84Z" fill="white"/>
<path d="M223.353 22.432C224.249 22.592 225.009 23.064 225.633 23.848C226.257 24.632 226.569 25.52 226.569 26.512C226.569 27.36 226.345 28.128 225.897 28.816C225.465 29.488 224.833 30.024 224.001 30.424C223.169 30.808 222.201 31 221.097 31H214.425V14.32H220.785C221.921 14.32 222.897 14.512 223.713 14.896C224.529 15.28 225.145 15.8 225.561 16.456C225.977 17.096 226.185 17.816 226.185 18.616C226.185 19.576 225.929 20.376 225.417 21.016C224.905 21.656 224.217 22.128 223.353 22.432ZM217.161 21.328H220.545C221.441 21.328 222.137 21.128 222.633 20.728C223.145 20.312 223.401 19.72 223.401 18.952C223.401 18.2 223.145 17.616 222.633 17.2C222.137 16.768 221.441 16.552 220.545 16.552H217.161V21.328ZM220.857 28.768C221.785 28.768 222.513 28.544 223.041 28.096C223.569 27.648 223.833 27.024 223.833 26.224C223.833 25.408 223.553 24.76 222.993 24.28C222.433 23.8 221.689 23.56 220.761 23.56H217.161V28.768H220.857ZM232.254 14.32V24.952C232.254 26.216 232.582 27.168 233.238 27.808C233.91 28.448 234.838 28.768 236.022 28.768C237.222 28.768 238.15 28.448 238.806 27.808C239.478 27.168 239.814 26.216 239.814 24.952V14.32H242.55V24.904C242.55 26.264 242.254 27.416 241.662 28.36C241.07 29.304 240.278 30.008 239.286 30.472C238.294 30.936 237.198 31.168 235.998 31.168C234.798 31.168 233.702 30.936 232.71 30.472C231.734 30.008 230.958 29.304 230.382 28.36C229.806 27.416 229.518 26.264 229.518 24.904V14.32H232.254ZM251.561 14.32C253.337 14.32 254.889 14.664 256.217 15.352C257.561 16.024 258.593 17 259.312 18.28C260.049 19.544 260.417 21.024 260.417 22.72C260.417 24.416 260.049 25.888 259.312 27.136C258.593 28.384 257.561 29.344 256.217 30.016C254.889 30.672 253.337 31 251.561 31H246.113V14.32H251.561ZM251.561 28.768C253.513 28.768 255.009 28.24 256.049 27.184C257.089 26.128 257.609 24.64 257.609 22.72C257.609 20.784 257.089 19.272 256.049 18.184C255.009 17.096 253.513 16.552 251.561 16.552H248.849V28.768H251.561Z" fill="#FFB600"/>
<path d="M88.701 48.336C88.797 48.336 88.881 48.375 88.953 48.453L89.646 49.2C89.118 49.812 88.476 50.289 87.72 50.631C86.97 50.973 86.061 51.144 84.993 51.144C84.069 51.144 83.229 50.985 82.473 50.667C81.717 50.343 81.072 49.893 80.538 49.317C80.004 48.735 79.59 48.039 79.296 47.229C79.002 46.419 78.855 45.528 78.855 44.556C78.855 43.584 79.008 42.693 79.314 41.883C79.62 41.073 80.049 40.377 80.601 39.795C81.159 39.213 81.825 38.763 82.599 38.445C83.373 38.121 84.228 37.959 85.164 37.959C86.082 37.959 86.892 38.106 87.594 38.4C88.296 38.694 88.914 39.093 89.448 39.597L88.872 40.398C88.836 40.458 88.788 40.509 88.728 40.551C88.674 40.587 88.599 40.605 88.503 40.605C88.395 40.605 88.263 40.548 88.107 40.434C87.951 40.314 87.747 40.182 87.495 40.038C87.243 39.894 86.928 39.765 86.55 39.651C86.172 39.531 85.707 39.471 85.155 39.471C84.489 39.471 83.88 39.588 83.328 39.822C82.776 40.05 82.299 40.383 81.897 40.821C81.501 41.259 81.192 41.793 80.97 42.423C80.748 43.053 80.637 43.764 80.637 44.556C80.637 45.36 80.751 46.077 80.979 46.707C81.213 47.337 81.528 47.871 81.924 48.309C82.326 48.741 82.797 49.071 83.337 49.299C83.883 49.527 84.471 49.641 85.101 49.641C85.485 49.641 85.83 49.62 86.136 49.578C86.448 49.53 86.733 49.458 86.991 49.362C87.255 49.266 87.498 49.146 87.72 49.002C87.948 48.852 88.173 48.675 88.395 48.471C88.497 48.381 88.599 48.336 88.701 48.336ZM94.9597 41.739C95.6257 41.739 96.2257 41.85 96.7597 42.072C97.2937 42.294 97.7497 42.609 98.1277 43.017C98.5057 43.425 98.7937 43.92 98.9917 44.502C99.1957 45.078 99.2977 45.723 99.2977 46.437C99.2977 47.157 99.1957 47.805 98.9917 48.381C98.7937 48.957 98.5057 49.449 98.1277 49.857C97.7497 50.265 97.2937 50.58 96.7597 50.802C96.2257 51.018 95.6257 51.126 94.9597 51.126C94.2877 51.126 93.6817 51.018 93.1417 50.802C92.6077 50.58 92.1517 50.265 91.7737 49.857C91.3957 49.449 91.1047 48.957 90.9007 48.381C90.7027 47.805 90.6037 47.157 90.6037 46.437C90.6037 45.723 90.7027 45.078 90.9007 44.502C91.1047 43.92 91.3957 43.425 91.7737 43.017C92.1517 42.609 92.6077 42.294 93.1417 42.072C93.6817 41.85 94.2877 41.739 94.9597 41.739ZM94.9597 49.875C95.8597 49.875 96.5317 49.575 96.9757 48.975C97.4197 48.369 97.6417 47.526 97.6417 46.446C97.6417 45.36 97.4197 44.514 96.9757 43.908C96.5317 43.302 95.8597 42.999 94.9597 42.999C94.5037 42.999 94.1047 43.077 93.7627 43.233C93.4267 43.389 93.1447 43.614 92.9167 43.908C92.6947 44.202 92.5267 44.565 92.4127 44.997C92.3047 45.423 92.2507 45.906 92.2507 46.446C92.2507 47.526 92.4727 48.369 92.9167 48.975C93.3667 49.575 94.0477 49.875 94.9597 49.875ZM102.842 43.206C103.04 42.984 103.25 42.783 103.472 42.603C103.694 42.423 103.928 42.27 104.174 42.144C104.426 42.012 104.69 41.913 104.966 41.847C105.248 41.775 105.551 41.739 105.875 41.739C106.373 41.739 106.811 41.823 107.189 41.991C107.573 42.153 107.891 42.387 108.143 42.693C108.401 42.993 108.596 43.356 108.728 43.782C108.86 44.208 108.926 44.679 108.926 45.195V51H107.315V45.195C107.315 44.505 107.156 43.971 106.838 43.593C106.526 43.209 106.049 43.017 105.407 43.017C104.933 43.017 104.489 43.131 104.075 43.359C103.667 43.587 103.289 43.896 102.941 44.286V51H101.33V41.883H102.293C102.521 41.883 102.662 41.994 102.716 42.216L102.842 43.206ZM116.677 43.386C116.605 43.518 116.494 43.584 116.344 43.584C116.254 43.584 116.152 43.551 116.038 43.485C115.924 43.419 115.783 43.347 115.615 43.269C115.453 43.185 115.258 43.11 115.03 43.044C114.802 42.972 114.532 42.936 114.22 42.936C113.95 42.936 113.707 42.972 113.491 43.044C113.275 43.11 113.089 43.203 112.933 43.323C112.783 43.443 112.666 43.584 112.582 43.746C112.504 43.902 112.465 44.073 112.465 44.259C112.465 44.493 112.531 44.688 112.663 44.844C112.801 45 112.981 45.135 113.203 45.249C113.425 45.363 113.677 45.465 113.959 45.555C114.241 45.639 114.529 45.732 114.823 45.834C115.123 45.93 115.414 46.038 115.696 46.158C115.978 46.278 116.23 46.428 116.452 46.608C116.674 46.788 116.851 47.01 116.983 47.274C117.121 47.532 117.19 47.844 117.19 48.21C117.19 48.63 117.115 49.02 116.965 49.38C116.815 49.734 116.593 50.043 116.299 50.307C116.005 50.565 115.645 50.769 115.219 50.919C114.793 51.069 114.301 51.144 113.743 51.144C113.107 51.144 112.531 51.042 112.015 50.838C111.499 50.628 111.061 50.361 110.701 50.037L111.079 49.425C111.127 49.347 111.184 49.287 111.25 49.245C111.316 49.203 111.4 49.182 111.502 49.182C111.61 49.182 111.724 49.224 111.844 49.308C111.964 49.392 112.108 49.485 112.276 49.587C112.45 49.689 112.66 49.782 112.906 49.866C113.152 49.95 113.458 49.992 113.824 49.992C114.136 49.992 114.409 49.953 114.643 49.875C114.877 49.791 115.072 49.68 115.228 49.542C115.384 49.404 115.498 49.245 115.57 49.065C115.648 48.885 115.687 48.693 115.687 48.489C115.687 48.237 115.618 48.03 115.48 47.868C115.348 47.7 115.171 47.559 114.949 47.445C114.727 47.325 114.472 47.223 114.184 47.139C113.902 47.049 113.611 46.956 113.311 46.86C113.017 46.764 112.726 46.656 112.438 46.536C112.156 46.41 111.904 46.254 111.682 46.068C111.46 45.882 111.28 45.654 111.142 45.384C111.01 45.108 110.944 44.775 110.944 44.385C110.944 44.037 111.016 43.704 111.16 43.386C111.304 43.062 111.514 42.78 111.79 42.54C112.066 42.294 112.405 42.099 112.807 41.955C113.209 41.811 113.668 41.739 114.184 41.739C114.784 41.739 115.321 41.835 115.795 42.027C116.275 42.213 116.689 42.471 117.037 42.801L116.677 43.386ZM121.953 51.144C121.233 51.144 120.678 50.943 120.288 50.541C119.904 50.139 119.712 49.56 119.712 48.804V43.224H118.614C118.518 43.224 118.437 43.197 118.371 43.143C118.305 43.083 118.272 42.993 118.272 42.873V42.234L119.766 42.045L120.135 39.228C120.153 39.138 120.192 39.066 120.252 39.012C120.318 38.952 120.402 38.922 120.504 38.922H121.314V42.063H123.951V43.224H121.314V48.696C121.314 49.08 121.407 49.365 121.593 49.551C121.779 49.737 122.019 49.83 122.313 49.83C122.481 49.83 122.625 49.809 122.745 49.767C122.871 49.719 122.979 49.668 123.069 49.614C123.159 49.56 123.234 49.512 123.294 49.47C123.36 49.422 123.417 49.398 123.465 49.398C123.549 49.398 123.624 49.449 123.69 49.551L124.158 50.316C123.882 50.574 123.549 50.778 123.159 50.928C122.769 51.072 122.367 51.144 121.953 51.144ZM127.126 43.71C127.414 43.086 127.768 42.6 128.188 42.252C128.608 41.898 129.121 41.721 129.727 41.721C129.919 41.721 130.102 41.742 130.276 41.784C130.456 41.826 130.615 41.892 130.753 41.982L130.636 43.179C130.6 43.329 130.51 43.404 130.366 43.404C130.282 43.404 130.159 43.386 129.997 43.35C129.835 43.314 129.652 43.296 129.448 43.296C129.16 43.296 128.902 43.338 128.674 43.422C128.452 43.506 128.251 43.632 128.071 43.8C127.897 43.962 127.738 44.166 127.594 44.412C127.456 44.652 127.33 44.928 127.216 45.24V51H125.605V41.883H126.523C126.697 41.883 126.817 41.916 126.883 41.982C126.949 42.048 126.994 42.162 127.018 42.324L127.126 43.71ZM139.659 41.883V51H138.705C138.477 51 138.333 50.889 138.273 50.667L138.147 49.686C137.751 50.124 137.307 50.478 136.815 50.748C136.323 51.012 135.759 51.144 135.123 51.144C134.625 51.144 134.184 51.063 133.8 50.901C133.422 50.733 133.104 50.499 132.846 50.199C132.588 49.899 132.393 49.536 132.261 49.11C132.135 48.684 132.072 48.213 132.072 47.697V41.883H133.674V47.697C133.674 48.387 133.83 48.921 134.142 49.299C134.46 49.677 134.943 49.866 135.591 49.866C136.065 49.866 136.506 49.755 136.914 49.533C137.328 49.305 137.709 48.993 138.057 48.597V41.883H139.659ZM148.544 43.503C148.496 43.569 148.448 43.62 148.4 43.656C148.352 43.692 148.286 43.71 148.202 43.71C148.112 43.71 148.013 43.674 147.905 43.602C147.797 43.524 147.662 43.44 147.5 43.35C147.344 43.26 147.149 43.179 146.915 43.107C146.687 43.029 146.405 42.99 146.069 42.99C145.619 42.99 145.223 43.071 144.881 43.233C144.539 43.389 144.251 43.617 144.017 43.917C143.789 44.217 143.615 44.58 143.495 45.006C143.381 45.432 143.324 45.909 143.324 46.437C143.324 46.989 143.387 47.481 143.513 47.913C143.639 48.339 143.816 48.699 144.044 48.993C144.278 49.281 144.557 49.503 144.881 49.659C145.211 49.809 145.58 49.884 145.988 49.884C146.378 49.884 146.699 49.839 146.951 49.749C147.203 49.653 147.41 49.548 147.572 49.434C147.74 49.32 147.878 49.218 147.986 49.128C148.1 49.032 148.211 48.984 148.319 48.984C148.451 48.984 148.553 49.035 148.625 49.137L149.075 49.722C148.877 49.968 148.652 50.178 148.4 50.352C148.148 50.526 147.875 50.673 147.581 50.793C147.293 50.907 146.99 50.991 146.672 51.045C146.354 51.099 146.03 51.126 145.7 51.126C145.13 51.126 144.599 51.021 144.107 50.811C143.621 50.601 143.198 50.298 142.838 49.902C142.478 49.5 142.196 49.008 141.992 48.426C141.788 47.844 141.686 47.181 141.686 46.437C141.686 45.759 141.779 45.132 141.965 44.556C142.157 43.98 142.433 43.485 142.793 43.071C143.159 42.651 143.606 42.324 144.134 42.09C144.668 41.856 145.28 41.739 145.97 41.739C146.612 41.739 147.176 41.844 147.662 42.054C148.154 42.258 148.589 42.549 148.967 42.927L148.544 43.503ZM159.254 51H157.652V43.224H152.954V48.696C152.954 49.08 153.047 49.365 153.233 49.551C153.419 49.737 153.659 49.83 153.953 49.83C154.121 49.83 154.265 49.809 154.385 49.767C154.511 49.719 154.619 49.668 154.709 49.614C154.799 49.56 154.874 49.512 154.934 49.47C155 49.422 155.057 49.398 155.105 49.398C155.189 49.398 155.264 49.449 155.33 49.551L155.798 50.316C155.522 50.574 155.189 50.778 154.799 50.928C154.409 51.072 154.007 51.144 153.593 51.144C152.873 51.144 152.318 50.943 151.928 50.541C151.544 50.139 151.352 49.56 151.352 48.804V43.224H150.254C150.158 43.224 150.077 43.197 150.011 43.143C149.945 43.083 149.912 42.993 149.912 42.873V42.234L151.406 42.036L151.775 39.228C151.793 39.138 151.832 39.066 151.892 39.012C151.958 38.952 152.042 38.922 152.144 38.922H152.954V42.063H159.254V51ZM159.65 38.958C159.65 39.114 159.617 39.261 159.551 39.399C159.491 39.531 159.407 39.648 159.299 39.75C159.197 39.852 159.077 39.933 158.939 39.993C158.801 40.053 158.654 40.083 158.498 40.083C158.342 40.083 158.195 40.053 158.057 39.993C157.925 39.933 157.808 39.852 157.706 39.75C157.604 39.648 157.523 39.531 157.463 39.399C157.403 39.261 157.373 39.114 157.373 38.958C157.373 38.802 157.403 38.655 157.463 38.517C157.523 38.373 157.604 38.25 157.706 38.148C157.808 38.04 157.925 37.956 158.057 37.896C158.195 37.836 158.342 37.806 158.498 37.806C158.654 37.806 158.801 37.836 158.939 37.896C159.077 37.956 159.197 38.04 159.299 38.148C159.407 38.25 159.491 38.373 159.551 38.517C159.617 38.655 159.65 38.802 159.65 38.958ZM165.729 41.739C166.395 41.739 166.995 41.85 167.529 42.072C168.063 42.294 168.519 42.609 168.897 43.017C169.275 43.425 169.563 43.92 169.761 44.502C169.965 45.078 170.067 45.723 170.067 46.437C170.067 47.157 169.965 47.805 169.761 48.381C169.563 48.957 169.275 49.449 168.897 49.857C168.519 50.265 168.063 50.58 167.529 50.802C166.995 51.018 166.395 51.126 165.729 51.126C165.057 51.126 164.451 51.018 163.911 50.802C163.377 50.58 162.921 50.265 162.543 49.857C162.165 49.449 161.874 48.957 161.67 48.381C161.472 47.805 161.373 47.157 161.373 46.437C161.373 45.723 161.472 45.078 161.67 44.502C161.874 43.92 162.165 43.425 162.543 43.017C162.921 42.609 163.377 42.294 163.911 42.072C164.451 41.85 165.057 41.739 165.729 41.739ZM165.729 49.875C166.629 49.875 167.301 49.575 167.745 48.975C168.189 48.369 168.411 47.526 168.411 46.446C168.411 45.36 168.189 44.514 167.745 43.908C167.301 43.302 166.629 42.999 165.729 42.999C165.273 42.999 164.874 43.077 164.532 43.233C164.196 43.389 163.914 43.614 163.686 43.908C163.464 44.202 163.296 44.565 163.182 44.997C163.074 45.423 163.02 45.906 163.02 46.446C163.02 47.526 163.242 48.369 163.686 48.975C164.136 49.575 164.817 49.875 165.729 49.875ZM173.611 43.206C173.809 42.984 174.019 42.783 174.241 42.603C174.463 42.423 174.697 42.27 174.943 42.144C175.195 42.012 175.459 41.913 175.735 41.847C176.017 41.775 176.32 41.739 176.644 41.739C177.142 41.739 177.58 41.823 177.958 41.991C178.342 42.153 178.66 42.387 178.912 42.693C179.17 42.993 179.365 43.356 179.497 43.782C179.629 44.208 179.695 44.679 179.695 45.195V51H178.084V45.195C178.084 44.505 177.925 43.971 177.607 43.593C177.295 43.209 176.818 43.017 176.176 43.017C175.702 43.017 175.258 43.131 174.844 43.359C174.436 43.587 174.058 43.896 173.71 44.286V51H172.099V41.883H173.062C173.29 41.883 173.431 41.994 173.485 42.216L173.611 43.206ZM193.717 40.119C193.663 40.209 193.603 40.278 193.537 40.326C193.477 40.368 193.402 40.389 193.312 40.389C193.21 40.389 193.09 40.338 192.952 40.236C192.814 40.134 192.64 40.023 192.43 39.903C192.226 39.777 191.977 39.663 191.683 39.561C191.395 39.459 191.044 39.408 190.63 39.408C190.24 39.408 189.895 39.462 189.595 39.57C189.301 39.672 189.052 39.813 188.848 39.993C188.65 40.173 188.5 40.386 188.398 40.632C188.296 40.872 188.245 41.133 188.245 41.415C188.245 41.775 188.332 42.075 188.506 42.315C188.686 42.549 188.92 42.75 189.208 42.918C189.502 43.086 189.832 43.233 190.198 43.359C190.57 43.479 190.948 43.605 191.332 43.737C191.722 43.869 192.1 44.019 192.466 44.187C192.838 44.349 193.168 44.556 193.456 44.808C193.75 45.06 193.984 45.369 194.158 45.735C194.338 46.101 194.428 46.551 194.428 47.085C194.428 47.649 194.332 48.18 194.14 48.678C193.948 49.17 193.666 49.599 193.294 49.965C192.928 50.331 192.475 50.619 191.935 50.829C191.401 51.039 190.792 51.144 190.108 51.144C189.268 51.144 188.506 50.994 187.822 50.694C187.138 50.388 186.553 49.977 186.067 49.461L186.571 48.633C186.619 48.567 186.676 48.513 186.742 48.471C186.814 48.423 186.892 48.399 186.976 48.399C187.054 48.399 187.141 48.432 187.237 48.498C187.339 48.558 187.453 48.636 187.579 48.732C187.705 48.828 187.849 48.933 188.011 49.047C188.173 49.161 188.356 49.266 188.56 49.362C188.77 49.458 189.007 49.539 189.271 49.605C189.535 49.665 189.832 49.695 190.162 49.695C190.576 49.695 190.945 49.638 191.269 49.524C191.593 49.41 191.866 49.251 192.088 49.047C192.316 48.837 192.49 48.588 192.61 48.3C192.73 48.012 192.79 47.691 192.79 47.337C192.79 46.947 192.7 46.629 192.52 46.383C192.346 46.131 192.115 45.921 191.827 45.753C191.539 45.585 191.209 45.444 190.837 45.33C190.465 45.21 190.087 45.09 189.703 44.97C189.319 44.844 188.941 44.7 188.569 44.538C188.197 44.376 187.867 44.166 187.579 43.908C187.291 43.65 187.057 43.329 186.877 42.945C186.703 42.555 186.616 42.075 186.616 41.505C186.616 41.049 186.703 40.608 186.877 40.182C187.057 39.756 187.315 39.378 187.651 39.048C187.993 38.718 188.41 38.454 188.902 38.256C189.4 38.058 189.97 37.959 190.612 37.959C191.332 37.959 191.986 38.073 192.574 38.301C193.168 38.529 193.69 38.859 194.14 39.291L193.717 40.119ZM202.564 45.447C202.564 45.075 202.51 44.736 202.402 44.43C202.3 44.118 202.147 43.851 201.943 43.629C201.745 43.401 201.502 43.227 201.214 43.107C200.926 42.981 200.599 42.918 200.233 42.918C199.465 42.918 198.856 43.143 198.406 43.593C197.962 44.037 197.686 44.655 197.578 45.447H202.564ZM203.86 49.722C203.662 49.962 203.425 50.172 203.149 50.352C202.873 50.526 202.576 50.67 202.258 50.784C201.946 50.898 201.622 50.982 201.286 51.036C200.95 51.096 200.617 51.126 200.287 51.126C199.657 51.126 199.075 51.021 198.541 50.811C198.013 50.595 197.554 50.283 197.164 49.875C196.78 49.461 196.48 48.951 196.264 48.345C196.048 47.739 195.94 47.043 195.94 46.257C195.94 45.621 196.036 45.027 196.228 44.475C196.426 43.923 196.708 43.446 197.074 43.044C197.44 42.636 197.887 42.318 198.415 42.09C198.943 41.856 199.537 41.739 200.197 41.739C200.743 41.739 201.247 41.832 201.709 42.018C202.177 42.198 202.579 42.462 202.915 42.81C203.257 43.152 203.524 43.578 203.716 44.088C203.908 44.592 204.004 45.168 204.004 45.816C204.004 46.068 203.977 46.236 203.923 46.32C203.869 46.404 203.767 46.446 203.617 46.446H197.524C197.542 47.022 197.62 47.523 197.758 47.949C197.902 48.375 198.1 48.732 198.352 49.02C198.604 49.302 198.904 49.515 199.252 49.659C199.6 49.797 199.99 49.866 200.422 49.866C200.824 49.866 201.169 49.821 201.457 49.731C201.751 49.635 202.003 49.533 202.213 49.425C202.423 49.317 202.597 49.218 202.735 49.128C202.879 49.032 203.002 48.984 203.104 48.984C203.236 48.984 203.338 49.035 203.41 49.137L203.86 49.722ZM207.493 43.71C207.781 43.086 208.135 42.6 208.555 42.252C208.975 41.898 209.488 41.721 210.094 41.721C210.286 41.721 210.469 41.742 210.643 41.784C210.823 41.826 210.982 41.892 211.12 41.982L211.003 43.179C210.967 43.329 210.877 43.404 210.733 43.404C210.649 43.404 210.526 43.386 210.364 43.35C210.202 43.314 210.019 43.296 209.815 43.296C209.527 43.296 209.269 43.338 209.041 43.422C208.819 43.506 208.618 43.632 208.438 43.8C208.264 43.962 208.105 44.166 207.961 44.412C207.823 44.652 207.697 44.928 207.583 45.24V51H205.972V41.883H206.89C207.064 41.883 207.184 41.916 207.25 41.982C207.316 42.048 207.361 42.162 207.385 42.324L207.493 43.71ZM220.341 41.883L216.624 51H215.184L211.467 41.883H212.772C212.904 41.883 213.012 41.916 213.096 41.982C213.18 42.048 213.237 42.126 213.267 42.216L215.58 48.084C215.652 48.306 215.715 48.522 215.769 48.732C215.823 48.942 215.874 49.152 215.922 49.362C215.97 49.152 216.021 48.942 216.075 48.732C216.129 48.522 216.195 48.306 216.273 48.084L218.613 42.216C218.649 42.12 218.709 42.042 218.793 41.982C218.877 41.916 218.976 41.883 219.09 41.883H220.341ZM223.502 41.883V51H221.9V41.883H223.502ZM223.844 39.021C223.844 39.177 223.811 39.324 223.745 39.462C223.685 39.594 223.601 39.714 223.493 39.822C223.391 39.924 223.268 40.005 223.124 40.065C222.986 40.125 222.839 40.155 222.683 40.155C222.527 40.155 222.38 40.125 222.242 40.065C222.11 40.005 221.993 39.924 221.891 39.822C221.789 39.714 221.708 39.594 221.648 39.462C221.588 39.324 221.558 39.177 221.558 39.021C221.558 38.865 221.588 38.718 221.648 38.58C221.708 38.436 221.789 38.313 221.891 38.211C221.993 38.103 222.11 38.019 222.242 37.959C222.38 37.899 222.527 37.869 222.683 37.869C222.839 37.869 222.986 37.899 223.124 37.959C223.268 38.019 223.391 38.103 223.493 38.211C223.601 38.313 223.685 38.436 223.745 38.58C223.811 38.718 223.844 38.865 223.844 39.021ZM232.479 43.503C232.431 43.569 232.383 43.62 232.335 43.656C232.287 43.692 232.221 43.71 232.137 43.71C232.047 43.71 231.948 43.674 231.84 43.602C231.732 43.524 231.597 43.44 231.435 43.35C231.279 43.26 231.084 43.179 230.85 43.107C230.622 43.029 230.34 42.99 230.004 42.99C229.554 42.99 229.158 43.071 228.816 43.233C228.474 43.389 228.186 43.617 227.952 43.917C227.724 44.217 227.55 44.58 227.43 45.006C227.316 45.432 227.259 45.909 227.259 46.437C227.259 46.989 227.322 47.481 227.448 47.913C227.574 48.339 227.751 48.699 227.979 48.993C228.213 49.281 228.492 49.503 228.816 49.659C229.146 49.809 229.515 49.884 229.923 49.884C230.313 49.884 230.634 49.839 230.886 49.749C231.138 49.653 231.345 49.548 231.507 49.434C231.675 49.32 231.813 49.218 231.921 49.128C232.035 49.032 232.146 48.984 232.254 48.984C232.386 48.984 232.488 49.035 232.56 49.137L233.01 49.722C232.812 49.968 232.587 50.178 232.335 50.352C232.083 50.526 231.81 50.673 231.516 50.793C231.228 50.907 230.925 50.991 230.607 51.045C230.289 51.099 229.965 51.126 229.635 51.126C229.065 51.126 228.534 51.021 228.042 50.811C227.556 50.601 227.133 50.298 226.773 49.902C226.413 49.5 226.131 49.008 225.927 48.426C225.723 47.844 225.621 47.181 225.621 46.437C225.621 45.759 225.714 45.132 225.9 44.556C226.092 43.98 226.368 43.485 226.728 43.071C227.094 42.651 227.541 42.324 228.069 42.09C228.603 41.856 229.215 41.739 229.905 41.739C230.547 41.739 231.111 41.844 231.597 42.054C232.089 42.258 232.524 42.549 232.902 42.927L232.479 43.503ZM240.674 45.447C240.674 45.075 240.62 44.736 240.512 44.43C240.41 44.118 240.257 43.851 240.053 43.629C239.855 43.401 239.612 43.227 239.324 43.107C239.036 42.981 238.709 42.918 238.343 42.918C237.575 42.918 236.966 43.143 236.516 43.593C236.072 44.037 235.796 44.655 235.688 45.447H240.674ZM241.97 49.722C241.772 49.962 241.535 50.172 241.259 50.352C240.983 50.526 240.686 50.67 240.368 50.784C240.056 50.898 239.732 50.982 239.396 51.036C239.06 51.096 238.727 51.126 238.397 51.126C237.767 51.126 237.185 51.021 236.651 50.811C236.123 50.595 235.664 50.283 235.274 49.875C234.89 49.461 234.59 48.951 234.374 48.345C234.158 47.739 234.05 47.043 234.05 46.257C234.05 45.621 234.146 45.027 234.338 44.475C234.536 43.923 234.818 43.446 235.184 43.044C235.55 42.636 235.997 42.318 236.525 42.09C237.053 41.856 237.647 41.739 238.307 41.739C238.853 41.739 239.357 41.832 239.819 42.018C240.287 42.198 240.689 42.462 241.025 42.81C241.367 43.152 241.634 43.578 241.826 44.088C242.018 44.592 242.114 45.168 242.114 45.816C242.114 46.068 242.087 46.236 242.033 46.32C241.979 46.404 241.877 46.446 241.727 46.446H235.634C235.652 47.022 235.73 47.523 235.868 47.949C236.012 48.375 236.21 48.732 236.462 49.02C236.714 49.302 237.014 49.515 237.362 49.659C237.71 49.797 238.1 49.866 238.532 49.866C238.934 49.866 239.279 49.821 239.567 49.731C239.861 49.635 240.113 49.533 240.323 49.425C240.533 49.317 240.707 49.218 240.845 49.128C240.989 49.032 241.112 48.984 241.214 48.984C241.346 48.984 241.448 49.035 241.52 49.137L241.97 49.722ZM249.392 43.386C249.32 43.518 249.209 43.584 249.059 43.584C248.969 43.584 248.867 43.551 248.753 43.485C248.639 43.419 248.498 43.347 248.33 43.269C248.168 43.185 247.973 43.11 247.745 43.044C247.517 42.972 247.247 42.936 246.935 42.936C246.665 42.936 246.422 42.972 246.206 43.044C245.99 43.11 245.804 43.203 245.648 43.323C245.498 43.443 245.381 43.584 245.297 43.746C245.219 43.902 245.18 44.073 245.18 44.259C245.18 44.493 245.246 44.688 245.378 44.844C245.516 45 245.696 45.135 245.918 45.249C246.14 45.363 246.392 45.465 246.674 45.555C246.956 45.639 247.244 45.732 247.538 45.834C247.838 45.93 248.129 46.038 248.411 46.158C248.693 46.278 248.945 46.428 249.167 46.608C249.389 46.788 249.566 47.01 249.698 47.274C249.836 47.532 249.905 47.844 249.905 48.21C249.905 48.63 249.83 49.02 249.68 49.38C249.53 49.734 249.308 50.043 249.014 50.307C248.72 50.565 248.36 50.769 247.934 50.919C247.508 51.069 247.016 51.144 246.458 51.144C245.822 51.144 245.246 51.042 244.73 50.838C244.214 50.628 243.776 50.361 243.416 50.037L243.794 49.425C243.842 49.347 243.899 49.287 243.965 49.245C244.031 49.203 244.115 49.182 244.217 49.182C244.325 49.182 244.439 49.224 244.559 49.308C244.679 49.392 244.823 49.485 244.991 49.587C245.165 49.689 245.375 49.782 245.621 49.866C245.867 49.95 246.173 49.992 246.539 49.992C246.851 49.992 247.124 49.953 247.357 49.875C247.592 49.791 247.787 49.68 247.943 49.542C248.099 49.404 248.213 49.245 248.285 49.065C248.363 48.885 248.402 48.693 248.402 48.489C248.402 48.237 248.333 48.03 248.195 47.868C248.063 47.7 247.886 47.559 247.664 47.445C247.442 47.325 247.187 47.223 246.899 47.139C246.617 47.049 246.326 46.956 246.026 46.86C245.732 46.764 245.441 46.656 245.153 46.536C244.871 46.41 244.619 46.254 244.397 46.068C244.175 45.882 243.995 45.654 243.857 45.384C243.725 45.108 243.659 44.775 243.659 44.385C243.659 44.037 243.731 43.704 243.875 43.386C244.019 43.062 244.229 42.78 244.505 42.54C244.781 42.294 245.12 42.099 245.522 41.955C245.924 41.811 246.383 41.739 246.899 41.739C247.499 41.739 248.036 41.835 248.51 42.027C248.99 42.213 249.404 42.471 249.752 42.801L249.392 43.386Z" fill="#D7D7D7"/>
</svg>
