<svg width="423" height="60" viewBox="0 0 423 60" fill="none" xmlns="http://www.w3.org/2000/svg">
<path d="M422.5 0L362 60L322 60L382.5 -1.74846e-06L422.5 0Z" fill="#FFB600"/>
<path d="M342 0L281.5 60L241.5 60L302 -1.74846e-06L342 0Z" fill="#FFB600"/>
<path d="M261.5 0L201 60L161 60L221.5 -1.74846e-06L261.5 0Z" fill="#FFB600"/>
<path d="M181 -1.52588e-05L120.5 60L80.5 60L141 -1.70072e-05L181 -1.52588e-05Z" fill="#FFB600"/>
<path d="M100.5 -1.52588e-05L40 60L-2.62268e-06 60L60.5 -1.70072e-05L100.5 -1.52588e-05Z" fill="#FFB600"/>
</svg>
