<svg width="146" height="24" viewBox="0 0 146 24" fill="none" xmlns="http://www.w3.org/2000/svg">
<path fill-rule="evenodd" clip-rule="evenodd" d="M29.5925 18.8339H21.9973L3.18235 0H10.7776L29.5925 18.8339ZM32.8168 18.1555L14.6796 0H22.1822L27.9085 5.73202V0H32.8168V18.1555ZM0.00292969 0.628906V18.8322H4.91117V13.1001L10.6374 18.8322H18.1879L0.00292969 0.628906ZM49.0592 16.0028H44.6614V4.80078H41.3042V18.5969H49.0592V16.0028ZM55.0577 18.7533C53.9845 18.7533 53.0159 18.524 52.152 18.0654C51.3012 17.6069 50.6272 16.9518 50.1298 16.1002C49.6456 15.2485 49.4035 14.2528 49.4035 13.1129C49.4035 11.9863 49.6521 10.997 50.1495 10.1454C50.6469 9.28066 51.3274 8.61906 52.1913 8.1605C53.0552 7.70194 54.0237 7.47266 55.097 7.47266C56.1703 7.47266 57.1388 7.70194 58.0027 8.1605C58.8665 8.61906 59.5471 9.28066 60.0445 10.1454C60.5419 10.997 60.7905 11.9863 60.7905 13.1129C60.7905 14.2397 60.5353 15.2354 60.0248 16.1002C59.5275 16.9518 58.8403 17.6069 57.9634 18.0654C57.0995 18.524 56.1309 18.7533 55.0577 18.7533ZM55.0577 15.8447C55.6991 15.8447 56.2423 15.6089 56.6872 15.1372C57.1453 14.6655 57.3744 13.9908 57.3744 13.1129C57.3744 12.2351 57.1519 11.5604 56.7069 11.0888C56.275 10.6171 55.7383 10.3813 55.097 10.3813C54.4425 10.3813 53.8993 10.6171 53.4675 11.0888C53.0355 11.5473 52.8196 12.2221 52.8196 13.1129C52.8196 13.9908 53.029 14.6655 53.4478 15.1372C53.8798 15.6089 54.4164 15.8447 55.0577 15.8447ZM68.1672 7.94432C67.5914 7.62987 66.9172 7.47266 66.145 7.47266C65.242 7.47266 64.4238 7.70194 63.6909 8.1605C62.9579 8.61906 62.3755 9.27419 61.9436 10.1258C61.5248 10.9774 61.3153 11.9666 61.3153 13.0933C61.3153 14.2201 61.5248 15.2158 61.9436 16.0805C62.3755 16.9322 62.9579 17.5937 63.6909 18.0654C64.4238 18.524 65.242 18.7533 66.145 18.7533C66.9172 18.7533 67.5914 18.596 68.1672 18.2817C68.7431 17.9541 69.1946 17.5348 69.5219 17.0238V18.5764C69.5219 19.4543 69.3124 20.0897 68.8937 20.4827C68.4879 20.8889 67.9382 21.092 67.2445 21.092C66.6685 21.092 66.1843 20.9675 65.7916 20.7185C65.399 20.4827 65.1503 20.1552 65.0456 19.7359H61.7276C61.8716 21.0461 62.4475 22.0811 63.4553 22.841C64.4632 23.614 65.7785 24.0006 67.4016 24.0006C68.6188 24.0006 69.6331 23.7582 70.4446 23.2734C71.2692 22.7886 71.8779 22.1335 72.2705 21.3081C72.6762 20.4958 72.8791 19.5853 72.8791 18.5764V7.62987H69.5219V9.18243C69.2077 8.67149 68.7562 8.25877 68.1672 7.94432ZM68.8151 11.128C69.2863 11.6128 69.5219 12.2745 69.5219 13.1129C69.5219 13.9515 69.2863 14.6131 68.8151 15.0979C68.357 15.5827 67.7942 15.825 67.1267 15.825C66.4592 15.825 65.8898 15.5827 65.4186 15.0979C64.9605 14.6 64.7314 13.9319 64.7314 13.0933C64.7314 12.2548 64.9605 11.5997 65.4186 11.128C65.8898 10.6433 66.4592 10.4009 67.1267 10.4009C67.7942 10.4009 68.357 10.6433 68.8151 11.128ZM79.7058 18.7533C78.6325 18.7533 77.664 18.524 76.8001 18.0654C75.9494 17.6069 75.2753 16.9518 74.778 16.1002C74.2937 15.2485 74.0515 14.2528 74.0515 13.1129C74.0515 11.9863 74.3002 10.997 74.7975 10.1454C75.295 9.28066 75.9755 8.61906 76.8394 8.1605C77.7032 7.70194 78.6719 7.47266 79.745 7.47266C80.8183 7.47266 81.7869 7.70194 82.6507 8.1605C83.5146 8.61906 84.1952 9.28066 84.6925 10.1454C85.19 10.997 85.4387 11.9863 85.4387 13.1129C85.4387 14.2397 85.1834 15.2354 84.673 16.1002C84.1756 16.9518 83.4884 17.6069 82.6115 18.0654C81.7476 18.524 80.7791 18.7533 79.7058 18.7533ZM79.7058 15.8447C80.3471 15.8447 80.8903 15.6089 81.3353 15.1372C81.7935 14.6655 82.0225 13.9908 82.0225 13.1129C82.0225 12.2351 81.8 11.5604 81.355 11.0888C80.923 10.6171 80.3865 10.3813 79.745 10.3813C79.0907 10.3813 78.5475 10.6171 78.1155 11.0888C77.6836 11.5473 77.4677 12.2221 77.4677 13.1129C77.4677 13.9908 77.6771 14.6655 78.0959 15.1372C78.5278 15.6089 79.0645 15.8447 79.7058 15.8447ZM86.8662 5.98025C87.2458 6.32089 87.7301 6.49122 88.3191 6.49122C88.895 6.49122 89.3662 6.32089 89.7327 5.98025C90.1122 5.6265 90.302 5.19414 90.302 4.68317C90.302 4.1591 90.1122 3.72674 89.7327 3.38609C89.3662 3.03234 88.895 2.85547 88.3191 2.85547C87.7301 2.85547 87.2458 3.03234 86.8662 3.38609C86.4998 3.72674 86.3165 4.1591 86.3165 4.68317C86.3165 5.19414 86.4998 5.6265 86.8662 5.98025ZM89.9878 18.5972V7.63107H86.6306V18.5972H89.9878ZM95.1885 9.18243C95.5163 8.67149 95.9675 8.25877 96.5432 7.94432C97.1189 7.62987 97.7934 7.47266 98.5657 7.47266C99.4691 7.47266 100.287 7.70194 101.02 8.1605C101.753 8.61906 102.329 9.2742 102.748 10.1258C103.18 10.9774 103.395 11.9666 103.395 13.0933C103.395 14.2201 103.18 15.2158 102.748 16.0805C102.329 16.9322 101.753 17.5937 101.02 18.0654C100.287 18.524 99.4691 18.7533 98.5657 18.7533C97.8067 18.7533 97.1322 18.596 96.5432 18.2817C95.9675 17.9672 95.5163 17.561 95.1885 17.0631V23.8237H91.8315V7.62987H95.1885V9.18243ZM99.9793 13.0933C99.9793 12.2548 99.7437 11.5997 99.2725 11.128C98.8146 10.6433 98.2446 10.4009 97.5644 10.4009C96.8966 10.4009 96.3276 10.6433 95.8564 11.128C95.3985 11.6128 95.1695 12.2745 95.1695 13.1129C95.1695 13.9515 95.3985 14.6131 95.8564 15.0979C96.3276 15.5827 96.8966 15.825 97.5644 15.825C98.2323 15.825 98.8013 15.5827 99.2725 15.0979C99.7437 14.6 99.9793 13.9319 99.9793 13.0933ZM106.473 18.262C107.219 18.5896 108.069 18.7533 109.025 18.7533C109.915 18.7533 110.694 18.6092 111.362 18.3209C112.042 18.0327 112.559 17.6397 112.912 17.1418C113.279 16.6308 113.462 16.0544 113.462 15.4123C113.449 14.6524 113.246 14.0498 112.853 13.6043C112.474 13.1457 112.029 12.8181 111.518 12.6217C111.008 12.412 110.347 12.2024 109.536 11.9927C108.829 11.8355 108.305 11.6784 107.965 11.5211C107.638 11.3639 107.474 11.128 107.474 10.8136C107.474 10.5516 107.579 10.3485 107.788 10.2044C107.998 10.0471 108.299 9.96857 108.691 9.96857C109.149 9.96857 109.516 10.0799 109.79 10.3026C110.078 10.5253 110.248 10.8267 110.302 11.2067H113.403C113.285 10.0799 112.828 9.17587 112.029 8.4946C111.244 7.8133 110.164 7.47266 108.789 7.47266C107.86 7.47266 107.055 7.62332 106.374 7.92466C105.707 8.22601 105.196 8.63871 104.843 9.16275C104.503 9.67378 104.333 10.2437 104.333 10.8725C104.333 11.6194 104.523 12.2155 104.902 12.661C105.282 13.0933 105.733 13.4143 106.257 13.624C106.78 13.8204 107.435 14.0104 108.22 14.1939C108.953 14.3773 109.483 14.5476 109.81 14.7048C110.137 14.849 110.302 15.0782 110.302 15.3927C110.302 15.6547 110.184 15.8709 109.948 16.0412C109.725 16.1984 109.405 16.2771 108.986 16.2771C108.528 16.2771 108.141 16.1592 107.828 15.9233C107.513 15.6875 107.337 15.3796 107.298 14.9996H103.979C104.032 15.7071 104.274 16.3492 104.706 16.9256C105.137 17.489 105.726 17.9345 106.473 18.262ZM125.744 7.62891V18.5951H122.387V17.1015C122.047 17.5863 121.582 17.9793 120.993 18.2807C120.418 18.5689 119.776 18.713 119.07 18.713C118.232 18.713 117.492 18.5296 116.85 18.1628C116.209 17.7828 115.712 17.239 115.359 16.5315C115.006 15.824 114.829 14.9922 114.829 14.0357V7.62891H118.166V13.5836C118.166 14.3174 118.356 14.8873 118.735 15.2934C119.115 15.6997 119.625 15.9027 120.267 15.9027C120.921 15.9027 121.438 15.6997 121.818 15.2934C122.198 14.8873 122.387 14.3174 122.387 13.5836V7.62891H125.744ZM144.785 8.75175C143.987 7.92638 142.907 7.51367 141.546 7.51367C140.775 7.51367 140.061 7.70365 139.407 8.08361C138.752 8.46355 138.235 8.95487 137.855 9.55758C137.489 8.90248 136.979 8.39804 136.324 8.0443C135.683 7.69055 134.949 7.51367 134.125 7.51367C133.431 7.51367 132.81 7.65124 132.26 7.92638C131.71 8.18842 131.265 8.54872 130.925 9.00727V7.63159H127.568V18.5977H130.925V12.643C130.925 11.9355 131.109 11.3918 131.474 11.0118C131.854 10.6188 132.371 10.4223 133.026 10.4223C133.68 10.4223 134.19 10.6188 134.557 11.0118C134.937 11.3918 135.126 11.9355 135.126 12.643V18.5977H138.464V12.643C138.464 11.9355 138.648 11.3918 139.013 11.0118C139.393 10.6188 139.91 10.4223 140.565 10.4223C141.219 10.4223 141.729 10.6188 142.096 11.0118C142.476 11.3918 142.665 11.9355 142.665 12.643V18.5977H146.003V12.191C146.003 10.7236 145.598 9.57717 144.785 8.75175Z" fill="#8C94A2"/>
</svg>
