<svg width="100" height="22" viewBox="0 0 100 22" fill="none" xmlns="http://www.w3.org/2000/svg">
<path d="M0.00341797 22H22.524V3.0873e-08H0.00341797V22ZM18.1893 8.88319H13.4306V4.23446H18.1893V8.88319ZM4.3372 4.23446H9.09857V13.1168H18.1893V17.7655H4.3372V4.23446ZM37.1891 3.0873e-08C34.962 3.0873e-08 32.7849 0.645144 30.9332 1.85384C29.0815 3.06254 27.6382 4.7805 26.7859 6.79049C25.9337 8.80051 25.7107 11.0122 26.1452 13.146C26.5797 15.2797 27.6521 17.2398 29.2268 18.7781C30.8016 20.3166 32.808 21.3642 34.9923 21.7886C37.1766 22.213 39.4406 21.9953 41.4982 21.1627C43.5558 20.3301 45.3143 18.9202 46.5517 17.1113C47.789 15.3023 48.4494 13.1755 48.4494 11C48.4459 8.08364 47.2584 5.28775 45.1474 3.22559C43.0365 1.16343 40.1745 0.0034051 37.1891 3.0873e-08ZM37.1891 17.7655C35.8193 17.7655 34.4803 17.3688 33.3414 16.6253C32.2025 15.8819 31.3148 14.8253 30.7906 13.589C30.2665 12.3528 30.1293 10.9925 30.3965 9.68008C30.6638 8.36771 31.3234 7.16222 32.2919 6.21604C33.2605 5.26987 34.4945 4.62551 35.838 4.36446C37.1814 4.10341 38.5739 4.23739 39.8394 4.74946C41.1049 5.26152 42.1866 6.12868 42.9475 7.2413C43.7086 8.35382 44.1147 9.6619 44.1147 11C44.1119 12.7935 43.3813 14.5128 42.0831 15.781C40.7849 17.0492 39.025 17.7628 37.1891 17.7655ZM88.744 3.0873e-08C86.5166 -0.000162932 84.3397 0.644827 82.4879 1.85342C80.636 3.06201 79.1927 4.77992 78.3402 6.78989C77.4879 8.79982 77.2647 11.0117 77.6991 13.1454C78.1335 15.2793 79.2059 17.2394 80.7806 18.7779C82.3553 20.3163 84.3617 21.3641 86.5464 21.7886C88.73 22.213 90.9943 21.9953 93.0523 21.1628C95.1095 20.3302 96.8681 18.9203 98.1052 17.1114C99.3432 15.3024 100.003 13.1756 100.003 11C99.9999 8.08382 98.8129 5.28802 96.7022 3.22589C94.5915 1.16375 91.7292 0.00363668 88.744 3.0873e-08ZM88.744 17.7655C87.3744 17.7657 86.0354 17.369 84.8961 16.6257C83.7571 15.8824 82.8693 14.8258 82.3449 13.5896C81.8206 12.3534 81.6834 10.993 81.9505 9.68059C82.2176 8.36823 82.8772 7.16265 83.8457 6.21635C84.8142 5.27008 86.0486 4.62564 87.3919 4.36452C88.7352 4.10341 90.1277 4.23733 91.3929 4.74938C92.659 5.26142 93.7407 6.12857 94.5019 7.24121C95.2623 8.35382 95.6688 9.6619 95.6688 11C95.6661 12.7934 94.9356 14.5124 93.6371 15.7806C92.3394 17.0488 90.5799 17.7626 88.744 17.7655ZM62.9661 3.0873e-08C60.739 3.0873e-08 58.5619 0.645144 56.7103 1.85384C54.8585 3.06254 53.4152 4.7805 52.563 6.79049C51.7107 8.80051 51.4878 11.0122 51.9222 13.146C52.3567 15.2797 53.4291 17.2398 55.0039 18.7781C56.5786 20.3166 58.585 21.3642 60.7693 21.7886C62.9536 22.213 65.2177 21.9953 67.2752 21.1627C69.3328 20.3301 71.0913 18.9202 72.3287 17.1113C73.566 15.3023 74.2264 13.1755 74.2264 11C74.2229 8.08364 73.0354 5.28775 70.9244 3.22559C68.8135 1.16343 65.9515 0.0034051 62.9661 3.0873e-08ZM62.9661 17.7655C61.6899 17.7661 60.4384 17.4223 59.3496 16.7719C58.2609 16.1215 57.3772 15.1899 56.7962 14.0799C56.2153 12.9699 55.9596 11.7246 56.0574 10.4816C56.1552 9.23854 56.6026 8.04608 57.3504 7.03579C58.0982 6.02556 59.1172 5.23678 60.2948 4.75655C61.4726 4.27632 62.7632 4.12332 64.0243 4.31443C65.2854 4.50555 66.4679 5.03335 67.4414 5.83958C68.4148 6.6458 69.1412 7.69914 69.5405 8.88319H62.9661V13.1168H69.5405C69.0832 14.4679 68.202 15.6442 67.0219 16.4785C65.8419 17.313 64.4229 17.7632 62.9661 17.7655Z" fill="#8C94A2"/>
</svg>
