<svg width="148" height="26" viewBox="0 0 148 26" fill="none" xmlns="http://www.w3.org/2000/svg">
<path fill-rule="evenodd" clip-rule="evenodd" d="M13.7222 10.4C7.36708 10.4 2.13337 5.84989 1.45096 0H10.2806C10.8258 1.29493 12.1612 2.20998 13.7222 2.20998C15.2832 2.20998 16.6187 1.29493 17.1638 0H25.9934C25.311 5.84989 20.0773 10.4 13.7222 10.4ZM48.2682 22.2557C49.2312 23.2319 50.6196 23.7199 52.4335 23.7199C54.2475 23.7199 55.6359 23.2319 56.5989 22.2557C57.5618 21.2794 58.0433 19.9001 58.0433 18.1174V6.40325C58.0433 4.62065 57.5618 3.24125 56.5989 2.26506C55.6359 1.28887 54.2475 0.800781 52.4335 0.800781C50.6196 0.800781 49.2312 1.28887 48.2682 2.26506C47.3052 3.24125 46.8238 4.62065 46.8238 6.40325V18.1174C46.8238 19.9001 47.3052 21.2794 48.2682 22.2557ZM54.3483 18.3403C54.3483 19.8046 53.71 20.5367 52.4335 20.5367C51.157 20.5367 50.5188 19.8046 50.5188 18.3403V6.18042C50.5188 4.71614 51.157 3.984 52.4335 3.984C53.71 3.984 54.3483 4.71614 54.3483 6.18042V18.3403ZM39.3714 1.11523H35.6763V23.3978H45.4515V20.2145H39.3714V1.11523ZM65.7819 23.7199C63.9904 23.7199 62.6243 23.2425 61.6837 22.2875C60.7431 21.3113 60.2729 19.9213 60.2729 18.1174V6.40325C60.2729 4.59942 60.7431 3.22003 61.6837 2.26506C62.6243 1.28887 63.9904 0.800781 65.7819 0.800781C67.5734 0.800781 68.9395 1.28887 69.88 2.26506C70.8207 3.22003 71.2909 4.59942 71.2909 6.40325V8.31317H67.7974V6.18042C67.7974 4.71614 67.1591 3.984 65.8826 3.984C64.6062 3.984 63.968 4.71614 63.968 6.18042V18.3722C63.968 19.8152 64.6062 20.5367 65.8826 20.5367C67.1591 20.5367 67.7974 19.8152 67.7974 18.3722V14.0111H65.9499V10.8279H71.2909V18.1174C71.2909 19.9213 70.8207 21.3113 69.88 22.2875C68.9395 23.2425 67.5734 23.7199 65.7819 23.7199ZM74.8405 22.2557C75.8035 23.2319 77.1919 23.7199 79.0058 23.7199C80.8198 23.7199 82.2083 23.2319 83.1712 22.2557C84.1342 21.2794 84.6157 19.9001 84.6157 18.1174V6.40325C84.6157 4.62065 84.1342 3.24125 83.1712 2.26506C82.2083 1.28887 80.8198 0.800781 79.0058 0.800781C77.1919 0.800781 75.8035 1.28887 74.8405 2.26506C73.8775 3.24125 73.3961 4.62065 73.3961 6.40325V18.1174C73.3961 19.9001 73.8775 21.2794 74.8405 22.2557ZM80.9206 18.3403C80.9206 19.8046 80.2823 20.5367 79.0058 20.5367C77.7294 20.5367 77.0912 19.8046 77.0912 18.3403V6.18042C77.0912 4.71614 77.7294 3.984 79.0058 3.984C80.2823 3.984 80.9206 4.71614 80.9206 6.18042V18.3403ZM87.1205 1.11523H90.8156V23.3978H87.1205V1.11523ZM99.0246 1.11523H93.5828V23.3978H97.2782V14.3256H99.0246C100.861 14.3256 102.238 13.8587 103.157 12.925C104.075 11.9912 104.534 10.6225 104.534 8.81861V6.6222C104.534 4.81838 104.075 3.44959 103.157 2.51585C102.238 1.5821 100.861 1.11523 99.0246 1.11523ZM100.369 10.6649C100.077 10.9832 99.6296 11.1424 99.0246 11.1424H97.2782V4.29846H99.0246C99.6296 4.29846 100.077 4.45761 100.369 4.77593C100.682 5.09425 100.839 5.6354 100.839 6.39938V9.04143C100.839 9.80543 100.682 10.3465 100.369 10.6649ZM111.476 23.7199C109.685 23.7199 108.33 23.2425 107.411 22.2875C106.494 21.3113 106.034 19.9213 106.034 18.1174V16.8442H109.528V18.3722C109.528 19.8152 110.166 20.5367 111.442 20.5367C112.069 20.5367 112.539 20.3669 112.853 20.0275C113.189 19.6667 113.357 19.0937 113.357 18.3085C113.357 17.3747 113.133 16.5577 112.686 15.8574C112.238 15.1359 111.409 14.2764 110.199 13.279C108.677 12.0057 107.613 10.8598 107.008 9.84112C106.404 8.80126 106.101 7.63409 106.101 6.33958C106.101 4.5782 106.571 3.22003 107.512 2.26506C108.453 1.28887 109.819 0.800781 111.611 0.800781C113.379 0.800781 114.712 1.28887 115.608 2.26506C116.526 3.22003 116.985 4.59942 116.985 6.40325V7.32638H113.491V6.18042C113.491 5.41645 113.335 4.86469 113.021 4.52514C112.708 4.16438 112.249 3.984 111.644 3.984C110.412 3.984 109.797 4.69492 109.797 6.11676C109.797 6.92317 110.021 7.67653 110.468 8.37683C110.938 9.07711 111.778 9.92597 112.988 10.9234C114.533 12.1967 115.596 13.3533 116.179 14.3931C116.761 15.433 117.052 16.6532 117.052 18.0538C117.052 19.8789 116.571 21.2794 115.608 22.2557C114.667 23.2319 113.29 23.7199 111.476 23.7199ZM120.447 22.2836C121.388 23.2386 122.754 23.7161 124.546 23.7161C126.337 23.7161 127.703 23.2386 128.643 22.2836C129.584 21.3075 130.054 19.9174 130.054 18.1136V1.11523H126.494V18.3683C126.494 19.1322 126.325 19.684 125.99 20.0236C125.676 20.3631 125.217 20.5329 124.612 20.5329C124.008 20.5329 123.537 20.3631 123.202 20.0236C122.888 19.684 122.732 19.1322 122.732 18.3683V1.11523H119.036V18.1136C119.036 19.9174 119.506 21.3075 120.447 22.2836ZM132.685 1.11523H137.959L140.311 17.0631H140.377L142.73 1.11523H148.003V23.3978H144.509V6.52671H144.443L141.755 23.3978H138.664L135.977 6.52671H135.91V23.3978H132.685V1.11523ZM8.23447 15.6008C8.23447 19.9085 4.54933 23.4007 0.00341797 23.4007V17.9407C1.36718 17.9407 2.47272 16.8931 2.47272 15.6008C2.47272 14.3084 1.36718 13.2607 0.00341797 13.2607V7.80078C4.54933 7.80078 8.23447 11.2929 8.23447 15.6008ZM27.4402 10.4001C26.0336 9.97782 24.5357 9.75 22.9816 9.75C14.8369 9.75 8.23436 16.0068 8.23436 23.7249C8.23436 24.4996 8.30088 25.2596 8.42877 25.9999H17.5917C17.2647 25.305 17.0828 24.5351 17.0828 23.7249C17.0828 20.6377 19.7238 18.1349 22.9816 18.1349C24.7623 18.1349 26.3585 18.8825 27.4402 20.0646V10.4001Z" fill="#8C94A2"/>
</svg>
