<svg width="124" height="28" viewBox="0 0 124 28" fill="none" xmlns="http://www.w3.org/2000/svg">
<path fill-rule="evenodd" clip-rule="evenodd" d="M120.82 5.36537L123.779 8.30739C123.883 8.38789 123.959 8.49849 123.999 8.62309C124.059 9.34703 123.505 9.38671 122.938 9.42728L122.937 9.42737C122.691 9.44416 122.444 9.46236 122.243 9.53586C121.248 9.80186 120.36 10.3632 119.699 11.1451C119.039 11.9256 118.639 12.8881 118.551 13.9024C118.488 14.0192 118.39 14.1151 118.273 14.1795C118.155 14.2439 118.02 14.2726 117.886 14.2628C117.73 14.2495 117.584 14.1823 117.473 14.0731L116.502 13.1072C116.509 13.1737 116.509 13.2395 116.509 13.2913V13.9283C116.509 13.9364 116.509 13.9445 116.509 13.9526C116.509 13.9844 116.509 14.0151 116.506 14.0458C116.499 14.0892 116.484 14.1333 116.449 14.1781V14.2369C116.449 14.267 116.453 14.295 116.457 14.323C116.464 14.3818 116.471 14.442 116.449 14.5253C116.429 14.6024 116.426 14.6916 116.423 14.7724L116.423 14.7766C116.423 14.8249 116.421 14.8697 116.416 14.9068C116.411 14.9389 116.41 14.9724 116.408 15.0063C116.407 15.0263 116.406 15.0464 116.404 15.0664C116.4 15.1168 116.392 15.1686 116.369 15.2155C116.338 15.2813 116.327 15.3457 116.324 15.4101C116.323 15.4416 116.323 15.4724 116.323 15.5046L116.282 15.7083L114.773 22.8131L114.652 23.3451L114.606 24.1193L113.941 27.475L113.836 28H60.0059L59.7457 27.7466L59.6996 27.9692H53.9394L50.7338 24.7843L51.0401 23.3465H49.2306L48.1068 22.223C46.7121 23.2268 45.0232 23.7525 43.2981 23.721C41.4433 23.7931 39.6352 23.1365 38.2696 21.8955L36.5204 20.156L36.1411 21.9025C36.0943 22.1516 36.0347 22.3882 35.9681 22.6178L35.9085 22.8348L35.8085 23.1498C35.8007 23.1771 35.7894 23.2037 35.7752 23.2282C35.6759 23.518 35.5582 23.8008 35.4228 24.0759C35.4263 24.0864 35.4263 24.0976 35.4228 24.1088C35.4058 24.1445 35.3859 24.1795 35.3632 24.2138C35.2633 24.4091 35.1519 24.6002 35.0307 24.7843C35.008 24.8172 34.9882 24.8529 34.9711 24.8893L34.8974 24.9677C34.735 25.198 34.5578 25.4178 34.3656 25.6243C34.3124 25.6761 34.26 25.7258 34.2068 25.7734C34.1522 25.8224 34.0969 25.8707 34.0395 25.9204L33.8927 26.0575C33.8005 26.1338 33.7062 26.2059 33.6098 26.2766C33.5304 26.3347 33.4495 26.3907 33.3673 26.4453C31.9967 27.2461 30.4156 27.6276 28.8245 27.5415C26.6293 27.5415 24.8737 26.9108 23.7626 25.8077L20.6365 22.7011C19.3879 23.3983 17.9733 23.756 16.5389 23.7385C14.6898 23.7945 12.8931 23.1288 11.5374 21.8864L9.78817 20.1469L9.22307 22.832L9.10962 23.364H3.22317L0.00341797 20.1595L0.169333 19.3846L3.70815 2.60813L3.81451 2.08245H9.72081L9.87396 2.22664V2.08245H49.6681L49.8149 2.22664V2.08245H55.5751L58.7949 5.28697L58.6354 6.05485L58.4623 6.89553H60.1187L60.3789 7.15102C61.1078 6.72963 61.9352 6.50354 62.7804 6.49444C63.4008 6.48184 64.0184 6.59874 64.5906 6.83603C65.1642 7.07332 65.6797 7.42611 66.1058 7.8734L66.02 7.77471L67.5827 9.33077C68.5328 7.56401 70.6685 6.49374 73.5684 6.49374C75.8168 6.49374 77.4731 7.05862 78.4771 8.0834L79.608 9.20617L79.9874 7.40022L80.1001 6.87523H85.8674L87.5167 8.51039L87.7492 7.40722L87.8627 6.88153H99.2102L99.5165 7.18392C100.285 6.73663 101.164 6.50984 102.058 6.52734C102.594 6.50634 103.128 6.60364 103.624 6.81153C104.116 7.01862 104.556 7.3306 104.912 7.72463C104.895 7.70576 104.879 7.68639 104.863 7.66761L104.861 7.66502C104.829 7.62882 104.798 7.59331 104.765 7.55981L105.342 8.1296C105.846 7.61581 106.452 7.20702 107.12 6.93193C107.789 6.65683 108.508 6.51894 109.233 6.52734C109.618 6.50424 110.002 6.53714 110.375 6.62324L109.745 5.99605C109.659 5.90575 109.601 5.79306 109.578 5.67056C109.554 5.54876 109.567 5.42276 109.612 5.30797C109.658 5.19177 109.735 5.09167 109.837 5.01817C109.938 4.94468 110.058 4.90198 110.184 4.89218H110.69C110.825 4.87958 110.961 4.85998 111.095 4.83338C111.801 4.68708 112.466 4.38609 113.041 3.9556C113.616 3.52301 114.087 2.97073 114.42 2.33794C114.45 2.28894 114.475 2.23784 114.5 2.18675V2.15385C114.728 1.66806 114.868 1.14517 114.913 0.611085C114.924 0.444489 115 0.289093 115.123 0.175696C115.247 0.0629984 115.409 0 115.578 0H115.631C115.731 0.00979976 115.829 0.041999 115.915 0.0944976C116.002 0.146296 116.075 0.217695 116.13 0.302392C116.609 0.762281 119.269 3.43481 119.269 3.43481C119.491 3.66911 119.475 3.97357 119.458 4.28176L119.458 4.28529C119.447 4.47639 119.436 4.66818 119.482 4.84738C119.604 4.86768 119.726 4.88378 119.847 4.89498C119.965 4.90548 120.083 4.91108 120.201 4.91248C120.338 4.91528 120.472 4.96078 120.583 5.04127C120.693 5.12247 120.776 5.23517 120.82 5.36537ZM80.6177 7.53881L79.055 14.9257C78.3899 18.1442 79.9058 19.8774 82.4463 19.8774C83.244 19.869 84.0261 19.6541 84.7131 19.2523C85.3981 18.8519 85.9667 18.2779 86.3574 17.5913V17.6053H86.4304L86.0454 19.5029H90.2486L92.7827 7.53881H88.3661L86.9565 14.2229C86.6701 15.6089 85.8058 16.3376 84.7146 16.3376C83.6233 16.3376 83.3837 15.3261 83.6042 14.2691L85.0343 7.53881H80.6177ZM67.7678 11.3474C67.7678 13.5083 69.244 14.302 71.4725 14.8669C71.6952 14.9253 71.9109 14.9773 72.1161 15.0269C73.229 15.2958 74.0381 15.4912 74.0279 16.2081C74.0279 16.9109 73.4153 17.1923 72.6098 17.1923C71.2804 17.1923 70.8344 16.5357 70.8273 15.6166H66.644C66.5709 19.0444 69.6701 19.8907 72.424 19.8907C75.943 19.8907 78.224 18.3871 78.2708 15.3863C78.2708 12.9889 76.2018 12.2602 74.1676 11.794C72.6041 11.4398 71.9185 11.1836 71.9256 10.5991C71.9327 10.0147 72.6304 9.77876 73.316 9.77876C74.1733 9.77876 74.7589 10.0804 74.8185 10.8546H78.8827C78.8352 7.9917 76.2217 7.15172 73.5613 7.15172C70.3281 7.15172 67.8082 8.60278 67.7678 11.3474ZM54.798 2.71313H50.3814L49.7163 6.06815H54.1329L54.798 2.71313ZM48.8116 2.71313H10.4391L9.77399 6.06815H48.1465L48.8116 2.71313ZM4.35338 2.71313L0.815269 19.4896H5.38432L8.91605 2.71313H4.35338ZM7.38594 14.4406C7.33347 18.196 10.3263 19.8382 13.3192 19.8382C17.6699 19.8382 20.5167 16.7457 20.5557 12.6144C20.6024 8.83938 17.6557 7.17132 14.5692 7.17132C10.2661 7.17132 7.45968 10.4087 7.38594 14.4406ZM29.7881 22.6808C31.0388 21.8339 31.8634 20.639 32.2959 18.5509L34.6514 7.52551H30.4475L30.1412 9.02907H30.0681C29.737 8.43059 29.2393 7.9385 28.633 7.61021C28.0268 7.28192 27.339 7.13212 26.6491 7.17832C23.0103 7.17832 20.8421 10.9085 20.7889 14.1907C20.7492 17.0082 22.6913 18.9317 25.1389 18.9317C25.6905 18.9191 26.2336 18.7959 26.7356 18.5705C27.2369 18.3451 27.6879 18.021 28.0587 17.6186H28.1516L27.8992 18.833C27.6397 20.009 27.0611 20.7566 25.804 20.7566C24.873 20.7566 24.2611 20.3821 24.1278 19.7255H19.8977C20.1636 22.5163 22.831 23.6657 25.6111 23.6657C27.071 23.7476 28.5231 23.4053 29.7881 22.6808ZM34.1189 14.4406C34.0586 18.196 37.0522 19.8382 40.045 19.8382C44.395 19.8382 47.2482 16.7457 47.2886 12.6144C47.3347 8.83938 44.3886 7.17132 41.3022 7.17132C37.0188 7.17132 34.2118 10.4087 34.1189 14.4406ZM49.3505 7.52551L46.8426 19.4896H51.2656L53.7997 7.52551H49.3505ZM56.0147 24.1123L57.3449 18.0581V18.0567H57.4193C57.7781 18.6573 58.3 19.1466 58.9246 19.47C59.55 19.7934 60.2541 19.9383 60.9582 19.8893H60.9312C64.9692 19.8893 66.9042 16.0156 66.9644 12.3316C67.0105 9.40356 65.4478 7.15102 62.7868 7.15102C62.0465 7.17552 61.3212 7.36592 60.6653 7.70681C60.0095 8.0491 59.4408 8.53139 59.0019 9.12077L59.3345 7.52551H55.1306L51.5386 24.1123H56.0147ZM57.6314 24.1718H110.084L110.75 20.8161H58.2964L57.6314 24.1718ZM110.889 19.4896L112.472 12.3792C113.137 9.37767 112.12 7.12512 109.2 7.12442C108.387 7.12162 107.588 7.31902 106.873 7.69981C106.158 8.0813 105.553 8.63218 105.109 9.30487H105.036C104.855 8.65808 104.455 8.0925 103.903 7.69981C103.351 7.30922 102.681 7.11462 102.002 7.15102C100.194 7.15102 99.0896 8.0379 98.0445 9.37767H97.9715L98.3572 7.52551H94.1263L91.5922 19.4896H96.0159L97.3461 13.0351C97.6524 11.6295 98.377 10.6453 99.4746 10.6453C100.572 10.6453 100.718 11.5119 100.493 12.5689L99.0294 19.4896H103.452L104.783 13.0351C105.089 11.5378 105.813 10.6453 106.91 10.6453C108.009 10.6453 108.155 11.4657 107.929 12.5689L106.466 19.4896H110.889ZM120.194 5.91135C120.283 5.91135 120.367 5.87635 120.43 5.81406C120.492 5.75246 120.527 5.66916 120.527 5.58236C120.527 5.49556 120.492 5.41226 120.43 5.35067C120.367 5.28907 120.283 5.25407 120.194 5.25407C119.601 5.26387 119.01 5.15187 118.463 4.92228C117.917 4.69268 117.425 4.35109 117.021 3.9206C116.616 3.49011 116.309 2.98053 116.118 2.42544C115.926 1.86965 115.856 1.28027 115.912 0.695783C115.915 0.652384 115.91 0.609685 115.897 0.568386C115.883 0.527087 115.861 0.488588 115.832 0.455689C115.804 0.422089 115.77 0.39549 115.73 0.375891C115.691 0.356291 115.649 0.344391 115.605 0.341591C115.521 0.340891 115.44 0.371691 115.379 0.427689C115.317 0.483688 115.28 0.561386 115.273 0.643984C115.175 1.81295 114.667 2.91123 113.836 3.75051C113.005 4.58909 111.905 5.11617 110.724 5.24077C110.564 5.25057 110.404 5.25057 110.244 5.24077C110.156 5.24077 110.071 5.27507 110.009 5.33667C109.946 5.39827 109.911 5.48156 109.911 5.56906C109.911 5.65656 109.946 5.73986 110.009 5.80146C110.071 5.86305 110.156 5.89735 110.244 5.89735C110.838 5.88615 111.43 5.99885 111.977 6.22705C112.525 6.45664 113.018 6.79823 113.422 7.22802C113.828 7.65921 114.135 8.1688 114.328 8.72458C114.519 9.28037 114.589 9.87115 114.534 10.4549C114.53 10.499 114.535 10.5431 114.549 10.5837C114.562 10.6243 114.584 10.6628 114.612 10.6957C114.642 10.7286 114.676 10.7559 114.715 10.7748C114.754 10.7958 114.796 10.8063 114.84 10.8105C114.925 10.8105 115.005 10.779 115.066 10.723C115.128 10.6677 115.166 10.59 115.173 10.5081C115.288 9.26497 115.866 8.1086 116.792 7.26092C117.72 6.41184 118.931 5.93165 120.194 5.91135ZM14.4571 10.1523C12.5285 10.1523 11.8698 13.1077 11.8698 14.6301C11.8698 15.8474 12.2144 16.9002 13.4609 16.9079C15.398 16.8932 16.1064 14.1142 16.1064 12.477C16.1071 11.3017 15.7412 10.1523 14.4571 10.1523ZM41.2021 10.1523C39.2799 10.1523 38.6148 13.1077 38.6148 14.6301C38.6148 15.8474 38.9594 16.9002 40.2123 16.9079C42.1494 16.8932 42.8584 14.1142 42.8584 12.477C42.8584 11.3017 42.4862 10.1523 41.2021 10.1523ZM59.813 16.8032C61.6423 16.8032 62.3939 14.4128 62.4138 12.8175C62.4138 11.7339 62.0947 10.5391 60.7844 10.5391C59.0749 10.5391 58.0241 12.6992 57.9972 14.3603C57.9972 15.5159 58.4098 16.8032 59.813 16.8032ZM25.1469 13.7442C25.1731 12.1475 26.031 10.2891 27.7207 10.2891C28.958 10.2891 29.377 11.3733 29.377 12.4303C29.3508 14.0137 28.4531 15.8518 26.8365 15.8518H26.8032C25.5659 15.8518 25.1469 14.82 25.1469 13.7442Z" fill="#8C94A2"/>
</svg>
