<svg width="51" height="32" viewBox="0 0 51 32" fill="none" xmlns="http://www.w3.org/2000/svg">
<path fill-rule="evenodd" clip-rule="evenodd" d="M32.4196 0.0347219C32.3459 -0.0336896 32.2017 0.00319975 32.0628 0.108469C31.2641 0.71539 32.8179 2.43898 33.7235 3.44355C33.9552 3.70059 34.1445 3.91056 34.2411 4.0427C34.2611 4.07396 34.3038 4.06291 34.3533 4.02663C34.3997 3.99376 34.4289 3.95129 34.4334 3.91108C34.4441 3.86403 34.4432 3.81893 34.4299 3.78751C34.0747 2.43861 33.5012 0.965166 32.4196 0.0347219ZM37.9287 0.872062C38.0499 0.939664 38.1176 1.00415 38.1511 1.0762C38.2009 1.17071 38.1746 1.23611 38.0909 1.26947C37.4711 1.56177 36.6824 2.65051 36.1982 3.31881L36.1982 3.31886L36.1977 3.31952C36.0948 3.46155 36.0057 3.58456 35.9349 3.67684C35.8371 3.79794 35.6113 3.72757 35.5772 3.52842C35.5842 3.30324 36.471 1.64677 36.9659 1.1956C36.9801 1.18271 36.995 1.16891 37.0106 1.15448C37.2081 0.971772 37.5144 0.68834 37.9287 0.872062ZM28.2845 4.48994C28.2539 4.38382 28.2665 4.25615 28.3328 4.07893C28.6027 3.5238 29.1859 3.56219 29.562 3.58695L29.562 3.58695C29.5917 3.58891 29.6202 3.59078 29.6471 3.59227C30.5833 3.64714 33.0369 4.65349 33.2503 4.88854C33.3966 5.13126 33.2222 5.40197 33.0079 5.35698C32.8483 5.31937 32.6411 5.26466 32.4018 5.20148L32.4018 5.20146C31.2782 4.9048 29.4478 4.4215 28.5249 4.64479C28.4059 4.68149 28.3182 4.63424 28.2845 4.48994ZM47.6944 3.98046V3.98041C47.6306 3.97552 47.5667 3.96802 47.5042 3.96069C47.449 3.95422 47.395 3.94788 47.343 3.94356C47.2967 3.94356 47.2505 3.93435 47.2136 3.90672C47.1488 3.87908 47.1211 3.84223 47.1118 3.77775C47.1118 3.71326 47.1488 3.6672 47.2136 3.63957C47.241 3.61907 47.2786 3.61378 47.3151 3.60865C47.3277 3.60686 47.3403 3.6051 47.3522 3.60272L47.3524 3.6027C47.4356 3.5935 47.5188 3.5843 47.6019 3.5843C47.8332 3.5843 48.0643 3.5843 48.2956 3.57508C48.3603 3.57508 48.4342 3.5843 48.4897 3.61194C48.6377 3.68563 48.6377 3.84223 48.499 3.91592C48.4528 3.94356 48.3973 3.95278 48.3325 3.96198C48.2569 3.96198 48.1737 3.96959 48.0828 3.97789L48.0551 3.98041V4.0541C48.0643 4.41337 48.0828 4.78184 48.1753 5.1319C48.1938 5.2148 48.1938 5.29772 48.1568 5.38062C48.0828 5.54644 47.8979 5.57407 47.7777 5.43589C47.7037 5.36228 47.6852 5.27028 47.6667 5.17826L47.6666 5.17796C47.6389 4.80948 47.6389 4.45022 47.6852 4.09096C47.6944 4.06333 47.6944 4.0173 47.6944 3.98046ZM50.2468 4.42258C50.2468 4.42258 50.2376 4.41337 50.2376 4.40416C50.2284 4.41333 50.2215 4.42251 50.2146 4.43168C50.2076 4.44093 50.2006 4.45018 50.1913 4.45943C50.1497 4.524 50.1034 4.58857 50.0571 4.65313L50.057 4.65326C50.0108 4.71762 49.9647 4.78197 49.9231 4.84633L49.8769 4.89239C49.7937 4.9753 49.7105 4.98451 49.6087 4.91082C49.507 4.8187 49.4237 4.70815 49.3405 4.59761C49.322 4.56997 49.3035 4.54234 49.2851 4.50549C49.2657 4.57603 49.2554 4.63318 49.2446 4.69247L49.2446 4.69255C49.2399 4.71841 49.2352 4.74467 49.2296 4.77264L49.2289 4.77658L49.2289 4.77671C49.2013 4.93195 49.1738 5.08728 49.1371 5.25166C49.1279 5.29772 49.1185 5.34378 49.0908 5.39904C49.0631 5.47274 48.9984 5.50038 48.9059 5.49116C48.8319 5.48195 48.7764 5.43589 48.7579 5.3622C48.7394 5.32535 48.7302 5.27929 48.7394 5.24244C48.7394 5.07662 48.7486 4.91082 48.7672 4.745C48.7857 4.59727 48.8065 4.44954 48.8274 4.30181L48.8275 4.3011C48.8482 4.15429 48.869 4.00747 48.8874 3.86066C48.8902 3.84928 48.8922 3.83879 48.8941 3.82863C48.8984 3.80587 48.9023 3.7848 48.9152 3.75932C48.9613 3.67642 49.0354 3.62114 49.1279 3.61194C49.2296 3.61194 49.2943 3.658 49.3498 3.7409C49.359 3.75932 49.3683 3.77775 49.3868 3.79618C49.4588 3.92854 49.5274 4.06421 49.5967 4.20121L49.5968 4.20123L49.5968 4.20129L49.5968 4.20138L49.5968 4.20141C49.6433 4.29316 49.69 4.38551 49.7382 4.47786C49.7382 4.47786 49.7475 4.48706 49.7567 4.50549C49.7752 4.47786 49.7844 4.45022 49.7937 4.41337C49.846 4.31564 49.8891 4.2133 49.9327 4.10962L49.9327 4.10956L49.9328 4.10951C49.9508 4.06663 49.9689 4.02352 49.9879 3.98041C50.0249 3.8975 50.0711 3.82381 50.1266 3.75012C50.1729 3.6672 50.2561 3.61194 50.3671 3.63036C50.478 3.63957 50.5428 3.70406 50.5705 3.79618C50.6168 3.94356 50.663 4.10016 50.7 4.26598C50.7284 4.40284 50.7495 4.54212 50.7709 4.68258L50.7709 4.68294L50.7709 4.68304C50.7912 4.8166 50.8117 4.95122 50.8387 5.08584C50.8572 5.17796 50.8479 5.26086 50.8109 5.34378C50.7277 5.50958 50.5428 5.52801 50.4226 5.37141C50.3671 5.30692 50.3578 5.23323 50.3485 5.15032C50.3244 4.94171 50.2932 4.7331 50.2611 4.5184L50.2611 4.51811L50.2468 4.42258ZM8.39932 16.3461C8.66913 16.1522 8.96245 15.9908 9.27283 15.8656C9.59758 15.776 9.94371 15.7908 10.2589 15.9079C10.5741 16.0251 10.8413 16.2381 11.0198 16.5147C11.1796 16.7907 11.2421 17.1093 11.198 17.4225C11.1539 17.7357 11.0056 18.0266 10.7752 18.2515C10.5967 18.4337 10.394 18.5924 10.1726 18.7236C9.64338 19.0536 9.11167 19.3738 8.57879 19.6948L8.5787 19.6948C8.11767 19.9725 7.65576 20.2507 7.19387 20.5362C6.99011 20.6902 6.77395 20.8284 6.54746 20.9493C6.20296 21.1151 5.80925 21.1595 5.43441 21.0749C5.05957 20.9903 4.72718 20.7818 4.4947 20.4857C4.32092 20.2759 4.17425 20.0466 4.05794 19.8027C3.77421 19.2272 3.48733 18.6523 3.20013 18.0769L3.19992 18.0765L3.19982 18.0763L3.1998 18.0763C2.53217 16.7386 1.86289 15.3976 1.22776 14.036C0.819195 13.2146 0.485281 12.273 0.161358 11.3595L0.135864 11.2876C-0.00774675 11.0157 -0.0357907 10.7005 0.0577036 10.409C0.151198 10.1174 0.358854 9.87254 0.6365 9.72647C0.914148 9.5804 1.23987 9.54467 1.54442 9.62682C1.84896 9.70897 2.10828 9.90255 2.26724 10.1663C2.75582 10.793 3.18832 11.4587 3.56004 12.156C4.07525 13.0769 4.57743 13.9977 5.07513 14.9103L5.07514 14.9103C5.48877 15.6688 5.89929 16.4215 6.31161 17.1639C6.36451 17.2543 6.42284 17.3415 6.48632 17.4252C7.17008 17.1478 7.8132 16.785 8.39932 16.3461ZM10.4979 14.4122C12.2954 17.5447 15.8732 18.1594 18.0077 15.7259C19.7879 13.7554 20.004 10.3198 18.483 7.62517C18.0661 6.80191 17.3928 6.12814 16.5593 5.70014C15.7259 5.27214 14.7749 5.11183 13.8423 5.2421C13.0817 5.387 12.3711 5.71726 11.7769 6.20207C8.99418 8.51774 9.21885 12.1892 10.4979 14.4122ZM15.8558 8.45036C16.4618 8.82283 16.9167 9.38815 17.1435 10.0503L17.1176 10.0588C17.3887 10.8413 17.4029 11.6867 17.1582 12.4775C16.9135 13.2682 16.4221 13.9651 15.7522 14.4712C15.523 14.6229 15.2627 14.724 14.9893 14.7675C14.7158 14.8109 14.436 14.7956 14.1693 14.7226C13.9026 14.6496 13.6554 14.5207 13.4452 14.3449C13.2349 14.1691 13.0667 13.9507 12.9522 13.7049C12.0534 12.1976 12.3127 9.66297 13.5485 8.59351C13.8576 8.31493 14.2558 8.14859 14.6761 8.12252C15.0963 8.09645 15.513 8.21223 15.8558 8.45036ZM26.716 11.0948C26.4969 11.1412 26.2706 11.144 26.0503 11.1029C25.8301 11.0619 25.6204 10.978 25.4337 10.856C25.2703 10.764 25.1296 10.6375 25.0217 10.4855C24.914 10.3335 24.8417 10.16 24.8103 9.97723C24.7787 9.79453 24.7888 9.60723 24.8396 9.42879C24.8905 9.25034 24.981 9.08521 25.1044 8.94524C25.3195 8.664 25.6249 8.46265 25.9709 8.37375C26.8744 8.11563 27.8044 7.95825 28.7436 7.90462C28.95 7.88099 29.1591 7.89819 29.3585 7.95518C29.5581 8.01225 29.744 8.10787 29.9054 8.23664C30.0668 8.36534 30.2005 8.52455 30.2986 8.70482C30.3967 8.8851 30.4572 9.08286 30.4766 9.28648C30.7474 10.2866 30.777 11.3353 30.5632 12.3488C29.7834 15.6243 27.0973 16.7502 24.0819 15.701C23.2355 15.4205 22.4934 14.8978 21.9504 14.1998C21.2262 13.3591 20.7128 12.3628 20.4514 11.291C20.2396 10.3366 20.2628 9.34626 20.5191 8.40251C20.7753 7.45876 21.2572 6.58902 21.9244 5.86593C22.5576 5.08002 23.3795 4.46151 24.3159 4.0661C24.9076 3.74501 25.6001 3.65372 26.2568 3.8102C26.4058 3.85079 26.541 3.92988 26.6485 4.03927C26.756 4.14866 26.8318 4.28436 26.868 4.43231C26.9043 4.58024 26.8997 4.73504 26.8547 4.88064C26.8096 5.02623 26.7259 5.15731 26.6121 5.2603C26.3957 5.45313 26.1606 5.62455 25.9102 5.7721C25.1399 6.25504 24.4695 6.87734 23.9346 7.60604C23.584 8.07759 23.3426 8.61907 23.2273 9.19232C23.112 9.76556 23.1257 10.3567 23.2675 10.9243C23.464 11.6981 23.9001 12.3926 24.5152 12.9117C26.4214 14.6178 28.8996 12.9714 28.4663 10.6427C28.1428 10.7213 27.8396 10.8021 27.5452 10.8805L27.5451 10.8806L27.545 10.8806C27.2641 10.9554 26.9911 11.0282 26.716 11.0948ZM31.6448 12.3406C32.3485 15.9058 35.563 17.6035 38.3866 15.9058C40.7236 14.5561 42.0268 11.322 41.4534 8.29161C41.3179 7.377 40.892 6.52706 40.2358 5.86155C39.5796 5.19603 38.7262 4.74852 37.7958 4.58212C37.0215 4.48871 36.2355 4.58798 35.5109 4.87073C32.1053 6.22889 31.1322 9.79409 31.6448 12.3406ZM38.6473 8.26613C39.1122 8.8055 39.3675 9.48786 39.3683 10.193C39.3728 11.0294 39.1098 11.8463 38.616 12.5296C38.1223 13.213 37.4225 13.7285 36.6143 14.0044C36.3466 14.0789 36.0654 14.0953 35.7904 14.0527C35.5155 14.0099 35.2535 13.909 35.0226 13.7571C34.7917 13.605 34.5976 13.4056 34.4539 13.1727C34.3101 12.9398 34.2202 12.679 34.1904 12.4086C33.7994 10.6853 34.8767 8.34251 36.4057 7.69743C36.789 7.52407 37.2219 7.48606 37.6307 7.58974C38.0395 7.69349 38.3987 7.93252 38.6473 8.26613ZM44.3203 16.5261C44.2777 16.8344 44.1106 17.1137 43.8557 17.3025C43.6008 17.4913 43.279 17.5742 42.9612 17.5328C42.6434 17.4915 42.3555 17.3293 42.1609 17.0821C41.9662 16.8349 41.8809 16.5227 41.9235 16.2144C41.9661 15.906 42.1332 15.6268 42.388 15.4379C42.6429 15.2491 42.9647 15.1663 43.2825 15.2076C43.6003 15.249 43.8882 15.4111 44.0829 15.6583C44.2775 15.9056 44.3629 16.2178 44.3203 16.5261ZM43.5647 5.16136C43.7299 4.91665 43.9722 4.7303 44.2555 4.6301C44.5387 4.52989 44.8478 4.52121 45.1366 4.60534C45.4302 4.6766 45.6895 4.84352 45.8714 5.07817C46.0532 5.31283 46.1463 5.60095 46.1353 5.89429C46.097 6.36483 46.0245 6.83215 45.9182 7.29275C45.8524 7.6504 45.7871 8.00804 45.7219 8.36548C45.5027 9.5657 45.284 10.7636 45.0498 11.9516C44.9108 12.5666 44.7285 13.1563 44.5287 13.7797C44.4592 13.9745 44.3431 14.1506 44.19 14.2936C44.0949 14.4011 43.9733 14.4835 43.8365 14.5333C43.6998 14.5832 43.5523 14.5987 43.4077 14.5786C43.2632 14.5584 43.1261 14.5032 43.0093 14.4181C42.8926 14.3329 42.7999 14.2205 42.7398 14.0914C42.6365 13.8597 42.5805 13.6108 42.5748 13.3584C42.5748 12.3138 42.5748 11.2607 42.6443 10.2076C42.7623 8.70478 42.9945 7.21238 43.339 5.74265C43.3795 5.54574 43.4559 5.35744 43.5647 5.18663V5.16136ZM4.57539 24.1334C4.5258 23.8948 4.55363 23.6469 4.65511 23.4246C4.75794 23.1993 4.93109 23.012 5.14952 22.8895C5.38042 22.7579 5.65146 22.7112 5.91427 22.7576C6.17159 22.803 6.4046 22.9348 6.57352 23.1303C6.83373 23.3492 7.0532 23.611 7.22208 23.9038L7.2264 23.9117C7.80329 25.0356 8.35412 26.1591 8.89601 27.2904L8.89752 27.2936C9.22692 28.0167 9.51257 28.756 9.76333 29.4942C9.92133 29.9388 9.95405 30.4169 9.85819 30.8781C9.8411 31.1149 9.75324 31.3415 9.60548 31.5295C9.45476 31.7213 9.24876 31.8641 9.01422 31.9395C8.77967 32.0147 8.52754 32.019 8.29047 31.9517C8.05794 31.8857 7.85057 31.7537 7.69423 31.5726C7.32606 31.2431 7.04829 30.8274 6.88687 30.3646C6.84183 30.2345 6.79783 30.1046 6.75399 29.9752L6.75352 29.9737L6.75348 29.9736C6.64513 29.6538 6.53752 29.3361 6.41635 29.021C5.98759 27.91 5.66614 27.1423 5.40996 26.5417C5.36961 26.447 5.33077 26.3563 5.29334 26.2689L5.29263 26.2673L5.29241 26.2668L5.27285 26.2211C5.08288 25.7777 4.92881 25.418 4.79112 25.0542C4.68084 24.7571 4.60838 24.4478 4.57539 24.1334ZM13.0355 20.656C12.1729 20.4404 11.272 20.409 10.3956 20.564C9.71681 20.6285 9.04922 20.7796 8.58564 21.0789C8.34986 21.2312 8.15923 21.4268 8.0532 21.6754C7.94658 21.9254 7.93297 22.2113 8.02034 22.5298C8.17966 23.1125 8.38648 23.6791 8.59264 24.2438L8.59347 24.2461L8.62691 24.3377L8.62771 24.3397C9.24928 25.9825 9.87678 27.6197 10.51 29.2513C10.5838 29.5084 10.6882 29.7565 10.8211 29.9904L10.8236 29.9947C10.9992 30.2854 11.2243 30.5453 11.4896 30.7637C11.6223 30.8837 11.7863 30.9668 11.9642 31.0039C12.1439 31.0413 12.3307 31.0305 12.5044 30.9724C12.6781 30.9144 12.8319 30.8115 12.9491 30.6749C13.0645 30.5404 13.14 30.3785 13.1677 30.2062C13.2822 29.738 13.2455 29.2472 13.0626 28.7996C13.0057 28.6497 12.9611 28.4965 12.9141 28.3353L12.9135 28.3331C12.8978 28.2791 12.8818 28.2241 12.865 28.1681C14.3144 27.6214 15.8566 26.8861 16.3989 25.1757C16.6113 24.5847 16.629 23.9447 16.4496 23.3434C16.27 22.7415 15.9016 22.2081 15.395 21.8164C14.7056 21.2682 13.9003 20.8721 13.0355 20.656ZM10.6444 22.7539C10.673 22.7459 10.7017 22.7386 10.7305 22.7317C11.6742 22.5886 12.6396 22.7793 13.4491 23.2687C13.8058 23.5082 13.952 23.7742 13.9771 24.0302C14.003 24.2938 13.9037 24.5793 13.7042 24.8539C13.3272 25.3725 12.6394 25.7876 12.018 25.865C11.5651 24.8582 11.1051 23.8108 10.6444 22.7539ZM22.0287 18.5535C21.0357 18.229 19.7667 18.3088 18.7423 18.7703C17.7124 19.2344 16.9 20.1014 16.8984 21.3598C16.8778 21.8761 17.029 22.3852 17.3295 22.8108C17.6288 23.2348 18.0602 23.5533 18.5596 23.7191C18.7889 23.8206 19.0271 23.8963 19.2715 23.974L19.272 23.9741L19.2828 23.9776L19.2834 23.9778C19.3691 24.005 19.4557 24.0326 19.5429 24.0616C19.6751 24.1056 19.8099 24.1456 19.941 24.1844L19.9609 24.1903C20.0033 24.2028 20.0452 24.2152 20.0866 24.2277C20.2638 24.2812 20.4342 24.3361 20.5986 24.4041C21.2273 24.6777 21.5134 25.0049 21.6086 25.2969C21.7031 25.5869 21.6234 25.8856 21.425 26.137C21.2252 26.39 20.9145 26.5807 20.5841 26.642C20.2585 26.7024 19.919 26.6372 19.6383 26.3868L19.6353 26.3843C19.4767 26.2484 19.2999 26.1342 19.1099 26.0446C18.9196 25.9423 18.7028 25.8963 18.4862 25.9126C18.2688 25.9289 18.0611 26.0071 17.8888 26.1374C17.7257 26.2524 17.5993 26.4102 17.5246 26.5925C17.4494 26.7759 17.4295 26.9764 17.4673 27.1705C17.5084 27.3855 17.6011 27.5881 17.7388 27.7606L17.7502 27.7725C18.1867 28.2304 18.7383 28.5687 19.3503 28.7542C19.9607 28.939 20.61 28.9653 21.234 28.8304C22.9487 28.5445 24.0889 27.3323 24.3238 26.0004C24.5613 24.6535 23.8677 23.2215 22.0049 22.5301L22.0034 22.5295C21.6001 22.3836 21.1831 22.2783 20.7818 22.1769L20.7817 22.1768L20.7802 22.1765L20.7672 22.1732L20.7671 22.1732L20.7671 22.1732C20.6263 22.1376 20.4875 22.1025 20.3519 22.0662C19.8438 21.9281 19.5927 21.7342 19.4903 21.5614C19.3947 21.4 19.4089 21.2227 19.5237 21.047C19.7644 20.6785 20.4233 20.3786 21.1218 20.5596L21.1275 20.5608C21.2176 20.5813 21.3048 20.6129 21.3868 20.6547L21.3982 20.6606L21.4104 20.6649C21.5708 20.7215 21.7426 20.7396 21.9116 20.7176C22.0806 20.6956 22.2416 20.6343 22.3812 20.5388C22.5207 20.4433 22.6346 20.3164 22.7133 20.1689C22.7905 20.024 22.8316 19.8634 22.8331 19.7002C22.8556 19.4487 22.7883 19.1971 22.6425 18.9884C22.4957 18.7783 22.2788 18.6246 22.0287 18.5535ZM31.6654 18.6491C31.4675 18.5543 31.2487 18.5094 31.0287 18.5182C30.8087 18.5271 30.5944 18.5895 30.4051 18.6999C30.2171 18.8095 30.0596 18.963 29.9468 19.1467C29.8433 19.3015 29.7717 19.4745 29.736 19.6562C29.7004 19.8378 29.7012 20.0244 29.7385 20.2055C29.7754 20.4383 29.8162 20.6646 29.8566 20.8879C29.9234 21.2573 29.9884 21.6185 30.0313 21.9867L30.0329 21.996C30.1305 22.5735 30.1816 23.1575 30.1862 23.7428L30.1866 23.7511C30.22 24.3832 30.0003 25.0029 29.5747 25.4788L29.5679 25.4873C29.4294 25.6613 29.2443 25.7941 29.0331 25.8708C28.822 25.9476 28.5933 25.9652 28.3725 25.9218C28.1517 25.8783 27.9477 25.7756 27.7831 25.6249C27.6185 25.4743 27.4998 25.2811 27.4405 25.0682C27.3141 24.6195 27.2409 24.1579 27.2222 23.6927L27.4383 20.3209C27.4415 20.2768 27.4451 20.2316 27.4488 20.186L27.4492 20.1816C27.4573 20.0806 27.4655 19.9779 27.469 19.882C27.4741 19.7389 27.4697 19.5916 27.4357 19.4523C27.4009 19.3099 27.3346 19.1744 27.2172 19.059C27.1008 18.9448 26.9438 18.8605 26.7462 18.8032C26.3889 18.7018 26.0868 18.705 25.8351 18.8097C25.5832 18.9145 25.4106 19.1089 25.2885 19.3336C25.1673 19.5563 25.0894 19.82 25.0306 20.0841C24.9869 20.2801 24.9518 20.4859 24.9184 20.6817L24.9135 20.7105C24.9036 20.7681 24.8939 20.8246 24.8842 20.8798L24.8839 20.8817C24.7053 21.9557 24.6522 23.0462 24.7255 24.1321C24.7391 24.7189 24.8639 25.2981 25.0937 25.8401C25.3528 26.5395 25.8222 27.1455 26.4399 27.5781C27.0589 28.0115 27.7976 28.2504 28.5581 28.263C29.3186 28.2756 30.0651 28.0614 30.6987 27.6488C31.3313 27.2368 31.8216 26.6462 32.1047 25.9554C32.5006 25.0753 32.6866 24.1182 32.6482 23.1569C32.625 22.4562 32.5861 21.75 32.5474 21.0474L32.5472 21.0445C32.5282 20.6994 32.5092 20.355 32.4922 20.0128C32.4836 19.6696 32.3682 19.3371 32.1613 19.0601C32.0333 18.8849 31.8629 18.7437 31.6654 18.6491ZM38.7114 23.9308C38.72 23.9202 38.7285 23.9098 38.7368 23.8995C38.9224 23.6704 39.1089 23.4379 39.2959 23.2047L39.3276 23.1651C39.6527 22.7597 39.9799 22.3517 40.3094 21.9515L40.3114 21.9491C40.6132 21.5948 40.9386 21.2602 41.2854 20.9476C41.4793 20.735 41.7379 20.5882 42.0235 20.5286C42.311 20.4687 42.6106 20.5004 42.8783 20.619C43.1356 20.7213 43.3533 20.9001 43.5003 21.1301C43.6468 21.3592 43.7155 21.6274 43.697 21.8966C43.6999 22.7483 43.659 23.5996 43.5746 24.4474L43.5743 24.4498C43.4867 25.2225 43.3831 26.0103 43.2794 26.7984L43.2787 26.8038C43.1885 27.489 43.0984 28.1745 43.0186 28.8507C42.9656 29.3296 42.7726 29.7835 42.4626 30.1585C42.3294 30.357 42.1388 30.5128 41.9146 30.6059C41.6873 30.7005 41.4359 30.7262 41.1933 30.6798C40.9507 30.6334 40.7281 30.5169 40.5542 30.3455C40.3818 30.1755 40.2653 29.9594 40.2196 29.7245C40.114 29.3073 40.1138 28.8713 40.2191 28.4539C40.38 27.5122 40.5315 26.5707 40.6841 25.6213L40.7953 24.9306L38.9151 26.4743L38.6729 26.6511C38.5505 26.7417 38.4089 26.8056 38.2588 26.8377C38.1085 26.8699 37.9529 26.8697 37.8026 26.8373C37.6524 26.8048 37.5113 26.741 37.3889 26.6499C37.2681 26.56 37.1685 26.4457 37.097 26.315C36.7192 25.6978 36.4435 25.0265 36.2802 24.3257C36.2689 24.2907 36.258 24.2558 36.2473 24.22C36.0915 24.5103 35.9545 24.7768 35.8135 25.0744C35.4493 25.8439 35.0833 26.6167 34.7004 27.3802C34.5707 27.6365 34.4116 27.8783 34.2267 28.1001C34.0818 28.2801 33.8797 28.4082 33.6521 28.4641C33.424 28.5202 33.1832 28.5006 32.9679 28.4086C32.7646 28.3229 32.5941 28.1773 32.4802 27.9921C32.3685 27.8107 32.3167 27.6004 32.3317 27.3895C32.3193 27.1539 32.3554 26.9183 32.4378 26.6965C32.4837 26.5566 32.5293 26.4163 32.5749 26.276C32.8032 25.5731 33.0322 24.8679 33.3097 24.1987L33.3111 24.1954C33.7623 23.1651 34.227 22.1428 34.6886 21.1274L34.691 21.122L34.6942 21.115C34.8795 20.7075 35.0642 20.3011 35.2473 19.8958C35.328 19.7076 35.4357 19.5315 35.567 19.3728C35.725 19.1659 35.9421 19.009 36.1911 18.9216C36.4407 18.8341 36.7114 18.8204 36.9689 18.8824C37.2269 18.9393 37.4614 19.0704 37.642 19.2587C37.823 19.4476 37.9416 19.6854 37.982 19.9408L37.9843 19.955V19.9693C37.9843 20.093 37.988 20.151 38.0254 20.2101L38.0452 20.2416L38.0513 20.2779C38.1055 20.604 38.1595 20.931 38.2131 21.2567C38.3628 22.1643 38.5122 23.0705 38.6734 23.977C38.6864 23.9613 38.6991 23.9459 38.7114 23.9308Z" fill="#8C94A2"/>
</svg>
