<svg width="140" height="28" viewBox="0 0 140 28" fill="none" xmlns="http://www.w3.org/2000/svg">
<path fill-rule="evenodd" clip-rule="evenodd" d="M7.34856 14.295C7.16211 14.8266 6.86261 15.3099 6.47141 15.7102H6.47346C6.02339 16.1699 5.46655 16.5066 4.85453 16.6891C4.2425 16.8715 3.59511 16.8938 2.97235 16.7541C2.34958 16.6142 1.77158 16.3167 1.29192 15.889C0.81225 15.4614 0.446429 14.9176 0.228369 14.3078C0.0103094 13.6981 -0.0529504 13.0422 0.0444526 12.401C0.141866 11.7598 0.396783 11.1539 0.7856 10.6397C1.17442 10.1253 1.68455 9.71917 2.26872 9.45885C2.85289 9.19854 3.49221 9.09238 4.12742 9.15034L4.10884 9.13144C4.75893 9.1873 5.41316 9.09805 6.02588 8.87008C6.6386 8.64217 7.19505 8.28091 7.65636 7.81157C8.11769 7.34222 8.47272 6.77612 8.6968 6.15275C8.92088 5.52938 9.00861 4.86377 8.9537 4.20238L8.97228 4.22128C8.89941 3.43034 9.06816 2.63579 9.45552 1.94599C9.84278 1.2562 10.4298 0.704728 11.1365 0.366792C11.8431 0.0288566 12.635 -0.0791123 13.4042 0.0576392C14.1733 0.19438 14.8824 0.569174 15.4345 1.1309C15.9866 1.69263 16.3551 2.41395 16.4894 3.1965C16.6238 3.97905 16.5177 4.78472 16.1856 5.50367C15.8533 6.2226 15.3114 6.81981 14.6334 7.21383C13.9553 7.60786 13.1743 7.77954 12.3969 7.70544L12.4165 7.72434C11.7663 7.66818 11.1118 7.75712 10.4988 7.98494C9.88582 8.21276 9.32919 8.57397 8.86762 9.04334C8.40605 9.51272 8.05075 10.0789 7.82656 10.7025C7.60237 11.326 7.51468 11.9919 7.56959 12.6534L7.54999 12.6345C7.60379 13.1963 7.535 13.7633 7.34856 14.295ZM13.3882 17.8128L13.3686 17.7939C13.9211 17.8505 14.4791 17.7815 15.0023 17.5919C15.5253 17.4022 16.0005 17.0968 16.3934 16.6974C16.7861 16.2981 17.0869 15.8148 17.2736 15.2828C17.4604 14.7507 17.5286 14.1831 17.4734 13.6209L17.493 13.6398C17.4381 12.9784 17.5258 12.3128 17.7498 11.6894C17.9739 11.0661 18.3291 10.5 18.7903 10.0306C19.2517 9.56132 19.8081 9.19998 20.4208 8.97212C21.0336 8.7441 21.6877 8.65492 22.3379 8.71075L22.3183 8.69185C23.096 8.7662 23.8772 8.59457 24.5555 8.20052C25.234 7.80647 25.7762 7.20911 26.1086 6.48994C26.4409 5.77079 26.5471 4.96482 26.4128 4.18198C26.2784 3.39914 25.9099 2.67754 25.3575 2.11561C24.8052 1.55368 24.0959 1.17876 23.3265 1.04202C22.557 0.905266 21.7648 1.01333 21.0579 1.35148C20.351 1.68961 19.7639 2.24137 19.3766 2.9315C18.9892 3.62161 18.8206 4.41648 18.8936 5.2077L18.8751 5.18774C18.9301 5.84918 18.8425 6.51486 18.6186 7.13831C18.3946 7.76177 18.0394 8.32796 17.5782 8.79738C17.1168 9.26666 16.5603 9.628 15.9475 9.85586C15.3346 10.0837 14.6803 10.1728 14.0302 10.1168L14.0488 10.1368C13.4963 10.0802 12.9382 10.1491 12.4151 10.3388C11.892 10.5283 11.4168 10.8339 11.024 11.2332C10.6312 11.6326 10.3305 12.1158 10.1437 12.6479C9.95696 13.18 9.88874 13.7476 9.94396 14.3098L9.92538 14.2909C9.98008 14.9522 9.89225 15.6177 9.66817 16.2411C9.44399 16.8643 9.08893 17.4304 8.62767 17.8997C8.16637 18.3689 7.61 18.7302 6.99737 18.9582C6.38473 19.1862 5.73057 19.2756 5.08052 19.2199L5.0991 19.2388C4.3214 19.1645 3.5401 19.3361 2.86177 19.7302C2.18345 20.1243 1.64111 20.7215 1.30875 21.4407C0.976384 22.1599 0.870157 22.9659 1.00457 23.7487C1.13899 24.5315 1.5075 25.2531 2.05983 25.815C2.61217 26.377 3.32143 26.7519 4.0909 26.8886C4.86037 27.0254 5.65257 26.9173 6.35945 26.5792C7.06632 26.2411 7.65348 25.6893 8.0408 24.9992C8.42816 24.309 8.59681 23.5142 8.52373 22.723L8.54334 22.7419C8.48843 22.0804 8.57617 21.4149 8.80024 20.7915C9.02422 20.1681 9.37938 19.602 9.84064 19.1327C10.302 18.6634 10.8584 18.3021 11.4711 18.0742C12.0839 17.8462 12.7381 17.757 13.3882 17.8128ZM21.0012 12.2878C20.61 12.6882 20.3105 13.1715 20.1239 13.703C19.9373 14.2347 19.8682 14.8016 19.9216 15.3635L19.903 15.3446C19.9579 16.0061 19.8702 16.6716 19.6461 17.295C19.422 17.9184 19.067 18.4845 18.6057 18.9538C18.1444 19.4231 17.5879 19.7845 16.9751 20.0123C16.3625 20.2403 15.7082 20.3295 15.0582 20.2737L15.0767 20.2926C14.2991 20.219 13.5181 20.3911 12.8401 20.7856C12.1622 21.1801 11.6203 21.7777 11.2885 22.497C10.9566 23.2163 10.8508 24.0221 10.9856 24.8049C11.1205 25.5875 11.4893 26.3088 12.0418 26.8704C12.5943 27.432 13.3036 27.8065 14.073 27.9429C14.8424 28.0794 15.6344 27.9711 16.3411 27.6328C17.0478 27.2945 17.6347 26.7428 18.0218 26.0527C18.409 25.3626 18.5775 24.5679 18.5045 23.7767L18.5241 23.7956C18.4692 23.1343 18.5568 22.4687 18.7809 21.8452C19.0049 21.2219 19.3601 20.6558 19.8214 20.1864C20.2827 19.7171 20.8392 19.3558 21.4518 19.1279C22.0646 18.9 22.7188 18.8107 23.3689 18.8666L23.3493 18.8477C23.9845 18.9057 24.6239 18.7998 25.2082 18.5396C25.7924 18.2794 26.3027 17.8733 26.6916 17.3591C27.0805 16.8449 27.3357 16.239 27.4331 15.5978C27.5306 14.9565 27.4675 14.3006 27.2495 13.6907C27.0315 13.081 26.6657 12.537 26.1861 12.1093C25.7064 11.6816 25.1284 11.384 24.5056 11.2442C23.8828 11.1043 23.2354 11.1266 22.6233 11.309C22.0113 11.4915 21.4544 11.8281 21.0043 12.2878H21.0012ZM38.4433 5.23495H41.5088V20.4117H38.4433V5.23495ZM44.1492 12.1477C43.5567 13.0567 43.2427 14.1242 43.247 15.2148C43.2417 15.9388 43.3784 16.6566 43.649 17.3263C43.9195 17.9959 44.3185 18.604 44.8228 19.115C45.327 19.6258 45.9263 20.0294 46.5856 20.302C47.245 20.5746 47.951 20.7108 48.6626 20.7025C49.7347 20.7025 50.7825 20.3787 51.6737 19.7723C52.5647 19.166 53.2588 18.3041 53.6681 17.2961C54.0773 16.2881 54.1833 15.1791 53.9725 14.1097C53.7618 13.0403 53.2439 12.0586 52.4843 11.289C51.7247 10.5193 50.7577 9.99632 49.7058 9.7862C48.6538 9.57608 47.5643 9.68833 46.5751 10.1088C45.5859 10.5291 44.7416 11.2388 44.1492 12.1477ZM50.5853 13.9042C50.8512 14.2888 51 14.7447 51.0128 15.2148C51.03 15.5365 50.9815 15.8584 50.8703 16.1601C50.7593 16.4617 50.5878 16.7368 50.3671 16.9678C50.1463 17.1987 49.8808 17.3806 49.5875 17.502C49.2941 17.6233 48.9792 17.6816 48.6626 17.673C48.2004 17.673 47.7483 17.5344 47.363 17.2745C46.9778 17.0146 46.6765 16.645 46.4966 16.2117C46.3167 15.7785 46.2664 15.3009 46.3518 14.8387C46.4372 14.3765 46.6548 13.9502 46.977 13.6131C47.2994 13.2759 47.7122 13.043 48.164 12.9433C48.6157 12.8435 49.0863 12.8815 49.517 13.0525C49.9476 13.2233 50.3192 13.5196 50.5853 13.9042ZM66.2934 10.0166V19.8874C66.2934 23.3799 63.6161 24.8563 60.8985 24.8563C59.9417 24.9292 58.9835 24.7325 58.1292 24.288C57.275 23.8434 56.5576 23.1681 56.0557 22.3362L58.6711 20.7978C58.8821 21.2315 59.2182 21.5892 59.6345 21.8233C60.0509 22.0573 60.5275 22.1564 61.0006 22.1072C61.3031 22.1499 61.611 22.1228 61.9018 22.028C62.1924 21.9331 62.4585 21.773 62.6802 21.5595C62.9019 21.3459 63.0736 21.0845 63.1826 20.7942C63.2915 20.5041 63.3348 20.1927 63.3095 19.8832V18.9329C62.9506 19.3797 62.4937 19.7347 61.9755 19.9694C61.4573 20.2041 60.8923 20.3119 60.3256 20.2843C58.9774 20.241 57.6987 19.6658 56.7601 18.6802C55.8215 17.6947 55.2966 16.3762 55.2966 15.004C55.2966 13.6317 55.8215 12.3133 56.7601 11.3278C57.6987 10.3422 58.9774 9.76694 60.3256 9.72368C60.8923 9.69606 61.4573 9.8039 61.9755 10.0386C62.4937 10.2733 62.9506 10.6283 63.3095 11.0751V10.0145L66.2934 10.0166ZM63.3106 15.0056C63.3312 14.503 63.2034 14.0056 62.9438 13.5775C62.6843 13.1492 62.3046 12.81 61.8539 12.6032C61.4032 12.3963 60.902 12.3315 60.4147 12.417C59.9274 12.5025 59.4765 12.7344 59.1198 13.0829C58.7632 13.4313 58.5172 13.8803 58.4135 14.3722C58.3099 14.864 58.3532 15.3762 58.5382 15.8428C58.723 16.3093 59.0409 16.709 59.4509 16.9902C59.8608 17.2714 60.3442 17.4214 60.8386 17.4207C61.1607 17.4436 61.4839 17.3976 61.7874 17.2857C62.091 17.1738 62.3681 16.9983 62.601 16.7708C62.8338 16.5433 63.0173 16.2687 63.1395 15.9646C63.2617 15.6606 63.3201 15.3339 63.3106 15.0056ZM68.9309 12.1477C68.3383 13.0567 68.0244 14.1242 68.0287 15.2148C68.0234 15.9388 68.16 16.6566 68.4307 17.3263C68.7012 17.9959 69.1002 18.604 69.6045 19.115C70.1087 19.6258 70.708 20.0294 71.3673 20.302C72.0265 20.5746 72.7327 20.7108 73.4443 20.7025C74.5164 20.7025 75.5642 20.3787 76.4554 19.7723C77.3464 19.166 78.0405 18.3041 78.4498 17.2961C78.859 16.2881 78.965 15.1791 78.7542 14.1097C78.5435 13.0403 78.0255 12.0586 77.266 11.289C76.5064 10.5193 75.5394 9.99632 74.4875 9.7862C73.4355 9.57608 72.346 9.68833 71.3568 10.1088C70.3676 10.5291 69.5233 11.2388 68.9309 12.1477ZM75.367 13.9042C75.6329 14.2888 75.7817 14.7447 75.7945 15.2148C75.8117 15.5365 75.7632 15.8584 75.652 16.1601C75.541 16.4617 75.3695 16.7368 75.1488 16.9678C74.928 17.1987 74.6625 17.3806 74.3691 17.502C74.0758 17.6233 73.7608 17.6816 73.4443 17.673C72.982 17.673 72.53 17.5344 72.1447 17.2745C71.7595 17.0146 71.4582 16.645 71.2783 16.2117C71.0984 15.7785 71.048 15.3009 71.1334 14.8387C71.2189 14.3765 71.4365 13.9502 71.7587 13.6131C72.081 13.2759 72.4939 13.043 72.9457 12.9433C73.3973 12.8435 73.868 12.8815 74.2987 13.0525C74.7293 13.2233 75.1009 13.5196 75.367 13.9042ZM80.291 7.23076C80.291 6.86066 80.3989 6.49888 80.601 6.19116C80.803 5.88344 81.0904 5.64359 81.4265 5.50196C81.7625 5.36033 82.1323 5.32327 82.4891 5.39548C82.8459 5.46768 83.1737 5.6459 83.4309 5.9076C83.6881 6.16929 83.8632 6.50271 83.9342 6.8657C84.0051 7.22868 83.9687 7.60492 83.8296 7.94685C83.6903 8.28877 83.4546 8.58102 83.1521 8.78666C82.8497 8.99226 82.4941 9.102 82.1303 9.102C81.644 9.09706 81.1789 8.89839 80.835 8.54848C80.4912 8.19861 80.2959 7.72551 80.291 7.23076ZM80.6006 10.0166H83.6671V20.4124H80.5965L80.6006 10.0166ZM96.6125 17.2366C96.8391 16.5884 96.9375 15.9011 96.9021 15.214C96.9378 14.5268 96.8395 13.8392 96.6131 13.1909C96.3866 12.5425 96.0363 11.946 95.5824 11.4359C95.1285 10.9258 94.5799 10.5121 93.9681 10.2185C93.3564 9.92485 92.6936 9.75726 92.018 9.72523C91.45 9.69373 90.8823 9.79107 90.3559 10.0103C89.8295 10.2295 89.3575 10.5651 88.9742 10.9927V10.0161H85.9088V24.5691H88.9742V19.4332C89.3574 19.8611 89.8291 20.1969 90.3556 20.4164C90.8821 20.6357 91.4499 20.7332 92.018 20.7017C92.6935 20.6696 93.3561 20.5019 93.9677 20.2084C94.5793 19.9148 95.1278 19.501 95.5817 18.9911C96.0356 18.4811 96.3859 17.8849 96.6125 17.2366ZM93.3975 13.8567C93.6719 14.2554 93.8247 14.7275 93.8366 15.214C93.8595 15.5476 93.8128 15.8825 93.6996 16.1964C93.5863 16.5104 93.4092 16.7965 93.1797 17.036C92.9502 17.2754 92.6735 17.4628 92.3679 17.5858C92.0622 17.7089 91.7344 17.7648 91.4059 17.7499C90.9275 17.75 90.4599 17.6065 90.0613 17.3375C89.6627 17.0683 89.3509 16.6857 89.1651 16.2372C88.9792 15.7887 88.9275 15.2945 89.0163 14.8163C89.1052 14.338 89.3307 13.8972 89.6647 13.5487C89.9987 13.2003 90.4262 12.9598 90.8939 12.8574C91.3616 12.7549 91.8485 12.7951 92.2939 12.9729C92.7392 13.1506 93.123 13.458 93.3975 13.8567ZM106.362 17.2977C106.362 19.6887 104.319 20.7073 102.112 20.7073C101.221 20.7894 100.325 20.5977 99.5421 20.1565C98.7588 19.7155 98.1237 19.0455 97.7186 18.2333L100.374 16.6949C100.482 17.0703 100.712 17.397 101.028 17.6202C101.343 17.8434 101.725 17.9498 102.108 17.9214C102.843 17.9214 103.212 17.6925 103.212 17.2777C103.212 16.8649 102.558 16.6795 101.721 16.4425C100.239 16.0223 98.184 15.4398 98.184 13.1404C98.184 10.8733 100.065 9.73083 102.19 9.73083C102.989 9.70511 103.779 9.8979 104.48 10.2891C105.181 10.6803 105.766 11.2555 106.174 11.9549L103.558 13.3893C103.444 13.117 103.253 12.8851 103.009 12.7224C102.766 12.5597 102.481 12.4736 102.19 12.4747C101.658 12.4747 101.331 12.6847 101.331 13.0564C101.333 13.4795 101.974 13.6509 102.798 13.8712C104.283 14.2682 106.362 14.824 106.362 17.2977ZM117.559 20.413V10.0172L114.497 10.0203V15.6908C114.497 17.1672 113.721 17.8319 112.597 17.8319C112.352 17.847 112.108 17.8077 111.88 17.7169C111.652 17.6261 111.447 17.4859 111.278 17.306C111.108 17.1261 110.979 16.9108 110.901 16.6752C110.821 16.4397 110.794 16.1893 110.819 15.9417V10.0172H107.754V16.3985C107.754 19.2075 109.509 20.7038 111.573 20.7038C112.124 20.7425 112.675 20.6477 113.183 20.4271C113.691 20.2066 114.14 19.8667 114.494 19.4353V20.413H117.559ZM135.136 14.031V20.4134H132.071V14.3009C132.071 13.2613 131.58 12.5966 130.6 12.5966C129.578 12.5966 129.005 13.3243 129.005 14.5508V20.4134H125.941V14.3009C125.941 13.2613 125.451 12.5966 124.469 12.5966C123.447 12.5966 122.875 13.3243 122.875 14.5508V20.4134H119.81V10.0176H122.875V10.9732C123.193 10.5493 123.61 10.213 124.088 9.99535C124.567 9.77756 125.091 9.68526 125.614 9.72674C126.138 9.70059 126.66 9.81326 127.13 10.0536C127.598 10.2939 127.998 10.6539 128.29 11.0981C128.629 10.6333 129.079 10.2636 129.598 10.0238C130.116 9.78397 130.686 9.68179 131.253 9.72674C133.599 9.72779 135.136 11.4321 135.136 14.031ZM140.004 7.64351C140.004 8.92166 138.985 9.95788 137.729 9.95788C136.473 9.95788 135.454 8.92166 135.454 7.64351C135.454 6.36531 136.473 5.32914 137.729 5.32914C138.985 5.32914 140.004 6.36531 140.004 7.64351Z" fill="#8C94A2"/>
</svg>
