<svg width="183" height="52" viewBox="0 0 183 52" fill="none" xmlns="http://www.w3.org/2000/svg">
<g clip-path="url(#clip0_116_553)">
<path d="M20.885 7.1435C20.677 7.1435 20.493 7.2015 20.331 7.3165C20.169 7.4315 20.019 7.5765 19.881 7.7495C19.741 7.9225 19.614 8.1025 19.499 8.2875C19.383 8.4725 19.28 8.6345 19.187 8.7725C18.448 9.7425 17.714 10.7025 16.986 11.6495C16.258 12.5975 15.523 13.5445 14.784 14.4925C13.35 16.3885 11.837 18.2495 10.242 20.0745C9.871 20.4675 9.507 20.8665 9.149 21.2705C8.791 21.6745 8.416 22.0625 8.024 22.4315C7.931 22.5005 7.798 22.5865 7.625 22.6915C7.452 22.7965 7.308 22.9045 7.192 23.0215C7.03 22.7665 6.903 22.4595 6.811 22.1015C6.718 21.7435 6.649 21.3795 6.602 21.0095C6.556 20.6395 6.527 20.2765 6.516 19.9175C6.503 19.5595 6.487 19.2415 6.464 18.9635C6.348 17.9925 6.25 17.0395 6.17 16.1035C6.088 15.1665 5.991 14.2265 5.875 13.2775C5.828 12.8395 5.765 12.3235 5.685 11.7345C5.603 11.1445 5.5 10.5385 5.373 9.9145C5.245 9.2905 5.073 8.6825 4.852 8.0945C4.63 7.5075 4.36 6.9815 4.037 6.5185C6.693 6.0105 9.346 5.5655 11.994 5.1845C14.64 4.8035 17.315 4.4615 20.019 4.1615C22.285 3.9075 24.538 3.6825 26.779 3.4855C29.02 3.2885 31.275 3.1105 33.541 2.9475L39.399 2.5315L42.554 2.3935C42.901 2.3715 43.287 2.3715 43.716 2.3935C44.144 2.4155 44.519 2.3825 44.842 2.2895C45.166 2.2675 45.42 2.1165 45.605 1.8395C45.79 1.5615 45.825 1.2725 45.709 0.972497C45.546 0.579497 45.276 0.378497 44.894 0.365497C44.513 0.353497 44.16 0.359497 43.837 0.383497C39.376 0.568497 34.949 0.839497 30.558 1.1975C26.167 1.5555 21.752 2.0015 17.314 2.5315C15.558 2.7395 13.813 2.9605 12.079 3.1905C10.345 3.4215 8.613 3.6995 6.879 4.0235L2.857 4.7515C2.672 4.7975 2.447 4.8385 2.182 4.8725C1.915 4.9075 1.656 4.9655 1.402 5.0455C1.146 5.1275 0.933 5.2415 0.759 5.3925C0.586 5.5435 0.5 5.7565 0.5 6.0335C0.5 6.3805 0.608 6.6065 0.829 6.7105C1.049 6.8135 1.286 6.9125 1.54 7.0045C1.84 7.1205 2.072 7.2125 2.234 7.2815C2.395 7.3505 2.568 7.5365 2.753 7.8355C3.238 8.6455 3.568 9.5585 3.742 10.5755C3.914 11.5925 4.059 12.5635 4.175 13.4875C4.291 14.5285 4.388 15.5565 4.47 16.5745C4.55 17.5915 4.647 18.6195 4.765 19.6595C4.787 20.0295 4.821 20.5255 4.868 21.1505C4.914 21.7745 5.012 22.3865 5.163 22.9875C5.314 23.5885 5.545 24.1015 5.857 24.5305C6.169 24.9585 6.613 25.1715 7.191 25.1715C7.699 25.1255 8.162 24.9235 8.578 24.5655C8.994 24.2075 9.364 23.8675 9.687 23.5425C10.428 22.8255 11.126 22.0815 11.785 21.3065C12.444 20.5315 13.097 19.7515 13.744 18.9665C15.131 17.3025 16.477 15.6105 17.783 13.8875C19.088 12.1665 20.388 10.4385 21.683 8.7045C21.913 8.3815 21.937 8.0395 21.752 7.6815C21.567 7.3235 21.278 7.1435 20.885 7.1435Z" fill="#1B273D"/>
<path d="M108.009 16.0056C107.894 15.8546 107.737 15.7326 107.541 15.6386C107.345 15.5456 107.143 15.4986 106.934 15.4986C106.333 15.5446 105.744 15.6266 105.166 15.7446C104.588 15.8616 104.01 16.0016 103.433 16.1646C102.323 16.4916 101.231 16.8416 100.156 17.2156C99.0831 17.5896 97.9891 17.8806 96.8811 18.0906C96.0021 18.2786 95.1481 18.4476 94.3151 18.5986C93.4841 18.7506 92.6521 18.8386 91.8201 18.8626L92.4101 18.6166C92.8951 18.4306 93.3281 18.2786 93.7091 18.1606C94.0921 18.0436 94.5361 17.9386 95.0451 17.8466C95.2291 17.8226 95.5061 17.7756 95.8761 17.7066C96.2451 17.6356 96.5871 17.5316 96.8981 17.3906C97.2111 17.2506 97.4411 17.0586 97.5921 16.8136C97.7411 16.5676 97.7001 16.2586 97.4711 15.8856C97.2621 15.5356 96.9331 15.3386 96.4821 15.2916C96.0321 15.2456 95.6321 15.2336 95.2881 15.2566C94.4091 15.3026 93.5411 15.3486 92.6861 15.3946C91.8311 15.4416 90.9641 15.4766 90.0851 15.4986C90.0111 15.4986 89.9571 15.5386 89.8901 15.5506C89.5791 15.4846 89.2501 15.4366 88.8721 15.4466C88.4321 15.4576 87.9821 15.5096 87.5191 15.6016C87.0571 15.6946 86.6061 15.7936 86.1671 15.8966C85.7291 16.0006 85.3461 16.0866 85.0221 16.1576C84.3051 16.3186 83.5081 16.4986 82.6291 16.6956C81.7501 16.8926 80.8841 17.1176 80.0291 17.3716C79.9131 17.0016 79.6411 16.7536 79.2151 16.6256C78.7861 16.4996 78.3071 16.4066 77.7771 16.3486C77.2451 16.2906 76.7141 16.2276 76.1811 16.1586C75.6501 16.0886 75.2331 15.9276 74.9331 15.6736C74.8421 15.6036 74.7411 15.6226 74.6451 15.5906C74.5751 15.5626 74.5021 15.5366 74.4291 15.5276C74.3751 15.5246 74.3281 15.4736 74.2741 15.4826C74.2321 15.4896 74.2071 15.5236 74.1671 15.5336C74.1391 15.5376 74.1131 15.5286 74.0851 15.5346C73.7961 15.6036 73.5251 15.6746 73.2721 15.7436C72.8091 15.8816 72.3301 16.0556 71.8331 16.2626C71.3361 16.4716 70.8331 16.6786 70.3251 16.8876C69.8161 17.0956 69.3031 17.2796 68.7821 17.4416C68.2621 17.6046 67.7481 17.7196 67.2401 17.7886C67.4251 17.4646 67.5051 17.1586 67.4831 16.8686C67.4591 16.5806 67.2161 16.3086 66.7551 16.0546C66.2921 15.8696 65.8301 15.8006 65.3681 15.8466C65.2981 15.7776 65.2171 15.7136 65.1251 15.6566C65.0321 15.5996 64.9271 15.5476 64.8121 15.5016C64.2801 15.3396 63.7371 15.2296 63.1831 15.1716C62.6281 15.1136 62.0611 15.1196 61.4841 15.1886C61.1371 15.2366 60.6981 15.3576 60.1671 15.5536C60.1391 15.5636 60.1161 15.5836 60.0861 15.5946C59.9251 15.5756 59.7611 15.5546 59.6121 15.5706C58.8951 15.6856 58.2071 15.8936 57.5481 16.1946C56.8891 16.4946 56.2251 16.7836 55.5551 17.0616C55.3011 17.1776 54.9841 17.3276 54.6011 17.5116C54.2201 17.6966 53.8561 17.8116 53.5091 17.8586C53.5781 17.5356 53.6131 17.2336 53.6131 16.9576C53.6131 16.6796 53.4171 16.4146 53.0231 16.1606C52.7691 15.9986 52.4801 15.9176 52.1571 15.9176C51.6481 15.8936 51.1451 15.9236 50.6491 16.0036C50.1511 16.0856 49.6601 16.1996 49.1751 16.3506C48.6901 16.5016 48.1991 16.6626 47.7021 16.8356C47.2041 17.0086 46.7131 17.1646 46.2281 17.3036C46.3901 16.9566 46.3791 16.6226 46.1941 16.2976C46.0781 16.1126 45.9331 15.9806 45.7601 15.8986C45.5871 15.8176 45.3951 15.7656 45.1881 15.7436C44.8411 15.6976 44.4711 15.7136 44.0791 15.7956C43.6851 15.8766 43.2911 15.9806 42.8991 16.1076C42.5051 16.2346 42.1191 16.3726 41.7381 16.5246C41.3561 16.6736 40.9911 16.7956 40.6461 16.8886C40.2521 17.0046 39.8311 17.1376 39.3811 17.2866C38.9291 17.4376 38.4841 17.5696 38.0451 17.6856C38.1611 17.4546 38.2711 17.2176 38.3751 16.9746C38.4791 16.7316 38.5241 16.5066 38.5131 16.2986C38.5021 16.0906 38.4141 15.9176 38.2531 15.7776C38.1781 15.7126 38.0031 15.7046 37.8831 15.6646C37.8241 15.6296 37.8041 15.5626 37.7321 15.5366C37.2941 15.3966 36.8081 15.3576 36.2761 15.4136C35.7441 15.4716 35.2471 15.5006 34.7851 15.5006C34.3931 15.5006 33.9821 15.5066 33.5551 15.5176C33.1281 15.5306 32.6931 15.5246 32.2551 15.5006C31.8161 15.4786 31.3941 15.4136 30.9891 15.3106C30.5861 15.2066 30.2091 15.0496 29.8641 14.8426C29.4931 14.6116 29.1471 14.5886 28.8221 14.7736C28.4991 14.9586 28.3141 15.2126 28.2681 15.5366C27.8051 15.3966 27.3441 15.4206 26.8811 15.6086C26.4201 15.7966 26.0371 16.0786 25.7371 16.4536C25.5521 16.7136 25.4081 17.0056 25.3041 17.3326C25.2001 17.6596 25.1601 17.9856 25.1821 18.3086C25.2051 18.6336 25.3041 18.9226 25.4771 19.1766C25.6501 19.4306 25.9101 19.6046 26.2571 19.6956C26.6271 19.7886 27.0021 19.7776 27.3841 19.6616C27.7651 19.5456 28.1161 19.3616 28.4411 19.1076C28.7641 18.8526 29.0591 18.5476 29.3261 18.1876C29.5911 17.8296 29.7941 17.4516 29.9321 17.0546C30.0241 17.1006 30.1171 17.1246 30.2081 17.1246C31.3881 17.4296 32.5891 17.5636 33.8141 17.5286C34.5461 17.5086 35.2521 17.4926 35.9671 17.4776C35.8781 17.6426 35.7861 17.8076 35.7211 17.9796C35.6281 18.2226 35.5941 18.4646 35.6171 18.7076C35.6411 18.9506 35.7561 19.1756 35.9641 19.3836C36.1021 19.5216 36.2641 19.6146 36.4491 19.6616C36.6341 19.7066 36.8191 19.7306 37.0031 19.7306C37.5581 19.7306 38.1011 19.6616 38.6321 19.5216C39.1641 19.3836 39.6961 19.2156 40.2281 19.0196C40.7581 18.8236 41.2911 18.6216 41.8221 18.4126C42.3541 18.2056 42.8971 18.0316 43.4511 17.8916C43.2201 18.3546 43.2881 18.7706 43.6591 19.1406C43.8891 19.3716 44.1901 19.4876 44.5601 19.4876C44.8831 19.5096 45.2231 19.4816 45.5831 19.4006C45.9401 19.3196 46.2981 19.2156 46.6581 19.0886C47.0151 18.9616 47.3671 18.8346 47.7151 18.7076C48.0621 18.5806 48.3851 18.4706 48.6851 18.3776C49.1241 18.2636 49.5981 18.1346 50.1071 17.9966C50.6151 17.8586 51.1001 17.8006 51.5631 17.8236C51.4941 18.1706 51.4881 18.4986 51.5461 18.8126C51.6021 19.1246 51.8281 19.3836 52.2221 19.5926C52.6381 19.7996 53.1231 19.8516 53.6781 19.7476C54.2321 19.6446 54.7881 19.4716 55.3431 19.2286C55.8981 18.9856 56.4411 18.7256 56.9721 18.4486C57.1981 18.3316 57.3591 18.2766 57.5591 18.1846C57.5801 18.3826 57.6251 18.5836 57.7351 18.7936C57.9431 19.1876 58.2551 19.4186 58.6711 19.4876C59.0871 19.5566 59.4921 19.5566 59.8851 19.4876C60.4851 19.3716 61.0801 19.1976 61.6701 18.9666C62.2601 18.7366 62.8551 18.5276 63.4561 18.3426C63.9171 18.2046 64.3801 18.0996 64.8431 18.0306C64.7271 18.3536 64.7211 18.6596 64.8261 18.9486C64.9291 19.2376 65.1781 19.4736 65.5711 19.6596C65.9181 19.7756 66.2871 19.8266 66.6801 19.8146C67.0741 19.8036 67.4661 19.7516 67.8591 19.6596C68.2511 19.5666 68.6331 19.4516 69.0031 19.3126C69.3721 19.1746 69.7201 19.0476 70.0431 18.9316C70.7361 18.7006 71.4401 18.4286 72.1571 18.1166C72.8741 17.8046 73.6011 17.5926 74.3431 17.4766C74.4301 17.5226 74.4841 17.5966 74.5841 17.6316C74.8831 17.7356 75.1961 17.8166 75.5201 17.8736C75.8421 17.9316 76.1671 17.9776 76.4901 18.0126C76.8151 18.0476 77.1021 18.0886 77.3581 18.1336C77.1271 18.2046 76.9071 18.3016 76.6991 18.4286C76.4901 18.5566 76.3111 18.7066 76.1621 18.8796C76.0111 19.0536 75.9191 19.2436 75.8841 19.4516C75.8511 19.6596 75.8901 19.8786 76.0051 20.1106C76.1681 20.3886 76.3991 20.5326 76.6991 20.5436C76.9981 20.5566 77.3171 20.5036 77.6531 20.3886C77.9871 20.2726 78.3231 20.1286 78.6571 19.9556C78.9931 19.7826 79.2631 19.6606 79.4721 19.5916C80.9281 19.1066 82.4131 18.6896 83.9271 18.3426C85.4411 17.9956 86.9601 17.7306 88.4871 17.5456C88.7631 17.4996 89.0811 17.4876 89.4391 17.5106C89.5701 17.5186 89.6481 17.4416 89.7621 17.4216C89.8771 17.4616 89.9941 17.4976 90.1331 17.4936C90.4911 17.4826 90.8201 17.4646 91.1201 17.4416L92.6811 17.3376C92.0791 17.5456 91.4851 17.7366 90.8961 17.9106C90.3071 18.0836 89.7471 18.3326 89.2141 18.6556C88.7761 18.9336 88.5441 19.1816 88.5211 19.4006C88.4991 19.6206 88.5731 19.8166 88.7471 19.9896C88.9211 20.1636 89.1411 20.3016 89.4051 20.4066C89.6711 20.5106 89.8961 20.5626 90.0811 20.5626C92.1851 20.6076 94.2141 20.4686 96.1661 20.1436C98.1201 19.8176 100.089 19.3516 102.077 18.7476C102.724 18.5616 103.372 18.3696 104.019 18.1716C104.665 17.9746 105.324 17.8046 105.996 17.6656C106.25 17.5966 106.584 17.5426 107 17.5086C107.416 17.4736 107.717 17.3506 107.901 17.1416C108.087 16.9326 108.179 16.7286 108.179 16.5306C108.183 16.3306 108.125 16.1566 108.009 16.0056ZM27.4731 17.7876C27.2641 17.7876 27.1261 17.8216 27.0561 17.8906C27.1031 17.7766 27.1721 17.6886 27.2641 17.6316C27.3571 17.5736 27.4261 17.5226 27.4731 17.4766V17.7876ZM60.9301 17.3716C60.6991 17.4406 60.4671 17.4986 60.2361 17.5446C60.6061 17.3366 61.0691 17.1976 61.6231 17.1286C61.3911 17.2206 61.1601 17.3016 60.9301 17.3716Z" fill="#1B273D"/>
<path d="M56.5961 30.7306C57.1271 30.2926 57.6191 29.8176 58.0691 29.3106C58.5201 28.8016 58.8661 28.2696 59.1091 27.7146C59.3531 27.1606 59.3571 26.6166 59.1271 26.0856C59.0111 25.8316 58.8191 25.6066 58.5541 25.4096C58.2891 25.2136 58.0061 25.1376 57.7051 25.1836C57.4511 25.2296 57.2481 25.3686 57.0991 25.5996C56.9481 25.8306 56.8961 26.0736 56.9421 26.3276C56.9661 26.4656 57.0171 26.5706 57.0991 26.6396C57.1791 26.7086 57.2671 26.7776 57.3581 26.8476C57.3361 27.0326 57.2481 27.2346 57.0991 27.4546C56.9481 27.6746 56.7821 27.8876 56.5971 28.0946C56.4111 28.3036 56.2211 28.4936 56.0241 28.6676C55.8281 28.8416 55.6711 28.9846 55.5561 29.1006C55.0711 29.5636 54.5631 30.0186 54.0311 30.4706C53.4991 30.9206 52.9671 31.3666 52.4371 31.8046C51.1651 32.8216 49.8711 33.8036 48.5531 34.7516C47.2361 35.6996 45.8951 36.6126 44.5311 37.4896C42.0581 39.1316 39.5441 40.7196 36.9911 42.2586C34.4361 43.7946 31.7841 45.0836 29.0341 46.1236C28.9651 45.8226 29.0041 45.4586 29.1551 45.0316C29.3051 44.6026 29.4151 44.2736 29.4841 44.0426C29.6691 43.4876 29.8661 42.9446 30.0731 42.4136C30.2821 41.8826 30.5011 41.3506 30.7321 40.8186C31.1241 39.8246 31.5581 38.8256 32.0321 37.8196C32.5051 36.8136 32.8571 35.7906 33.0891 34.7516C33.2291 34.0346 33.1811 33.5386 32.9511 33.2606C32.7201 32.9846 32.3671 32.8506 31.8931 32.8636C31.4191 32.8746 30.8821 33.0016 30.2821 33.2446C29.6791 33.4876 29.0861 33.7526 28.4961 34.0416C27.9061 34.3306 27.3741 34.6206 26.9001 34.9096C26.4261 35.1986 26.0981 35.4006 25.9131 35.5156C23.8091 36.7866 21.7531 38.0806 19.7411 39.3976C17.7311 40.7146 15.6851 42.0216 13.6041 43.3156C12.5641 43.9626 11.5361 44.6036 10.5191 45.2396C9.50207 45.8766 8.47307 46.4936 7.43407 47.0946C7.08707 47.3016 6.71207 47.5276 6.30707 47.7706C5.90207 48.0126 5.49307 48.2556 5.07707 48.4986C4.66107 48.7406 4.23907 48.9616 3.81207 49.1576C3.38307 49.3526 2.96207 49.4986 2.54607 49.5906C2.66207 49.1986 2.86907 48.7776 3.17007 48.3246C3.47107 47.8756 3.71307 47.5216 3.89807 47.2676C4.22007 46.7596 4.55007 46.2626 4.88607 45.7766C5.22007 45.2926 5.56207 44.8066 5.90907 44.3216C6.74007 43.1896 7.59007 42.0796 8.45707 40.9936C9.32407 39.9076 10.1961 38.8326 11.0741 37.7686C11.8841 36.7976 12.7091 35.8436 13.5541 34.9086C14.3981 33.9716 15.2581 33.0416 16.1371 32.1166C16.6681 31.5626 17.2291 30.9726 17.8171 30.3486C18.4071 29.7236 19.0601 29.2386 19.7761 28.8926C20.0541 28.7996 20.2391 28.6316 20.3311 28.3896C20.4241 28.1466 20.4351 27.9106 20.3661 27.6786C20.2971 27.4486 20.1571 27.2636 19.9501 27.1246C19.7411 26.9856 19.4871 26.9636 19.1871 27.0556C18.7701 27.1246 18.3731 27.3336 17.9911 27.6796C17.6101 28.0266 17.2681 28.3266 16.9681 28.5806C15.7901 29.6216 14.6801 30.7196 13.6401 31.8746C12.6001 33.0316 11.5611 34.1986 10.5201 35.3756C9.43407 36.6476 8.37507 37.9246 7.34907 39.2076C6.31907 40.4896 5.32007 41.8126 4.34907 43.1776C3.88707 43.8016 3.43507 44.4376 2.99607 45.0846C2.55707 45.7306 2.14107 46.3896 1.74707 47.0606C1.60907 47.3156 1.44707 47.5976 1.26207 47.9116C1.07707 48.2236 0.922072 48.5466 0.795072 48.8826C0.667072 49.2166 0.586072 49.5576 0.552072 49.9046C0.517072 50.2506 0.569072 50.5746 0.707072 50.8756C0.939072 51.3596 1.29707 51.6136 1.78207 51.6366C2.26707 51.6596 2.78807 51.5736 3.34307 51.3766C3.89707 51.1806 4.43507 50.9306 4.95507 50.6316C5.47407 50.3316 5.87307 50.1106 6.15107 49.9736C7.74507 49.0946 9.31107 48.1696 10.8491 47.2006C12.3851 46.2296 13.9171 45.2466 15.4421 44.2536C17.0131 43.2606 18.5631 42.2766 20.0881 41.3066C21.6141 40.3356 23.1731 39.3656 24.7691 38.3936C25.5081 37.9326 26.2421 37.4886 26.9711 37.0596C27.6991 36.6316 28.4441 36.2226 29.2071 35.8296C29.4611 35.6896 29.7621 35.5126 30.1081 35.2916C30.4541 35.0716 30.8011 34.9046 31.1481 34.7896C31.0101 35.3446 30.7541 36.0256 30.3851 36.8336C30.0151 37.6446 29.6161 38.5046 29.1891 39.4166C28.7611 40.3306 28.3511 41.2556 27.9591 42.1896C27.5651 43.1276 27.2891 43.9936 27.1271 44.7916C26.9641 45.5886 26.9591 46.2756 27.1101 46.8546C27.2591 47.4316 27.6701 47.8256 28.3401 48.0346C28.7341 48.1726 29.1551 48.1956 29.6051 48.1036C30.0571 48.0096 30.5061 47.8666 30.9581 47.6686C31.4081 47.4726 31.8411 47.2536 32.2571 47.0116C32.6731 46.7686 33.0431 46.5546 33.3671 46.3686C34.6851 45.6756 35.9841 44.9526 37.2681 44.2016C38.5501 43.4516 39.8161 42.6716 41.0641 41.8616C43.5131 40.3136 45.9391 38.7176 48.3441 37.0776C50.7471 35.4356 53.0701 33.6796 55.3121 31.8076C55.6371 31.5276 56.0641 31.1716 56.5961 30.7306Z" fill="#1B273D"/>
<path d="M56.9602 33.0025C56.5782 33.2455 56.3072 33.5865 56.1452 34.0245C55.9372 34.5325 55.9252 34.9605 56.1112 35.3075C56.2962 35.6545 56.5962 35.9325 57.0132 36.1395C57.4292 36.3475 57.9142 36.4925 58.4692 36.5725C59.0232 36.6545 59.5782 36.6825 60.1322 36.6595C60.6882 36.6355 61.2012 36.5555 61.6752 36.4165C62.1492 36.2765 62.5022 36.0925 62.7332 35.8605C63.0562 35.5375 63.2182 35.1565 63.2182 34.7165C63.4032 34.7625 63.5882 34.7985 63.7722 34.8205C63.9572 34.8445 64.1192 34.8255 64.2572 34.7685C64.3952 34.7115 64.5002 34.6135 64.5692 34.4735C64.6382 34.3355 64.6732 34.1395 64.6732 33.8855C64.6492 33.5385 64.4942 33.2605 64.2052 33.0535C63.9162 32.8445 63.5762 32.6835 63.1832 32.5685C62.7902 32.4535 62.3912 32.3725 61.9872 32.3255C61.5822 32.2785 61.2642 32.2545 61.0332 32.2545C60.6402 32.2325 60.1952 32.2325 59.6982 32.2545C59.2022 32.2785 58.7172 32.3475 58.2422 32.4635C57.7672 32.5795 57.3412 32.7595 56.9602 33.0025ZM59.4912 33.9205C59.8942 33.9205 60.2882 33.9495 60.6692 34.0075C61.0512 34.0655 61.3692 34.1175 61.6232 34.1625C61.6462 34.1865 61.6702 34.1985 61.6922 34.1985C61.7162 34.1985 61.7502 34.2095 61.7962 34.2325C62.0042 34.4185 62.0612 34.6375 61.9692 34.8915C61.7842 35.0545 61.5812 35.1635 61.3632 35.2215C61.1432 35.2795 60.9172 35.3315 60.6872 35.3765C60.5712 35.3765 60.3512 35.3765 60.0282 35.3765C59.7042 35.3765 59.3692 35.3545 59.0222 35.3075C58.6752 35.2625 58.3582 35.1855 58.0692 35.0815C57.7792 34.9785 57.6112 34.8345 57.5672 34.6485C57.5892 34.6265 57.6012 34.6035 57.6012 34.5795C57.7632 34.3485 58.0182 34.1805 58.3642 34.0775C58.7102 33.9725 59.0852 33.9205 59.4912 33.9205Z" fill="#1B273D"/>
<path d="M144.135 36.1395C144.551 36.3475 145.036 36.4925 145.592 36.5725C146.147 36.6545 146.701 36.6825 147.255 36.6595C147.81 36.6355 148.324 36.5555 148.799 36.4165C149.272 36.2765 149.624 36.0925 149.856 35.8605C150.18 35.5375 150.341 35.1565 150.341 34.7165C150.526 34.7625 150.71 34.7985 150.897 34.8205C151.082 34.8445 151.243 34.8255 151.382 34.7685C151.52 34.7115 151.624 34.6135 151.694 34.4735C151.763 34.3355 151.798 34.1395 151.798 33.8855C151.774 33.5385 151.618 33.2605 151.329 33.0535C151.04 32.8445 150.699 32.6835 150.307 32.5685C149.913 32.4525 149.514 32.3725 149.111 32.3255C148.706 32.2785 148.388 32.2545 148.157 32.2545C147.763 32.2325 147.319 32.2325 146.823 32.2545C146.325 32.2785 145.84 32.3475 145.367 32.4635C144.893 32.5795 144.466 32.7585 144.083 33.0015C143.702 33.2445 143.431 33.5855 143.27 34.0235C143.061 34.5315 143.05 34.9595 143.235 35.3065C143.418 35.6535 143.719 35.9315 144.135 36.1395ZM144.725 34.5795C144.887 34.3485 145.141 34.1805 145.488 34.0775C145.836 33.9735 146.211 33.9215 146.614 33.9215C147.019 33.9215 147.413 33.9505 147.794 34.0085C148.175 34.0665 148.492 34.1185 148.747 34.1635C148.769 34.1875 148.794 34.1995 148.816 34.1995C148.838 34.1995 148.874 34.2105 148.92 34.2335C149.127 34.4195 149.186 34.6385 149.094 34.8925C148.907 35.0555 148.705 35.1645 148.487 35.2225C148.267 35.2805 148.042 35.3325 147.81 35.3775C147.695 35.3775 147.476 35.3775 147.151 35.3775C146.829 35.3775 146.493 35.3555 146.147 35.3085C145.799 35.2635 145.482 35.1865 145.193 35.0825C144.904 34.9795 144.736 34.8355 144.691 34.6495C144.713 34.6255 144.725 34.6035 144.725 34.5795Z" fill="#1B273D"/>
<path d="M182.827 40.8416C182.712 40.6906 182.556 40.5686 182.359 40.4746C182.163 40.3816 181.961 40.3346 181.753 40.3346C181.151 40.3816 180.562 40.4636 179.984 40.5806C179.406 40.6976 178.828 40.8376 178.251 41.0006C177.141 41.3276 176.049 41.6776 174.974 42.0516C173.901 42.4256 172.807 42.7166 171.699 42.9266C170.82 43.1146 169.966 43.2826 169.133 43.4346C168.303 43.5866 167.47 43.6746 166.638 43.6986L167.228 43.4536C167.713 43.2666 168.146 43.1146 168.527 42.9976C168.91 42.8806 169.354 42.7756 169.863 42.6836C170.047 42.6596 170.325 42.6136 170.694 42.5436C171.063 42.4736 171.405 42.3686 171.716 42.2276C172.029 42.0876 172.26 41.8966 172.41 41.6516C172.559 41.4056 172.518 41.0966 172.289 40.7226C172.08 40.3726 171.752 40.1756 171.3 40.1286C170.85 40.0816 170.451 40.0706 170.106 40.0936C169.227 40.1396 168.359 40.1856 167.504 40.2316C166.649 40.2786 165.783 40.3136 164.904 40.3356C164.883 40.3356 164.868 40.3506 164.848 40.3516C164.826 40.3516 164.822 40.3346 164.799 40.3356C163.873 40.3826 162.944 40.5786 162.007 40.9246C161.071 41.2716 160.164 41.5716 159.285 41.8256C158.615 42.0116 157.929 42.1786 157.222 42.3286C156.517 42.4796 155.806 42.5656 155.09 42.5886C154.95 42.5886 154.772 42.5826 154.553 42.5716C154.333 42.5596 154.113 42.5366 153.895 42.5026C153.674 42.4676 153.478 42.4036 153.305 42.3126C153.131 42.2196 153.01 42.1036 152.941 41.9656L153.115 41.8966H153.148C153.496 42.1036 153.785 42.1386 154.016 41.9996C154.245 41.8616 154.403 41.6656 154.483 41.4116C154.565 41.1566 154.541 40.8856 154.414 40.5966C154.287 40.3076 154.027 40.1276 153.634 40.0596C153.242 39.9676 152.849 39.9906 152.456 40.1276C152.243 40.2036 152.102 40.3616 151.93 40.4846C151.768 40.4606 151.6 40.4246 151.451 40.4396C150.641 40.5566 149.85 40.7346 149.076 40.9766C148.302 41.2196 147.534 41.4686 146.77 41.7226C146.169 41.9306 145.58 42.1036 145.002 42.2426C144.862 42.2896 144.694 42.3186 144.499 42.3296C144.303 42.3416 144.101 42.3706 143.892 42.4166C143.939 42.1866 143.973 41.9546 143.996 41.7236C144.018 41.4926 144.002 41.2786 143.944 41.0816C143.886 40.8846 143.776 40.7236 143.615 40.5966C143.453 40.4696 143.221 40.3946 142.922 40.3706C142.904 40.3706 142.897 40.3816 142.879 40.3816C142.808 40.3606 142.759 40.3166 142.679 40.3016C142.403 40.2546 142.114 40.2326 141.813 40.2326C141.512 40.2326 141.217 40.2386 140.928 40.2506C140.639 40.2636 140.403 40.2686 140.217 40.2686C139.246 40.1986 138.236 40.0956 137.184 39.9556C136.132 39.8166 135.121 39.7946 134.152 39.8866C133.157 40.0016 132.192 40.2686 131.256 40.6836C130.32 41.0996 129.367 41.4476 128.397 41.7246C128.419 41.5156 128.443 41.3086 128.466 41.0996C128.488 40.8926 128.477 40.7136 128.432 40.5626C128.384 40.4136 128.286 40.2916 128.137 40.1986C127.986 40.1066 127.738 40.0606 127.391 40.0606C126.744 40.1986 126.12 40.4016 125.519 40.6666C124.917 40.9336 124.317 41.1816 123.716 41.4126C123.485 41.5046 123.225 41.6146 122.936 41.7416C122.647 41.8686 122.346 41.9896 122.035 42.1046C121.722 42.2206 121.411 42.3136 121.099 42.3826C120.787 42.4516 120.493 42.4746 120.214 42.4516C120.236 42.2656 120.272 42.0816 120.318 41.8966C120.363 41.7116 120.387 41.5326 120.387 41.3596C120.387 41.1856 120.34 41.0296 120.248 40.8906C120.155 40.7516 119.981 40.6246 119.727 40.5096C119.653 40.4726 119.558 40.4756 119.476 40.4526C119.435 40.4326 119.425 40.3886 119.38 40.3706C118.942 40.2306 118.456 40.1916 117.924 40.2486C117.392 40.3066 116.896 40.3356 116.433 40.3356C116.041 40.3356 115.63 40.3416 115.203 40.3536C114.776 40.3666 114.342 40.3606 113.903 40.3356C113.464 40.3136 113.042 40.2486 112.637 40.1456C112.234 40.0416 111.857 39.8846 111.511 39.6776C111.14 39.4466 110.794 39.4236 110.47 39.6086C110.147 39.7936 109.962 40.0466 109.915 40.3716C109.537 40.2576 109.159 40.2816 108.781 40.3866C108.56 40.3326 108.321 40.3166 108.043 40.3706C107.581 40.4636 107.199 40.5446 106.899 40.6126C106.227 40.7756 105.564 40.9836 104.906 41.2376C104.247 41.4916 103.593 41.7456 102.946 41.9996C102.552 42.1626 102.166 42.3186 101.785 42.4686C101.403 42.6196 101.016 42.7406 100.624 42.8326C100.716 42.6026 100.843 42.3596 101.005 42.1036C101.166 41.8496 101.345 41.6016 101.543 41.3596C101.739 41.1166 101.924 40.8966 102.097 40.7006C102.271 40.5046 102.404 40.3476 102.496 40.2316C102.934 39.6776 103.385 39.1396 103.848 38.6196C104.311 38.1006 104.785 37.5856 105.27 37.0776C106.171 36.1526 107.107 35.2696 108.078 34.4246C109.049 33.5826 110.065 32.7906 111.13 32.0506C111.315 31.9126 111.424 31.7386 111.46 31.5296C111.493 31.3216 111.471 31.1316 111.389 30.9576C111.309 30.7846 111.182 30.6456 111.008 30.5416C110.835 30.4376 110.633 30.4206 110.402 30.4896C110.008 30.5826 109.611 30.8196 109.206 31.2006C108.802 31.5816 108.437 31.9006 108.114 32.1546C107.028 33.0336 105.982 33.9516 104.976 34.9116C103.97 35.8706 102.995 36.8696 102.046 37.9096C101.839 38.1406 101.583 38.4196 101.282 38.7416C100.982 39.0666 100.67 39.4256 100.347 39.8166C98.8442 40.6956 97.3652 41.3306 95.9092 41.7236C94.4532 42.1166 93.1012 42.4626 91.8532 42.7636C92.4542 41.5836 93.2742 40.4756 94.3152 39.4356C95.3542 38.3946 96.3472 37.4236 97.2952 36.5226L97.6782 36.1766C98.0462 36.1526 98.4912 36.1636 99.0122 36.2106C99.5322 36.2566 99.9772 36.3616 100.347 36.5226C100.462 36.7536 100.629 36.8996 100.849 36.9576C101.069 37.0156 101.282 37.0046 101.491 36.9226C101.699 36.8426 101.872 36.7026 102.012 36.5066C102.151 36.3106 102.184 36.0736 102.116 35.7956C102.024 35.4726 101.868 35.2306 101.649 35.0676C101.428 34.9066 101.18 34.7906 100.902 34.7206C100.394 34.6066 99.8962 34.5596 99.4112 34.5826C100.082 33.9816 100.759 33.3866 101.44 32.7966C102.122 32.2086 102.821 31.6126 103.538 31.0116C103.699 30.8496 103.792 30.6646 103.815 30.4576C103.838 30.2486 103.802 30.0586 103.711 29.8846C103.617 29.7116 103.484 29.5846 103.312 29.5036C103.138 29.4216 102.936 29.4166 102.706 29.4846C102.289 29.6016 101.879 29.8726 101.476 30.2996C101.071 30.7276 100.718 31.0796 100.417 31.3566C99.7942 31.8896 99.1812 32.4206 98.5812 32.9526C97.9782 33.4846 97.3772 34.0276 96.7772 34.5816C93.9112 34.6276 91.0102 34.7496 88.0752 34.9456C85.1392 35.1416 82.2852 35.5986 79.5122 36.3156C79.2812 36.3846 79.1592 36.5416 79.1492 36.7836C79.1372 37.0266 79.2582 37.1946 79.5122 37.2866C79.6282 37.3326 79.7552 37.3326 79.8932 37.2866C80.0322 37.2396 80.1602 37.2056 80.2742 37.1826C80.7592 37.0666 81.2412 36.9806 81.7132 36.9226C82.1872 36.8646 82.6662 36.8016 83.1512 36.7326C84.4932 36.5926 85.8282 36.4836 87.1562 36.4026C88.4852 36.3216 89.8202 36.2586 91.1602 36.2126C91.8302 36.1906 92.4892 36.1786 93.1372 36.1786C93.7852 36.1786 94.4442 36.1786 95.1142 36.1786L94.6272 36.6596C94.4882 36.7986 94.1992 37.0936 93.7602 37.5426C93.3212 37.9946 92.8412 38.5216 92.3222 39.1216C91.9772 39.5186 91.6662 39.9476 91.3462 40.3696C91.2692 40.3476 91.2092 40.2936 91.1232 40.2826C90.8692 40.2476 90.6032 40.2416 90.3262 40.2646C90.0502 40.2876 89.7772 40.3156 89.5122 40.3516C89.2452 40.3866 89.0092 40.4036 88.8012 40.4036C88.5932 40.4036 88.2232 40.4206 87.6912 40.4556C87.1602 40.4896 86.5992 40.5026 86.0092 40.4896C85.4212 40.4786 84.8842 40.4326 84.3992 40.3516C83.9142 40.2706 83.6122 40.1146 83.4982 39.8826C83.4982 39.6066 83.4512 39.3396 83.3582 39.0856C83.2662 38.8316 83.0452 38.6806 82.6992 38.6346C82.4922 38.6116 82.3182 38.6416 82.1792 38.7216C82.0392 38.8016 81.9182 38.9116 81.8162 39.0506C81.7122 39.1906 81.6192 39.3396 81.5382 39.5016C81.4562 39.6636 81.3702 39.8136 81.2782 39.9516C80.8842 40.5986 80.3882 41.1776 79.7872 41.6846C79.8342 41.3376 79.7872 41.0386 79.6492 40.7836C79.5092 40.5296 79.2092 40.3906 78.7482 40.3676C78.6602 40.3676 78.6022 40.4056 78.5252 40.4216C78.4532 40.4166 78.4092 40.3636 78.3322 40.3676C77.5232 40.4606 76.7192 40.6046 75.9222 40.8006C75.1252 40.9986 74.3212 41.1896 73.5132 41.3736C72.4052 41.6276 71.2882 41.8696 70.1682 42.1016C69.0462 42.3326 67.9192 42.4956 66.7862 42.5866C66.7172 42.5866 66.5492 42.5866 66.2842 42.5866C66.0192 42.5866 65.7292 42.5756 65.4182 42.5536C65.1052 42.5296 64.8122 42.4906 64.5332 42.4316C64.2552 42.3736 64.0712 42.2976 63.9792 42.2056C64.2552 42.2526 64.5802 42.2916 64.9502 42.3266C65.3202 42.3606 65.6782 42.3606 66.0252 42.3266C66.3722 42.2916 66.6842 42.2176 66.9612 42.1006C67.2392 41.9856 67.4462 41.7886 67.5862 41.5106C67.7472 41.1416 67.7642 40.8356 67.6382 40.5926C67.5102 40.3506 67.2852 40.1596 66.9612 40.0206C66.6382 39.8816 66.2552 39.8016 65.8172 39.7776C65.3782 39.7556 64.9382 39.7666 64.4992 39.8126C64.0612 39.8596 63.6612 39.9336 63.3042 40.0386C62.9442 40.1426 62.6852 40.2756 62.5242 40.4366C62.5162 40.4436 62.5162 40.4536 62.5072 40.4616C62.4222 40.4566 62.3282 40.4276 62.2472 40.4366C61.4372 40.5536 60.6462 40.7316 59.8722 40.9736C59.0982 41.2166 58.3302 41.4656 57.5672 41.7196C56.9662 41.9276 56.3762 42.1006 55.7982 42.2396C55.6602 42.2866 55.4922 42.3156 55.2962 42.3266C55.1002 42.3386 54.8992 42.3676 54.6902 42.4136C54.7362 42.1836 54.7712 41.9516 54.7942 41.7206C54.8162 41.4896 54.7992 41.2756 54.7422 41.0786C54.6852 40.8816 54.5742 40.7206 54.4122 40.5936C54.2512 40.4666 54.0202 40.3916 53.7192 40.3676C53.4882 40.3676 53.2922 40.4196 53.1302 40.5236C52.9672 40.6276 52.8532 40.7546 52.7832 40.9046C52.7142 41.0556 52.6842 41.2236 52.6972 41.4086C52.7082 41.5936 52.7602 41.7546 52.8532 41.8936C52.7832 42.1246 52.7252 42.3676 52.6802 42.6216C52.6342 42.8756 52.6222 43.1246 52.6452 43.3666C52.6672 43.6096 52.7442 43.8296 52.8712 44.0256C52.9982 44.2216 53.2112 44.3786 53.5122 44.4936C53.9522 44.6326 54.4322 44.6156 54.9512 44.4416C55.4722 44.2676 55.9272 44.1116 56.3212 43.9726C56.9912 43.7436 57.6672 43.5226 58.3502 43.3146C59.0312 43.1066 59.7202 42.9116 60.4132 42.7246C60.7362 42.6326 61.0722 42.5526 61.4182 42.4816C61.6162 42.4426 61.8142 42.4156 62.0092 42.3846C62.0582 42.5796 62.0962 42.7806 62.1972 42.9666C62.3482 43.2446 62.5502 43.4876 62.8042 43.6956C63.1042 43.9496 63.4402 44.1396 63.8102 44.2666C64.1802 44.3936 64.5662 44.4796 64.9712 44.5266C65.3762 44.5736 65.7802 44.5846 66.1842 44.5616C66.5892 44.5386 66.9762 44.5036 67.3472 44.4576C68.7572 44.3196 70.1432 44.1046 71.5072 43.8166C72.8702 43.5276 74.2452 43.2216 75.6322 42.8976C76.1642 42.7826 76.6912 42.6606 77.2112 42.5336C77.3382 42.5026 77.4682 42.4966 77.5952 42.4706C77.5302 42.6486 77.4682 42.8256 77.4182 43.0016C77.3602 43.2096 77.3442 43.4126 77.3662 43.6086C77.3882 43.8036 77.4812 43.9946 77.6422 44.1806C77.9892 44.5266 78.4052 44.6306 78.8902 44.4926C79.2832 44.3996 79.6292 44.2216 79.9302 43.9556C80.2312 43.6896 80.5202 43.4296 80.7972 43.1756C81.0742 42.9216 81.3522 42.6496 81.6302 42.3606C81.9062 42.0726 82.1712 41.7786 82.4272 41.4776C82.7962 41.7316 83.2242 41.9156 83.7092 42.0326C84.1942 42.1476 84.6572 42.2276 85.0962 42.2746C85.7212 42.3216 86.3442 42.3436 86.9682 42.3436C87.5932 42.3436 88.2162 42.3436 88.8402 42.3436C89.2092 42.3216 89.6092 42.3256 90.0362 42.3606C90.0452 42.3606 90.0522 42.3576 90.0602 42.3596C89.9812 42.5216 89.8892 42.6906 89.8292 42.8456C89.6102 43.4126 89.5802 43.8806 89.7422 44.2506C89.9032 44.6196 90.3662 44.8276 91.1292 44.8736C91.4522 44.8736 91.9552 44.7806 92.6382 44.5976C93.3192 44.4116 94.0412 44.1856 94.8052 43.9206C95.5672 43.6546 96.3132 43.3826 97.0402 43.1066C97.7692 42.8296 98.3412 42.5986 98.7562 42.4136C98.5022 43.1536 98.5492 43.7666 98.8962 44.2516C99.1032 44.5506 99.3752 44.7306 99.7092 44.7886C100.045 44.8456 100.374 44.8516 100.698 44.8066C101.669 44.6206 102.598 44.3316 103.488 43.9406C104.379 43.5466 105.286 43.1886 106.21 42.8656C106.435 42.7866 106.664 42.7446 106.892 42.6876C106.874 42.8376 106.826 42.9906 106.835 43.1416C106.857 43.4656 106.956 43.7546 107.13 44.0086C107.304 44.2626 107.563 44.4366 107.91 44.5286C108.279 44.6216 108.654 44.6106 109.037 44.4946C109.418 44.3796 109.769 44.1946 110.094 43.9406C110.417 43.6846 110.712 43.3796 110.979 43.0206C111.244 42.6626 111.447 42.2846 111.585 41.8876C111.677 41.9336 111.77 41.9576 111.861 41.9576C113.041 42.2626 114.242 42.3956 115.466 42.3606C116.489 42.3326 117.484 42.3096 118.473 42.2886C118.432 42.6426 118.402 42.9926 118.43 43.3146C118.466 43.7086 118.749 44.0076 119.28 44.2156C119.489 44.2846 119.702 44.3246 119.922 44.3366C120.143 44.3486 120.356 44.3306 120.565 44.2846C121.604 44.1236 122.604 43.8226 123.564 43.3826C124.522 42.9446 125.51 42.5636 126.528 42.2386C126.504 42.5856 126.55 42.9046 126.666 43.1916C126.782 43.4816 127.071 43.6826 127.534 43.7986C127.648 43.8216 127.747 43.8276 127.827 43.8166C127.909 43.8036 127.995 43.7986 128.089 43.7986C128.69 43.7526 129.313 43.5906 129.96 43.3136C130.606 43.0376 131.22 42.8056 131.797 42.6206C132.191 42.4586 132.6 42.3146 133.028 42.1856C133.456 42.0606 133.9 41.9266 134.363 41.7886C135.634 41.9046 136.905 42.0036 138.176 42.0836C139.428 42.1626 140.694 42.2246 141.969 42.2716C141.943 42.3886 141.908 42.4996 141.886 42.6216C141.839 42.8756 141.833 43.1246 141.869 43.3666C141.902 43.6096 141.984 43.8296 142.111 44.0256C142.238 44.2216 142.44 44.3786 142.717 44.4936C143.155 44.6326 143.636 44.6156 144.156 44.4416C144.675 44.2676 145.132 44.1116 145.524 43.9726C146.194 43.7436 146.872 43.5226 147.552 43.3146C148.234 43.1066 148.922 42.9116 149.615 42.7246C149.939 42.6326 150.274 42.5526 150.621 42.4816C150.804 42.4456 150.985 42.4206 151.167 42.3916C151.301 42.7406 151.502 43.0636 151.816 43.3446C152.197 43.6866 152.648 43.9626 153.169 44.1746C153.689 44.3866 154.146 44.5026 154.537 44.5276C155.093 44.5746 155.653 44.5686 156.219 44.5106C156.786 44.4506 157.335 44.3636 157.866 44.2446C158.559 44.1036 159.253 43.9326 159.946 43.7326C160.64 43.5336 161.333 43.3146 162.027 43.0796C162.465 42.9376 162.91 42.7806 163.361 42.6046C163.804 42.4326 164.256 42.3256 164.712 42.2776C164.793 42.2956 164.865 42.3286 164.957 42.3256C165.315 42.3146 165.644 42.2966 165.944 42.2736L167.505 42.1696C166.903 42.3786 166.309 42.5686 165.72 42.7426C165.131 42.9156 164.571 43.1646 164.038 43.4866C163.6 43.7646 163.368 44.0126 163.345 44.2316C163.323 44.4516 163.397 44.6476 163.571 44.8216C163.745 44.9956 163.965 45.1336 164.23 45.2376C164.495 45.3416 164.72 45.3936 164.906 45.3936C167.009 45.4396 169.038 45.2996 170.99 44.9746C172.944 44.6496 174.913 44.1836 176.901 43.5786C177.548 43.3926 178.196 43.2006 178.843 43.0036C179.489 42.8066 180.148 42.6366 180.82 42.4966C181.074 42.4276 181.408 42.3746 181.824 42.3406C182.24 42.3056 182.541 42.1826 182.725 41.9736C182.911 41.7656 183.003 41.5606 183.003 41.3636C183 41.1656 182.943 40.9916 182.827 40.8416ZM109.12 42.6226C108.911 42.6226 108.773 42.6566 108.704 42.7266C108.751 42.6126 108.819 42.5246 108.911 42.4666C109.005 42.4086 109.073 42.3586 109.12 42.3116V42.6226Z" fill="#1B273D"/>
</g>
<defs>
<clipPath id="clip0_116_553">
<rect width="182.5" height="51.281" fill="white" transform="translate(0.5 0.359497)"/>
</clipPath>
</defs>
</svg>
