<svg width="16" height="16" viewBox="0 0 16 16" fill="none" xmlns="http://www.w3.org/2000/svg">
<path d="M7.99966 3.8978C5.729 3.8978 3.89747 5.72933 3.89747 8C3.89747 10.2707 5.729 12.1022 7.99966 12.1022C10.2703 12.1022 12.1019 10.2707 12.1019 8C12.1019 5.72933 10.2703 3.8978 7.99966 3.8978ZM7.99966 10.667C6.5323 10.667 5.3327 9.47094 5.3327 8C5.3327 6.52906 6.52873 5.33304 7.99966 5.33304C9.4706 5.33304 10.6666 6.52906 10.6666 8C10.6666 9.47094 9.46703 10.667 7.99966 10.667ZM13.2265 3.73C13.2265 4.26197 12.7981 4.68682 12.2697 4.68682C11.7377 4.68682 11.3128 4.2584 11.3128 3.73C11.3128 3.20161 11.7413 2.77318 12.2697 2.77318C12.7981 2.77318 13.2265 3.20161 13.2265 3.73ZM15.9434 4.7011C15.8827 3.41939 15.59 2.28406 14.651 1.34866C13.7156 0.413254 12.5803 0.120495 11.2986 0.0562312C9.97757 -0.0187437 6.01818 -0.0187437 4.6972 0.0562312C3.41905 0.116925 2.28372 0.409684 1.34475 1.34509C0.405778 2.28049 0.116589 3.41582 0.0523249 4.69753C-0.02265 6.01852 -0.02265 9.97791 0.0523249 11.2989C0.113019 12.5806 0.405778 13.7159 1.34475 14.6513C2.28372 15.5867 3.41548 15.8795 4.6972 15.9438C6.01818 16.0187 9.97757 16.0187 11.2986 15.9438C12.5803 15.8831 13.7156 15.5903 14.651 14.6513C15.5864 13.7159 15.8792 12.5806 15.9434 11.2989C16.0184 9.97791 16.0184 6.02209 15.9434 4.7011ZM14.2369 12.7163C13.9584 13.416 13.4193 13.9551 12.7159 14.2372C11.6627 14.6549 9.16356 14.5585 7.99966 14.5585C6.83577 14.5585 4.33303 14.6513 3.28339 14.2372C2.58362 13.9587 2.04452 13.4196 1.76247 12.7163C1.34475 11.6631 1.44115 9.1639 1.44115 8C1.44115 6.8361 1.34832 4.33337 1.76247 3.28372C2.04094 2.58396 2.58005 2.04485 3.28339 1.7628C4.3366 1.34509 6.83577 1.44148 7.99966 1.44148C9.16356 1.44148 11.6663 1.34866 12.7159 1.7628C13.4157 2.04128 13.9548 2.58039 14.2369 3.28372C14.6546 4.33694 14.5582 6.8361 14.5582 8C14.5582 9.1639 14.6546 11.6666 14.2369 12.7163Z" fill="#CDD4D8"/>
</svg>
