<svg width="16" height="16" viewBox="0 0 16 16" fill="none" xmlns="http://www.w3.org/2000/svg">
<path d="M3.58102 16H0.263803V5.31762H3.58102V16ZM1.92063 3.86044C0.859888 3.86044 -0.000488281 2.98185 -0.000488281 1.92111C-0.000488274 1.4116 0.201914 0.92296 0.562193 0.562681C0.922472 0.202403 1.41111 0 1.92063 0C2.43014 0 2.91878 0.202403 3.27906 0.562681C3.63934 0.92296 3.84174 1.4116 3.84174 1.92111C3.84174 2.98185 2.98101 3.86044 1.92063 3.86044ZM15.9963 16H12.6862V10.7999C12.6862 9.56057 12.6612 7.97125 10.9615 7.97125C9.23686 7.97125 8.97257 9.31771 8.97257 10.7106V16H5.65892V5.31762H8.84042V6.77479H8.88685C9.32972 5.93549 10.4115 5.04976 12.0255 5.04976C15.3827 5.04976 15.9999 7.26052 15.9999 10.132V16H15.9963Z" fill="#CDD4D8"/>
</svg>
