<svg width="71" height="70" viewBox="0 0 71 70" fill="none" xmlns="http://www.w3.org/2000/svg">
<g clip-path="url(#clip0_89_482)">
<path d="M11.7903 66.6129V49.6774C11.7903 48.316 10.8881 46.2903 8.40323 46.2903C5.91823 46.2903 5.01613 48.316 5.01613 49.6774V57.5671C5.00258 58.0887 4.7971 58.7097 3.8871 58.7097C2.9771 58.7097 2.77161 58.0889 2.75806 57.5807V30.4839H28.7258V28.2258H0.5V57.5807C0.5 58.9423 1.4021 60.9678 3.8871 60.9678C6.37196 60.9678 7.27419 58.9423 7.27419 57.5807V49.6911C7.28774 49.1694 7.49323 48.5484 8.40323 48.5484C9.31308 48.5484 9.51857 49.1694 9.53226 49.6774V66.6129C9.53226 67.9745 10.4344 70 12.9194 70V67.742C12.0094 67.742 11.8039 67.121 11.7903 66.6129Z" fill="#FFB600"/>
<path d="M50.1775 28.2258H47.9194C47.9194 28.8491 47.4136 29.3549 46.7904 29.3549C46.1672 29.3549 45.6614 28.8491 45.6614 28.2258H43.4033C43.4033 30.0932 44.923 31.6129 46.7904 31.6129C48.6578 31.6129 50.1775 30.0932 50.1775 28.2258Z" fill="#FFB600"/>
<path d="M40.0162 23.7097C40.6398 23.7097 41.1453 23.2042 41.1453 22.5807C41.1453 21.9571 40.6398 21.4517 40.0162 21.4517C39.3927 21.4517 38.8872 21.9571 38.8872 22.5807C38.8872 23.2042 39.3927 23.7097 40.0162 23.7097Z" fill="#FFB600"/>
<path d="M53.5646 23.7097C54.1881 23.7097 54.6936 23.2042 54.6936 22.5807C54.6936 21.9571 54.1881 21.4517 53.5646 21.4517C52.941 21.4517 52.4355 21.9571 52.4355 22.5807C52.4355 23.2042 52.941 23.7097 53.5646 23.7097Z" fill="#FFB600"/>
<path d="M47.9192 23.7097H45.6611V25.9678H47.9192V23.7097Z" fill="#FFB600"/>
<path d="M53.5645 37.2581H53.316L52.7403 34.9526C56.6365 33.3166 59.5687 30.0831 60.8106 25.9677H61.3266C63.8939 25.9677 65.9839 23.9423 65.9839 21.4516V17.5C65.9839 7.85016 57.3739 0 46.7903 0C40.0861 0 35.0935 3.2979 34.4421 7.98127C29.9869 8.65417 27.7334 13.5235 27.608 16.8892C27.599 17.1173 27.5968 21.4087 27.5968 21.4516C27.5968 23.9423 29.6866 25.9677 32.254 25.9677H32.7687C34.0119 30.0842 36.9439 33.3177 40.8392 34.9537L40.2645 37.2581H39.9834C37.8879 37.3202 35.6242 37.8713 33.2419 38.884V36.129H28.7258V32.7419H5.01611V41.7742H28.7258V38.3871H30.9839V44.0323H17.4355V53.0645H15.1774V70H21.9516V53.0645H19.6935V46.2903H30.9839V65.4839H70.5V50.5411C70.5 43.968 62.2863 37.5132 53.5645 37.2581ZM26.4677 39.5161H7.27418V35H26.4677V39.5161ZM19.6935 67.7419H17.4355V55.3226H19.6935V67.7419ZM55.8226 39.7589C57.3919 40.0265 58.9205 40.4994 60.3387 41.1441V48.2999C59.7379 47.7591 58.9511 47.4194 58.0806 47.4194C57.2101 47.4194 56.4232 47.7592 55.8226 48.3V39.7589ZM59.2097 50.8065C59.2097 51.4297 58.7039 51.9355 58.0806 51.9355C57.4574 51.9355 56.9516 51.4297 56.9516 50.8065C56.9516 50.1834 57.4574 49.6774 58.0806 49.6774C58.7039 49.6774 59.2097 50.1834 59.2097 50.8065ZM61.3266 23.7097H61.2916C61.3965 22.9747 61.4677 22.225 61.4677 21.4516V19.2072C62.7242 19.2771 63.7258 20.2526 63.7258 21.4516C63.7258 22.6969 62.6498 23.7097 61.3266 23.7097ZM32.254 23.7097C30.9308 23.7097 29.8548 22.6969 29.8548 21.4516C29.8548 20.2526 30.8563 19.2771 32.1129 19.2072V21.4516C32.1129 22.225 32.184 22.9747 32.289 23.7097H32.254ZM32.254 16.9355H32.1129V16.9492C31.2887 16.974 30.5243 17.2089 29.8605 17.5972C29.8616 17.2708 29.8627 17.036 29.8637 16.9773C29.953 14.6006 31.6963 10.1613 35.5 10.1613H36.629V9.03226C36.629 5.10675 40.9023 2.25806 46.7903 2.25806C56.1285 2.25806 63.7258 9.09548 63.7258 17.5V17.6005C63.0606 17.2098 62.294 16.974 61.4677 16.9492V16.9355H61.3266H60.3387C54.9216 16.9355 51.1856 10.7756 51.1472 10.7134L50.3298 9.34274L49.3092 10.5666C49.2572 10.631 43.8808 16.9355 33.2419 16.9355H32.254ZM34.371 21.4516V19.171C42.7585 18.8482 47.9487 14.9755 50.0193 13.0606C51.4543 14.9858 54.7003 18.5929 59.2097 19.1269V21.4516C59.2097 28.5318 53.8705 33.871 46.7892 33.871C39.7101 33.871 34.371 28.5318 34.371 21.4516ZM51.2963 38.4842C51.2432 40.9297 49.2482 42.9032 46.7903 42.9032C44.3324 42.9032 42.3373 40.9298 42.2842 38.4842L42.9922 35.6536C44.1969 35.954 45.4637 36.129 46.7892 36.129C48.1157 36.129 49.3826 35.9542 50.5884 35.6537L51.2963 38.4842ZM40.0161 39.5161H40.1098C40.6494 42.7159 43.4393 45.1613 46.7903 45.1613C50.1413 45.1613 52.9311 42.7159 53.4708 39.5161H53.5318C53.5419 39.5161 53.5532 39.5185 53.5645 39.5185V49.6774H40.0161V39.5161ZM33.2419 46.2903V45.1613V41.3723C34.826 40.626 36.3366 40.1044 37.758 39.8131V48.3C37.1574 47.7581 36.3705 47.4194 35.5 47.4194C34.6295 47.4194 33.8426 47.7592 33.2419 48.3V46.2903ZM36.629 50.8065C36.629 51.4297 36.1232 51.9355 35.5 51.9355C34.8768 51.9355 34.371 51.4297 34.371 50.8065C34.371 50.1834 34.8768 49.6774 35.5 49.6774C36.1232 49.6774 36.629 50.1834 36.629 50.8065ZM55.8226 63.2258H37.758V60.9677H55.8226V63.2258ZM60.3398 63.2258H58.0818V58.7097H53.5656V56.4516H51.3076V58.7097H42.2753V56.4516H40.0172V58.7097H35.5011V63.2258H33.243V53.314C33.8436 53.8553 34.6301 54.1935 35.5 54.1935C36.97 54.1935 38.2119 53.2463 38.6792 51.9355H54.9024C55.37 53.2463 56.6118 54.1935 58.0818 54.1935C58.9522 54.1935 59.7392 53.8538 60.3398 53.313V63.2258ZM68.2419 63.2258H62.5968V58.7097H68.2419V63.2258ZM68.2419 56.4516H62.5968V42.3637C65.9363 44.4895 68.2419 47.5335 68.2419 50.5411V56.4516Z" fill="#FFB600"/>
</g>
<defs>
<clipPath id="clip0_89_482">
<rect width="70" height="70" fill="white" transform="translate(0.5)"/>
</clipPath>
</defs>
</svg>
