<svg width="71" height="70" viewBox="0 0 71 70" fill="none" xmlns="http://www.w3.org/2000/svg">
<g clip-path="url(#clip0_89_457)">
<path d="M47.9462 30.4814H45.6907C45.6907 31.1035 45.1844 31.6104 44.563 31.6104C43.9416 31.6104 43.4352 31.1035 43.4352 30.4814H41.1797C41.1797 32.3487 42.6976 33.8683 44.563 33.8683C46.4281 33.8683 47.9462 32.3487 47.9462 30.4814Z" fill="#FFB600"/>
<path d="M51.3294 24.8367C51.9523 24.8367 52.4572 24.3313 52.4572 23.7078C52.4572 23.0843 51.9523 22.5789 51.3294 22.5789C50.7066 22.5789 50.2017 23.0843 50.2017 23.7078C50.2017 24.3313 50.7066 24.8367 51.3294 24.8367Z" fill="#FFB600"/>
<path d="M37.7962 24.8367C38.4191 24.8367 38.924 24.3313 38.924 23.7078C38.924 23.0843 38.4191 22.5789 37.7962 22.5789C37.1734 22.5789 36.6685 23.0843 36.6685 23.7078C36.6685 24.3313 37.1734 24.8367 37.7962 24.8367Z" fill="#FFB600"/>
<path d="M70.4762 57.1075L70.192 54.8394L69.3608 49.5041C68.823 45.9423 65.5458 41.4354 61.7237 40.6678L52.457 38.6074V36.5935C56.1311 34.7759 58.6935 31.7391 59.1491 28.2245H59.7874C61.9639 28.2245 63.7346 26.4521 63.7346 24.2732C63.7346 22.0945 61.9639 20.3208 59.7874 20.3208H63.7346V13.5473H61.4092C60.7122 6.92281 53.994 0 44.5627 0C35.1313 0 28.4131 6.92281 27.7163 13.5473H25.3909V20.3209H29.338C27.1614 20.3209 25.3909 22.0935 25.3909 24.2722C25.3909 26.4511 27.1614 28.2235 29.338 28.2235H29.9762C30.4318 31.7379 32.9941 34.776 36.6684 36.5925V38.6064L27.4252 40.6633C23.8299 41.3836 20.7274 45.3778 19.9032 48.8086L4.5182 47.4281C3.71298 47.3546 2.93497 47.6086 2.31005 48.1404C1.64016 48.7094 1.21725 49.5561 1.15072 50.4659L0.5 59.266L4.04341 59.5404L3.84056 62.2248L7.52945 61.0417L9.86842 62.9101L12.6777 61.8375L14.9805 63.6833L17.7899 62.6108L20.0904 64.4542L22.893 63.3807L25.1946 65.2253L28.0016 64.1518L30.3013 65.9952L33.1082 64.9227L35.4077 66.7663L37.114 66.1125C37.8482 67.9244 39.4474 69.269 41.4097 69.4383L47.4375 69.9802C47.5785 69.9927 47.7195 69.9994 47.8604 69.9994C49.0299 69.9994 50.1577 69.5806 51.0779 68.7971C52.1888 67.8511 52.8913 66.4376 53.0053 64.9203L53.1733 62.6624L67.5441 60.8899C69.379 60.6648 70.6951 58.9736 70.4762 57.1075ZM61.4791 42.9381C64.1968 43.6415 66.7254 47.1559 67.1314 49.8473L67.4708 52.0227L61.4791 52.6741V42.9381ZM54.7125 53.0602V41.422L59.2234 42.4256V52.9191L53.2566 53.5673C53.1856 53.3934 53.1066 53.2239 53.0209 53.0602H54.7125ZM61.4789 24.2722C61.4789 25.2059 60.72 25.9656 59.7873 25.9656H59.2234V22.5788H59.7873C60.72 22.5788 61.4789 23.3386 61.4789 24.2722ZM54.7125 5.99806C57.1744 8.10693 58.7894 10.8469 59.1467 13.5473H54.7125V5.99806ZM44.5627 2.25788C45.2765 2.25788 45.969 2.3211 46.6491 2.41142L46.3862 4.51576H42.739L42.4762 2.41142C43.1563 2.3211 43.8487 2.25788 44.5627 2.25788ZM46.1042 6.77365L45.8223 9.03153H43.3029L43.0209 6.77365H46.1042ZM36.6684 4.39723C37.768 3.75599 38.9679 3.22877 40.2592 2.86187L41.3113 11.2894H47.8139L48.8661 2.86074C50.1574 3.22764 51.3573 3.75486 52.457 4.3961V13.5473H36.6684V4.39723ZM34.4129 5.99806V13.5473H29.9786C30.3361 10.8469 31.951 8.10693 34.4129 5.99806ZM29.9019 25.9656H29.338C28.4054 25.9656 27.6464 25.2059 27.6464 24.2722C27.6464 23.3386 28.4054 22.5788 29.338 22.5788H29.9019V25.9656ZM27.6464 18.0631V15.8052H61.4789V18.0631H27.6464ZM32.1574 27.0946V20.3209H56.968V27.0946C56.968 29.8932 55.2097 32.3984 52.457 34.0556V31.6104C52.457 28.4979 49.9275 25.9656 46.8182 25.9656H45.6905V23.7078H43.435V25.9656H42.3072C39.1978 25.9656 36.6684 28.4979 36.6684 31.6104V34.0556C33.9154 32.3984 32.1574 29.8932 32.1574 27.0946ZM44.5627 38.384C46.56 38.384 48.4648 38.0724 50.2015 37.5136V38.9091L44.5627 42.6719L38.9239 38.9091V37.5136C40.6605 38.0724 42.5655 38.384 44.5627 38.384ZM38.9239 35.1293V31.6104C38.9239 29.7432 40.4419 28.2235 42.3072 28.2235H46.8182C48.6834 28.2235 50.2015 29.7432 50.2015 31.6104V35.1294C48.5075 35.7615 46.5937 36.1261 44.5627 36.1261C42.5315 36.1261 40.6177 35.7615 38.9239 35.1293ZM51.5535 40.7198L52.4569 40.9209V44.8417L47.3085 43.5536L51.5535 40.7198ZM36.6684 40.9207L37.5718 40.7196L41.8165 43.5521L36.6683 44.8415V40.9207H36.6684ZM29.9019 42.4256L34.4129 41.422V50.1114L29.9019 49.7062V42.4256ZM27.6464 42.9393V49.5052L22.1846 49.0152C22.913 46.4842 25.1912 43.585 27.6464 42.9393ZM36.6829 63.495C36.6741 63.617 36.692 63.7323 36.6897 63.8529L35.8078 64.1927L33.5083 62.3492L30.7013 63.4218L28.4017 61.5782L25.5936 62.6519L23.2918 60.8072L20.4893 61.8808L18.1899 60.0372L15.3805 61.1099L13.0776 59.2663L10.2662 60.3388L7.98943 58.5187L6.33952 59.0493L6.70055 54.2818L37.1759 56.9404L36.6829 63.495ZM37.3528 54.6927L4.62533 51.8377L4.21258 57.2894L2.91565 57.1876L3.3996 50.6332C3.42329 50.3238 3.55749 50.0426 3.76951 49.8608C3.88341 49.7649 4.07386 49.6553 4.31647 49.6768L37.8966 52.6922C37.6022 53.312 37.4126 53.9895 37.3528 54.6927ZM36.6684 50.3148V47.1672L44.5627 45.1915L52.457 47.1672V50.8024H50.7936C50.2207 50.4964 49.5982 50.2887 48.9384 50.2311L42.9104 49.6892C41.7557 49.5887 40.6369 49.9184 39.6828 50.5845L36.6684 50.3148ZM50.7541 64.7493C50.6853 65.6684 50.2692 66.5162 49.6139 67.076C49.0477 67.5592 48.3475 67.7974 47.6335 67.7297L41.6056 67.1878C39.9974 67.0491 38.7999 65.4707 38.934 63.6679L39.5914 54.9186C39.6602 53.9995 40.0764 53.1517 40.7316 52.5919C41.2989 52.1087 42.0037 51.875 42.7121 51.9382L48.7388 52.4801C49.6083 52.5569 50.3831 53.0818 50.8758 53.8495L47.5207 54.2648C47.2468 54.2976 46.9861 54.3733 46.7324 54.4692L43.8622 54.1926C43.3435 54.144 42.8192 54.3156 42.4052 54.6724C41.9554 55.0607 41.6755 55.6365 41.6385 56.2427L41.1806 62.7578C41.1071 63.9794 41.9328 65.0133 43.0504 65.1106L46.763 65.4729C46.8205 65.4784 46.878 65.4808 46.9344 65.4808C47.4003 65.4808 47.8501 65.3115 48.2189 64.9931C48.6689 64.6048 48.9486 64.029 48.9858 63.4194L49.0027 63.1733L50.8883 62.9409L50.7541 64.7493ZM44.5864 58.0389L44.8571 60.2855C45.0104 61.4438 45.7514 62.4227 46.7572 62.9114L46.7369 63.2025L43.4326 62.8798L43.8872 56.4639L44.7374 56.5451C44.584 57.0149 44.5266 57.5218 44.5864 58.0389ZM67.2677 58.6462L48.3067 60.9865C48.2222 60.9991 48.1332 60.9978 48.0216 60.9776C47.5423 60.8986 47.1611 60.4911 47.0957 60.0022L46.8273 57.7714C46.772 57.3007 47.0111 56.8367 47.4081 56.6211C47.5242 56.5601 47.6505 56.5217 47.7971 56.5036L52.7041 55.8963L67.8195 54.2535L68.239 57.3796C68.3109 58.005 67.8767 58.5729 67.2677 58.6462Z" fill="#FFB600"/>
</g>
<defs>
<clipPath id="clip0_89_457">
<rect width="70" height="70" fill="white" transform="translate(0.5)"/>
</clipPath>
</defs>
</svg>
