<svg width="20" height="20" viewBox="0 0 20 20" fill="none" xmlns="http://www.w3.org/2000/svg">
<path fill-rule="evenodd" clip-rule="evenodd" d="M1.81818 10C1.81818 5.48131 5.48131 1.81818 10 1.81818C14.5187 1.81818 18.1818 5.48131 18.1818 10C18.1818 14.5187 14.5187 18.1818 10 18.1818C5.48131 18.1818 1.81818 14.5187 1.81818 10ZM10 0C4.47715 0 0 4.47715 0 10C0 15.5228 4.47715 20 10 20C15.5228 20 20 15.5228 20 10C20 4.47715 15.5228 0 10 0ZM10.9088 4.54557C10.9088 4.04349 10.5017 3.63647 9.99967 3.63647C9.49759 3.63647 9.09058 4.04349 9.09058 4.54557V10.0001C9.09058 10.3444 9.28512 10.6592 9.59311 10.8132L13.2295 12.6314C13.6785 12.8559 14.2246 12.6739 14.4491 12.2248C14.6737 11.7758 14.4917 11.2297 14.0426 11.0052L10.9088 9.43826V4.54557Z" fill="#FFB600"/>
</svg>
