<svg width="20" height="16" viewBox="0 0 20 16" fill="none" xmlns="http://www.w3.org/2000/svg">
<path d="M17.9709 3.98749C17.9834 4.16248 17.9834 4.33751 17.9834 4.5125C17.9834 9.84998 13.9209 16 6.4959 16C4.20839 16 2.08341 15.3375 0.295898 14.1875C0.62091 14.225 0.933379 14.2375 1.2709 14.2375C3.15837 14.2375 4.89589 13.6 6.2834 12.5125C4.5084 12.475 3.02089 11.3125 2.50838 9.7125C2.7584 9.74997 3.00838 9.77498 3.27091 9.77498C3.6334 9.77498 3.99593 9.72496 4.3334 9.63751C2.48341 9.26248 1.09587 7.63749 1.09587 5.67499V5.62501C1.63335 5.92501 2.2584 6.11251 2.92085 6.13748C1.83335 5.41247 1.12088 4.17498 1.12088 2.77497C1.12088 2.02499 1.32084 1.33749 1.67086 0.737481C3.65837 3.18748 6.64589 4.78745 9.99585 4.96248C9.93337 4.66248 9.89585 4.35001 9.89585 4.03751C9.89585 1.81248 11.6959 0 13.9334 0C15.0959 0 16.1458 0.487499 16.8834 1.275C17.7958 1.10001 18.6708 0.762491 19.4459 0.300002C19.1458 1.23752 18.5083 2.02502 17.6709 2.52499C18.4834 2.43753 19.2709 2.21248 19.9958 1.90001C19.4459 2.69998 18.7584 3.41245 17.9709 3.98749Z" fill="#CDD4D8"/>
</svg>
