<svg width="70" height="70" viewBox="0 0 70 70" fill="none" xmlns="http://www.w3.org/2000/svg">
<g clip-path="url(#clip0_89_442)">
<path d="M25.9675 21.4517H23.7095V23.7097H25.9675V21.4517Z" fill="#FFB600"/>
<path d="M28.2259 25.9678H25.9678C25.9678 26.5899 25.462 27.0968 24.8388 27.0968C24.2155 27.0968 23.7097 26.5899 23.7097 25.9678H21.4517C21.4517 27.8352 22.9713 29.3549 24.8388 29.3549C26.7062 29.3549 28.2259 27.8352 28.2259 25.9678Z" fill="#FFB600"/>
<path d="M63.7644 46.2903L68.6656 35.7869C68.9816 35.1084 68.9321 34.3271 68.5313 33.6971C68.1508 33.0987 67.5084 32.7418 66.814 32.7418H60.9677V28.2257H64.3548V16.9353C64.3548 15.12 63.1523 12.4192 59.8387 12.4192C56.525 12.4192 55.3226 15.12 55.3226 16.9353V28.2257H58.7097V32.7418H52.8635C52.1691 32.7418 51.5256 33.0986 51.1463 33.6981C50.7453 34.3281 50.6958 35.1094 51.0119 35.7868L55.9131 46.2903H47.4194V46.1345C47.4194 39.9948 42.4245 35 36.286 35H32.4935L31.7347 31.964C34.0571 30.5482 35.8274 28.4415 36.6855 25.9677H37.8226C40.0015 25.9677 41.7742 24.1952 41.7742 22.0161C41.7742 19.8372 40.0015 18.0645 37.8226 18.0645H41.7742V11.2903H39.4494C38.7969 5.6621 33.3347 0 24.8387 0C16.3427 0 10.8805 5.6621 10.2279 11.2903H7.90323V18.0645H11.8548C9.67581 18.0645 7.90323 19.8372 7.90323 22.0161C7.90323 24.1952 9.67581 25.9677 11.8548 25.9677H12.9918C13.8498 28.4415 15.619 30.5482 17.9426 31.964L17.1839 35H14.5216C7.75871 35 2.25806 40.5018 2.25806 47.2635V54.1935H0V70H70V46.2903H63.7644ZM59.8387 14.6774C61.9002 14.6774 62.0877 16.4127 62.0968 16.9355H57.5806C57.5806 16.5584 57.6902 14.6774 59.8387 14.6774ZM57.5806 25.9677V19.1935H62.0968V25.9677H57.5806ZM53.0927 35H58.7097V39.5161H60.9677V35H66.5416L59.8374 49.3659L53.0927 35ZM49.6774 48.5484H56.9663L57.986 50.7353C58.3324 51.476 59.0416 51.9355 59.8387 51.9355C60.2531 51.9355 60.6392 51.8069 60.9677 51.5834V54.1935H49.6774V48.5484ZM54.1935 56.4516V60.9677H42.9032V56.4516H54.1935ZM47.4194 54.1935H36.129V48.5484H47.4194V54.1935ZM40.6452 56.4516V60.9677H29.3548V56.4516H40.6452ZM40.6452 38.4119C43.3379 39.9374 45.1613 42.8243 45.1613 46.1347V46.2903H40.6452V38.4119ZM32.7419 38.3871V37.2581H36.2858C37.0108 37.2581 37.7118 37.3552 38.3871 37.52V46.2903H33.871V54.1935H28.2258V44.6758C28.2258 44.2524 28.5294 43.8719 28.9991 43.7037C31.2381 42.9032 32.7419 40.766 32.7419 38.3871ZM25.9677 44.6758V54.1935H23.7097V44.6758C23.7097 43.2871 22.8187 42.0711 21.4392 41.5777C20.0968 41.0968 19.1935 39.8153 19.1935 38.3871V38.2324C20.4581 38.8771 22.3378 39.5161 24.8387 39.5161C27.3395 39.5161 29.2194 38.8772 30.4839 38.2324V38.3871C30.4839 39.8153 29.5806 41.0968 28.2382 41.5777C26.8585 42.0711 25.9677 43.2871 25.9677 44.6758ZM27.0968 56.4516V60.9677H15.8065V56.4516H27.0968ZM19.3347 35.7023L20.0142 32.9847C21.4979 33.5548 23.1282 33.871 24.8387 33.871C26.5492 33.871 28.1795 33.5548 29.6631 32.9835L30.3427 35.7013C29.5434 36.2645 27.729 37.2581 24.8387 37.2581C21.9484 37.2581 20.134 36.2645 19.3347 35.7023ZM39.5161 22.0161C39.5161 22.9498 38.7563 23.7097 37.8226 23.7097H37.1948C37.2355 23.3382 37.2581 22.9623 37.2581 22.5806V20.3226H37.8226C38.7563 20.3226 39.5161 21.0824 39.5161 22.0161ZM36.505 9.03226C36.8313 9.77065 37.0548 10.5294 37.1655 11.2903H33.871V10.1613C33.871 9.53919 34.3768 9.03226 35 9.03226H36.505ZM28.2258 2.64081C31.2144 3.3171 33.5639 4.8571 35.115 6.77419H35C33.1326 6.77419 31.6129 8.29401 31.6129 10.1613V11.2903H28.2258V2.64081ZM23.7097 2.30661C24.08 2.2805 24.4526 2.25792 24.8387 2.25792C25.2247 2.25792 25.5974 2.2805 25.9677 2.30661V11.2903H23.7097V2.30661ZM21.4516 2.64081V11.2903H18.0645V10.1613C18.0645 8.29401 16.5447 6.77419 14.6774 6.77419H14.5623C16.1135 4.8571 18.4629 3.3171 21.4516 2.64081ZM13.1724 9.03226H14.6774C15.3006 9.03226 15.8065 9.53919 15.8065 10.1613V11.2903H12.5119C12.6226 10.5294 12.8461 9.77065 13.1724 9.03226ZM11.8548 23.7097C10.9211 23.7097 10.1613 22.9498 10.1613 22.0161C10.1613 21.0824 10.9211 20.3226 11.8548 20.3226H12.4194V22.5806C12.4194 22.9623 12.4419 23.3382 12.4824 23.7097H11.8548ZM10.1613 15.8065V13.5484H39.5161V15.8065H10.1613ZM14.6774 22.5806V18.0645H35V22.5806C35 27.5608 30.4421 31.6129 24.8387 31.6129C19.2353 31.6129 14.6774 27.5608 14.6774 22.5806ZM11.2903 37.8034C12.3053 37.4556 13.3892 37.2581 14.5205 37.2581H16.9355V38.3871C16.9355 40.766 18.4392 42.9032 20.6782 43.7039C21.1479 43.8719 21.4516 44.2537 21.4516 44.6759V54.1935H11.2903V37.8034ZM4.51613 47.2635C4.51613 43.7737 6.31581 40.6992 9.03226 38.9076V54.1935H4.51613V47.2635ZM2.25806 56.4516H13.5484V60.9677H2.25806V56.4516ZM6.77419 67.7419H2.25806V63.2258H6.77419V67.7419ZM20.3226 67.7419H9.03226V63.2258H20.3226V67.7419ZM33.871 67.7419H22.5806V63.2258H33.871V67.7419ZM47.4194 67.7419H36.129V63.2258H47.4194V67.7419ZM60.9677 67.7419H49.6774V63.2258H60.9677V67.7419ZM67.7418 67.7419H63.2257V63.2258H67.7418V67.7419ZM67.7419 60.9677H56.4516V56.4516H67.7419V60.9677ZM67.7419 54.1935H63.2258V48.5484H67.7419V54.1935Z" fill="#FFB600"/>
<path d="M31.6129 22.5806C32.2365 22.5806 32.742 22.0751 32.742 21.4515C32.742 20.828 32.2365 20.3225 31.6129 20.3225C30.9894 20.3225 30.4839 20.828 30.4839 21.4515C30.4839 22.0751 30.9894 22.5806 31.6129 22.5806Z" fill="#FFB600"/>
<path d="M18.0646 22.5806C18.6881 22.5806 19.1936 22.0751 19.1936 21.4515C19.1936 20.828 18.6881 20.3225 18.0646 20.3225C17.441 20.3225 16.9355 20.828 16.9355 21.4515C16.9355 22.0751 17.441 22.5806 18.0646 22.5806Z" fill="#FFB600"/>
<path d="M19.1935 45.1614H13.5483V47.4194H19.1935V45.1614Z" fill="#FFB600"/>
<path d="M19.1935 49.6775H13.5483V51.9356H19.1935V49.6775Z" fill="#FFB600"/>
</g>
<defs>
<clipPath id="clip0_89_442">
<rect width="70" height="70" fill="white"/>
</clipPath>
</defs>
</svg>
