<svg width="70" height="70" viewBox="0 0 70 70" fill="none" xmlns="http://www.w3.org/2000/svg">
<g clip-path="url(#clip0_89_469)">
<path d="M10.1614 49.6772H7.90332V51.9353H10.1614V49.6772Z" fill="#FFB600"/>
<path d="M14.6775 49.6772H12.4194V56.4514H14.6775V49.6772Z" fill="#FFB600"/>
<path d="M10.1614 56.4514H7.90332V58.7095H10.1614V56.4514Z" fill="#FFB600"/>
<path d="M64.3548 62.0967C62.4874 62.0967 60.9677 63.6165 60.9677 65.4838V66.6128C60.9677 67.2349 60.4607 67.7418 59.8387 67.7418H56.2585C55.9571 67.7418 55.6726 67.6246 55.4592 67.411L54.2094 66.1613L55.7529 64.6178L53.8447 62.5189L67.0363 60.8921C68.8753 60.6718 70.1953 58.9807 69.975 57.1133L69.6905 54.8496L68.6879 48.2154C68.1223 44.4692 65.2579 41.4547 61.5808 40.7175L51.9355 38.6072V36.3954C56.5544 34.5831 59.8387 30.092 59.8387 24.8385V22.5804H62.0968C63.342 22.5804 64.3548 21.5677 64.3548 20.3223V15.8062C64.3548 14.5609 63.342 13.5481 62.0968 13.5481H59.8387V12.4191C59.8387 5.57153 54.2669 -0.000244141 47.4194 -0.000244141H40.6452C33.7974 -0.000244141 28.2258 5.57153 28.2258 12.4191V13.5481H25.9677C24.7224 13.5481 23.7097 14.5609 23.7097 15.8062V20.3223C23.7097 21.5677 24.7224 22.5804 25.9677 22.5804H28.2258V24.8385C28.2258 30.092 31.51 34.5831 36.129 36.3954V38.6104L27.414 40.5468L24.3949 39.8084L22.9982 34.4139L18.0676 37.2659L13.1419 34.4072L11.7385 39.7994L6.27177 41.1284L8.24758 45.1612H3.3871V60.9676H0V63.2257H14.6774V65.4838H0V67.7418H14.6774V69.9999H25.9677V67.7418H49.4358L51.0323 69.3384L52.6129 67.7578L53.8626 69.0076C54.5016 69.6478 55.3531 69.9999 56.2585 69.9999H59.8387C61.706 69.9999 63.2258 68.4802 63.2258 66.6128V65.4838C63.2258 64.8618 63.7327 64.3547 64.3548 64.3547H70V62.0967H64.3548ZM59.8387 15.8063H62.0968V20.3225H59.8387V15.8063ZM28.2258 20.3225H25.9677V15.8063H28.2258V20.3225ZM62.0968 43.2046C64.3818 44.0412 66.0832 46.0835 66.456 48.5517L66.9787 52.0123L62.0968 52.5462V43.2046ZM59.8387 42.6468V52.7934L51.9208 53.6596L46.996 54.2691C46.6313 54.3133 46.2869 54.4215 45.9582 54.5763L42 50.8063H51.9355V40.9184L59.8387 42.6468ZM44.0571 58.0434L44.2118 59.3238L39.9835 55.0967L41.5677 53.5126L44.3642 56.176C44.0966 56.7428 43.9803 57.3841 44.0571 58.0434ZM42.9032 24.8386H45.1613V34.9999H42.9032V24.8386ZM35 22.5805V13.5483H53.0645V22.5805H35ZM47.4194 37.258C48.1916 37.258 48.9435 37.1779 49.6774 37.0425V38.8241L44.1429 41.641L38.3871 38.8126V37.0423C39.121 37.1778 39.8728 37.2578 40.6452 37.2578H47.4194V37.258ZM46.5997 42.9246L49.6774 41.3576V44.4636L46.5997 42.9246ZM49.6774 46.988V48.5484H45.1613V44.7299L49.6774 46.988ZM41.5495 42.8828L38.3871 44.4634V41.3293L41.5495 42.8828ZM42.9032 44.7299V48.5484H38.3871V46.988L42.9032 44.7299ZM41.081 50.8065L39.9677 51.9197L38.8544 50.8065H41.081ZM30.4839 24.8386V12.4193C30.4839 11.2304 30.6994 10.0936 31.0766 9.03215H39.5161V6.77409H32.2023C34.0279 4.05312 37.1305 2.25796 40.6452 2.25796H47.4194C53.0215 2.25796 57.5806 6.81713 57.5806 12.4193V24.8386C57.5806 30.4409 53.0215 34.9999 47.4194 34.9999V24.8386H55.3226V11.2902H32.7419V24.8386H40.6452V34.9999C35.0429 34.9999 30.4839 30.4409 30.4839 24.8386ZM13.5823 41.6749L14.5782 37.8518L18.0658 39.8763L21.5579 37.8563L22.548 41.6815L26.449 42.6367L24.3795 45.9843L26.4433 49.3365L22.5392 50.286L21.5095 54.2388L19.1935 53.1626V45.1612H10.7619L9.53581 42.6583L13.5823 41.6749ZM14.6774 60.9676H5.64516V47.4193H16.9355V58.7096H14.6774V60.9676ZM23.7097 67.7418H16.9355V60.9676H23.7097V67.7418ZM19.1935 58.7096V55.651L23.0141 57.4214L24.3836 52.1591L29.9937 50.7952L27.0313 45.9843L29.2102 42.4594L36.129 40.9229V48.0799L33.2094 45.1612H29.3548V47.4193H32.2745L38.3713 53.516L36.7906 55.0967L42.6618 60.9678H25.9677V58.7097L19.1935 58.7096ZM25.9677 65.4838V63.2257H44.9197L47.1777 65.4838H25.9677ZM47.495 60.9834C47.0152 60.9034 46.6324 60.4968 46.5681 60.0091L46.2994 57.7771C46.244 57.3063 46.4823 56.8423 46.8819 56.6267C46.9971 56.5657 47.1224 56.5286 47.2692 56.5104L52.1827 55.9029L67.3161 54.2468L67.7339 57.3854C67.8074 58.011 67.3737 58.5776 66.7641 58.651L47.7806 60.9913C47.696 61.0039 47.6068 61.0015 47.495 60.9834ZM51.0323 66.1454L48.1126 63.2257L51.1011 62.8578L52.6344 64.5446L51.0323 66.1454Z" fill="#FFB600"/>
<path d="M53.0647 6.77417H41.7744V9.03223H53.0647V6.77417Z" fill="#FFB600"/>
</g>
<defs>
<clipPath id="clip0_89_469">
<rect width="70" height="70" fill="white"/>
</clipPath>
</defs>
</svg>
